<svg xmlns="http://www.w3.org/2000/svg" width="600" height="800"><g transform="translate(50.0) translate(300.0 400.0) scale(51.727413177490234) translate(0.0011637210845947266 -0.01253509521484375)"><g transform="scale(-1 1)"><line stroke="#966441" stroke-width="0.09666055" x1="-0.06797021282967108" y1="-2.2120604069042678" x2="-0.17915624725360146" y2="-4.4479777725826395" stroke-linecap="round"/><line stroke="#966441" stroke-width="0.09666055" x1="-3.9961676373745547" y1="-2.4689322904594064" x2="-3.9756633275012305" y2="-2.5461384299691048" stroke-linecap="round"/><line stroke="#966441" stroke-width="0.09666055" x1="-3.9756633275012305" y1="-2.5461384299691048" x2="-2.0763301312775795" y2="-0.0017447384965407764" stroke-linecap="round"/><line stroke="#966441" stroke-width="0.09666055" x1="-2.0813534611978532" y1="0.0027659593369833146" x2="-4.253820164358224" y2="0.048557706457799554" stroke-linecap="round"/><line stroke="#966441" stroke-width="0.09666055" x1="-2.0763301312775795" y1="-0.0017447384965407764" x2="-2.0813534611978532" y2="0.0027659593369833146" stroke-linecap="round"/><line stroke="#966441" stroke-width="0.09666055" x1="-1.5048304625777718" y1="-4.363544052852873" x2="-1.3120937662096424" y2="-4.386237139193227" stroke-linecap="round"/><line stroke="#966441" stroke-width="0.09666055" x1="-0.06797021282967108" y1="-2.2120604069042678" x2="-2.2177224521639687" y2="-4.241532597754556" stroke-linecap="round"/><line stroke="#966441" stroke-width="0.09666055" x1="-3.3299895276452673" y1="3.6633822695222165" x2="-3.3045103761233463" y2="3.6367600340094555" stroke-linecap="round"/><line stroke="#966441" stroke-width="0.09666055" x1="-3.3045103761233463" y1="3.6367600340094555" x2="-5.204170427930421e-18" y2="1.0747046288208428" stroke-linecap="round"/><line stroke="#966441" stroke-width="0.09666055" x1="-4.225825037216865" y1="0.9068138924544371" x2="-4.24273118792776" y2="0.5964879796318456" stroke-linecap="round"/><line stroke="#966441" stroke-width="0.09666055" x1="-2.0813534611978532" y1="0.0027659593369833146" x2="-3.988426843036166" y2="2.5032449643418886" stroke-linecap="round"/><line stroke="#966441" stroke-width="0.09666055" x1="-2.2133792786651583" y1="4.278033295147431" x2="-1.1796119636642288e-16" y2="2.216808193231375" stroke-linecap="round"/><line stroke="#966441" stroke-width="0.09666055" x1="-0.03390281965582176" y1="4.479924745341577" x2="-0.4763793680594688" y2="4.476208465704062" stroke-linecap="round"/><line stroke="#966441" stroke-width="0.09666055" x1="-1.6479873021779667e-16" y1="-1.0222097052146188" x2="-3.292426478902456" y2="-3.5642289871934167" stroke-linecap="round"/><line stroke="#966441" stroke-width="0.09666055" x1="-2.0763301312775795" y1="-0.0017447384965407764" x2="-1.0429794553764662" y2="-0.007215905413875845" stroke-linecap="round"/><line stroke="#966441" stroke-width="0.09666055" x1="-1.0429794553764662" y1="-0.007215905413875845" x2="-0.9699668978212728" y2="0.003957633075181377" stroke-linecap="round"/><line stroke="#966441" stroke-width="0.09666055" x1="-3.3299895276452673" y1="3.6633822695222165" x2="-3.4235560043524345" y2="3.5770402817909" stroke-linecap="round"/><line stroke="#966441" stroke-width="0.09666055" x1="-3.368158238633086" y1="-3.645906500189625" x2="-3.292426478902456" y2="-3.5642289871934167" stroke-linecap="round"/><line stroke="#966441" stroke-width="0.09666055" x1="-3.292426478902456" y1="-3.5642289871934167" x2="-1.0429794553764662" y2="-0.007215905413875845" stroke-linecap="round"/><line stroke="#966441" stroke-width="0.09666055" x1="-3.9756633275012305" y1="-2.5461384299691048" x2="-3.9550508959919526" y2="-2.623645561620563" stroke-linecap="round"/><line stroke="#966441" stroke-width="0.09666055" x1="-2.710505431213761e-17" y1="-0.0027122277032576077" x2="-0.9699668978212728" y2="0.003957633075181377" stroke-linecap="round"/><line stroke="#966441" stroke-width="0.09666055" x1="-3.3045103761233463" y1="3.6367600340094555" x2="-0.9699668978212728" y2="0.003957633075181377" stroke-linecap="round"/><line stroke="#966441" stroke-width="0.09666055" x1="2.7755575615628914e-17" y1="-4.449569236511855" x2="-0.17915624725360146" y2="-4.4479777725826395" stroke-linecap="round"/><line stroke="#966441" stroke-width="0.09666055" x1="-3.9961676373745547" y1="-2.4689322904594064" x2="-4.0312370096563725" y2="-2.3179339425951326" stroke-linecap="round"/><line stroke="#966441" stroke-width="0.09666055" x1="-4.0312370096563725" y1="-2.3179339425951326" x2="-4.072184609075364" y2="-2.112575980710176" stroke-linecap="round"/><line stroke="#966441" stroke-width="0.09666055" x1="-4.072184609075364" y1="-2.112575980710176" x2="-4.15374688714169" y2="-1.572291349234284" stroke-linecap="round"/><line stroke="#966441" stroke-width="0.09666055" x1="-4.15374688714169" y1="-1.572291349234284" x2="-4.2340428661742315" y2="-0.6899757238065476" stroke-linecap="round"/><line stroke="#966441" stroke-width="0.09666055" x1="-4.2340428661742315" y1="-0.6899757238065476" x2="-4.251215390620732" y2="-0.2593907031787026" stroke-linecap="round"/><line stroke="#966441" stroke-width="0.09666055" x1="-4.251215390620732" y1="-0.2593907031787026" x2="-4.253820164358224" y2="0.048557706457799554" stroke-linecap="round"/><line stroke="#966441" stroke-width="0.09666055" x1="-0.17915624725360146" y1="-4.4479777725826395" x2="-0.4293503002777328" y2="-4.445818515017287" stroke-linecap="round"/><line stroke="#966441" stroke-width="0.09666055" x1="-0.4293503002777328" y1="-4.445818515017287" x2="-0.9473356155364883" y2="-4.417611320448501" stroke-linecap="round"/><line stroke="#966441" stroke-width="0.09666055" x1="-0.9473356155364883" y1="-4.417611320448501" x2="-1.3120937662096424" y2="-4.386237139193227" stroke-linecap="round"/><line stroke="#966441" stroke-width="0.09666055" x1="-1.5048304625777718" y1="-4.363544052852873" x2="-2.083585422635821" y2="-4.271203080866883" stroke-linecap="round"/><line stroke="#966441" stroke-width="0.09666055" x1="-2.083585422635821" y1="-4.271203080866883" x2="-2.190960438880026" y2="-4.2481607451735215" stroke-linecap="round"/><line stroke="#966441" stroke-width="0.09666055" x1="-2.190960438880026" y1="-4.2481607451735215" x2="-2.2177224521639687" y2="-4.241532597754556" stroke-linecap="round"/><line stroke="#966441" stroke-width="0.09666055" x1="-3.3299895276452673" y1="3.6633822695222165" x2="-3.3008411003047513" y2="3.690297702236194" stroke-linecap="round"/><line stroke="#966441" stroke-width="0.09666055" x1="-3.3008411003047513" y1="3.690297702236194" x2="-3.1944967661017927" y2="3.7785096583072857" stroke-linecap="round"/><line stroke="#966441" stroke-width="0.09666055" x1="-3.1944967661017927" y1="3.7785096583072857" x2="-3.018017494572689" y2="3.909011638857791" stroke-linecap="round"/><line stroke="#966441" stroke-width="0.09666055" x1="-3.018017494572689" y1="3.909011638857791" x2="-2.912551675287858" y2="3.981991316844571" stroke-linecap="round"/><line stroke="#966441" stroke-width="0.09666055" x1="-2.912551675287858" y1="3.981991316844571" x2="-2.7674375730241962" y2="4.06788071501321" stroke-linecap="round"/><line stroke="#966441" stroke-width="0.09666055" x1="-2.7674375730241962" y1="4.06788071501321" x2="-2.581684926945158" y2="4.152951396916329" stroke-linecap="round"/><line stroke="#966441" stroke-width="0.09666055" x1="-2.581684926945158" y1="4.152951396916329" x2="-2.4913888832778497" y2="4.189583269783192" stroke-linecap="round"/><line stroke="#966441" stroke-width="0.09666055" x1="-2.4913888832778497" y1="4.189583269783192" x2="-2.3299159426435097" y2="4.24505348500135" stroke-linecap="round"/><line stroke="#966441" stroke-width="0.09666055" x1="-2.3299159426435097" y1="4.24505348500135" x2="-2.242184127576934" y2="4.271341446492372" stroke-linecap="round"/><line stroke="#966441" stroke-width="0.09666055" x1="-2.242184127576934" y1="4.271341446492372" x2="-2.2133792786651583" y2="4.278033295147431" stroke-linecap="round"/><line stroke="#966441" stroke-width="0.09666055" x1="-4.253820164358224" y1="0.048557706457799554" x2="-4.254228237317456" y2="0.0974043862560876" stroke-linecap="round"/><line stroke="#966441" stroke-width="0.09666055" x1="-4.254228237317456" y1="0.0974043862560876" x2="-4.24273118792776" y2="0.5964879796318456" stroke-linecap="round"/><line stroke="#966441" stroke-width="0.09666055" x1="-4.225825037216865" y1="0.9068138924544371" x2="-4.1549784153887686" y2="1.6220550214577685" stroke-linecap="round"/><line stroke="#966441" stroke-width="0.09666055" x1="-4.1549784153887686" y1="1.6220550214577685" x2="-4.051649449958475" y2="2.2180807679550583" stroke-linecap="round"/><line stroke="#966441" stroke-width="0.09666055" x1="-4.051649449958475" y1="2.2180807679550583" x2="-4.003575890031058" y2="2.442083873858053" stroke-linecap="round"/><line stroke="#966441" stroke-width="0.09666055" x1="-4.003575890031058" y1="2.442083873858053" x2="-3.988426843036166" y2="2.5032449643418886" stroke-linecap="round"/><line stroke="#966441" stroke-width="0.09666055" x1="-2.2133792786651583" y1="4.278033295147431" x2="-2.1141577952800077" y2="4.301095601603912" stroke-linecap="round"/><line stroke="#966441" stroke-width="0.09666055" x1="-2.1141577952800077" y1="4.301095601603912" x2="-1.672012857443228" y2="4.380917985771074" stroke-linecap="round"/><line stroke="#966441" stroke-width="0.09666055" x1="-1.672012857443228" y1="4.380917985771074" x2="-1.1956263225401749" y2="4.437199538366789" stroke-linecap="round"/><line stroke="#966441" stroke-width="0.09666055" x1="-1.1956263225401749" y1="4.437199538366789" x2="-0.4763793680594688" y2="4.476208465704062" stroke-linecap="round"/><line stroke="#966441" stroke-width="0.09666055" x1="-2.2177224521639687" y1="-4.241532597754556" x2="-2.280385490282967" y2="-4.22599612446794" stroke-linecap="round"/><line stroke="#966441" stroke-width="0.09666055" x1="-2.280385490282967" y1="-4.22599612446794" x2="-2.3352265329930475" y2="-4.210555967027574" stroke-linecap="round"/><line stroke="#966441" stroke-width="0.09666055" x1="-2.3352265329930475" y1="-4.210555967027574" x2="-2.4897924842517796" y2="-4.161751061695767" stroke-linecap="round"/><line stroke="#966441" stroke-width="0.09666055" x1="-2.4897924842517796" y1="-4.161751061695767" x2="-2.676631873208379" y2="-4.093439217981256" stroke-linecap="round"/><line stroke="#966441" stroke-width="0.09666055" x1="-2.676631873208379" y1="-4.093439217981256" x2="-2.8633816374054106" y2="-4.0093788540027475" stroke-linecap="round"/><line stroke="#966441" stroke-width="0.09666055" x1="-2.8633816374054106" y1="-4.0093788540027475" x2="-3.050397182449558" y2="-3.904840957865673" stroke-linecap="round"/><line stroke="#966441" stroke-width="0.09666055" x1="-3.050397182449558" y1="-3.904840957865673" x2="-3.1258126248707327" y2="-3.8578677456359856" stroke-linecap="round"/><line stroke="#966441" stroke-width="0.09666055" x1="-3.1258126248707327" y1="-3.8578677456359856" x2="-3.1450441711107686" y2="-3.8435626973267745" stroke-linecap="round"/><line stroke="#966441" stroke-width="0.09666055" x1="-3.1450441711107686" y1="-3.8435626973267745" x2="-3.2028214486466027" y2="-3.796586218765185" stroke-linecap="round"/><line stroke="#966441" stroke-width="0.09666055" x1="-3.2028214486466027" y1="-3.796586218765185" x2="-3.316009396611875" y2="-3.6971704039788733" stroke-linecap="round"/><line stroke="#966441" stroke-width="0.09666055" x1="-3.316009396611875" y1="-3.6971704039788733" x2="-3.368158238633086" y2="-3.645906500189625" stroke-linecap="round"/><line stroke="#966441" stroke-width="0.09666055" x1="-3.988426843036166" y1="2.5032449643418886" x2="-3.932122063203309" y2="2.730327577873524" stroke-linecap="round"/><line stroke="#966441" stroke-width="0.09666055" x1="-3.932122063203309" y1="2.730327577873524" x2="-3.9113957319924992" y2="2.8039431668697006" stroke-linecap="round"/><line stroke="#966441" stroke-width="0.09666055" x1="-3.9113957319924992" y1="2.8039431668697006" x2="-3.8840536384832802" y2="2.8724321958927277" stroke-linecap="round"/><line stroke="#966441" stroke-width="0.09666055" x1="-3.8840536384832802" y1="2.8724321958927277" x2="-3.8404440594020457" y2="2.959824195859511" stroke-linecap="round"/><line stroke="#966441" stroke-width="0.09666055" x1="-3.8404440594020457" y1="2.959824195859511" x2="-3.7540207794965" y2="3.1202031176773914" stroke-linecap="round"/><line stroke="#966441" stroke-width="0.09666055" x1="-3.7540207794965" y1="3.1202031176773914" x2="-3.654855186344463" y2="3.288476546538007" stroke-linecap="round"/><line stroke="#966441" stroke-width="0.09666055" x1="-3.654855186344463" y1="3.288476546538007" x2="-3.5716141889420214" y2="3.408012000521637" stroke-linecap="round"/><line stroke="#966441" stroke-width="0.09666055" x1="-3.5716141889420214" y1="3.408012000521637" x2="-3.5446274233270003" y2="3.4434155436580625" stroke-linecap="round"/><line stroke="#966441" stroke-width="0.09666055" x1="-3.5446274233270003" y1="3.4434155436580625" x2="-3.5019085571317987" y2="3.4932604701685364" stroke-linecap="round"/><line stroke="#966441" stroke-width="0.09666055" x1="-3.5019085571317987" y1="3.4932604701685364" x2="-3.4235560043524345" y2="3.5770402817909" stroke-linecap="round"/><line stroke="#966441" stroke-width="0.09666055" x1="-3.368158238633086" y1="-3.645906500189625" x2="-3.404386145628436" y2="-3.6102737839998156" stroke-linecap="round"/><line stroke="#966441" stroke-width="0.09666055" x1="-3.404386145628436" y1="-3.6102737839998156" x2="-3.4485960213151543" y2="-3.5609607482711283" stroke-linecap="round"/><line stroke="#966441" stroke-width="0.09666055" x1="-3.4485960213151543" y1="-3.5609607482711283" x2="-3.5695154014336907" y2="-3.417249945587855" stroke-linecap="round"/><line stroke="#966441" stroke-width="0.09666055" x1="-3.5695154014336907" y1="-3.417249945587855" x2="-3.627957617413159" y2="-3.3431934152608562" stroke-linecap="round"/><line stroke="#966441" stroke-width="0.09666055" x1="-3.627957617413159" y1="-3.3431934152608562" x2="-3.646985005358019" y2="-3.3174604280363837" stroke-linecap="round"/><line stroke="#966441" stroke-width="0.09666055" x1="-3.646985005358019" y1="-3.3174604280363837" x2="-3.8477478328093753" y2="-2.9704609227377716" stroke-linecap="round"/><line stroke="#966441" stroke-width="0.09666055" x1="-3.8477478328093753" y1="-2.9704609227377716" x2="-3.8525421366802135" y2="-2.959635399648505" stroke-linecap="round"/><line stroke="#966441" stroke-width="0.09666055" x1="-3.8525421366802135" y1="-2.959635399648505" x2="-3.86303987535328" y2="-2.930499013072591" stroke-linecap="round"/><line stroke="#966441" stroke-width="0.09666055" x1="-3.86303987535328" y1="-2.930499013072591" x2="-3.9550508959919526" y2="-2.623645561620563" stroke-linecap="round"/></g><g><line stroke="black" stroke-width="0.09666055" x1="2.2896080857848062" y1="-4.266948330596776" x2="2.309998440750597" y2="-4.2610075006324415" stroke-linecap="round"/><line stroke="black" stroke-width="0.09666055" x1="2.309998440750597" y1="-4.2610075006324415" x2="0.0" y2="-2.1626898742150296" stroke-linecap="round"/><line stroke="black" stroke-width="0.09666055" x1="0.08610805935707333" y1="2.2542200665735095" x2="2.181833352466029" y2="4.302290438313463" stroke-linecap="round"/><line stroke="black" stroke-width="0.09666055" x1="4.059793878426149" y1="2.303837367442924" x2="3.981715089205366" y2="2.5387594801612465" stroke-linecap="round"/><line stroke="black" stroke-width="0.09666055" x1="3.981715089205366" y1="2.5387594801612465" x2="2.1185269767284574" y2="0.07230432528371722" stroke-linecap="round"/><line stroke="black" stroke-width="0.09666055" x1="4.138735822985808" y1="1.9065291722338316" x2="4.1255776802005535" y2="2.000177238003012" stroke-linecap="round"/><line stroke="black" stroke-width="0.09666055" x1="4.234724491074987" y1="0.7855116064785399" x2="4.138735822985808" y2="1.9065291722338316" stroke-linecap="round"/><line stroke="black" stroke-width="0.09666055" x1="2.1185269767284574" y1="0.07230432528371722" x2="4.2479115878470495" y2="0.05134172597330178" stroke-linecap="round"/><line stroke="black" stroke-width="0.09666055" x1="4.013418767391869" y1="-2.4054958406017874" x2="2.088983897199398" y2="0.045855338401310064" stroke-linecap="round"/><line stroke="black" stroke-width="0.09666055" x1="2.088983897199398" y1="0.045855338401310064" x2="1.1018452566455537" y2="-0.007888341537473309" stroke-linecap="round"/><line stroke="black" stroke-width="0.09666055" x1="1.1018452566455537" y1="-0.007888341537473309" x2="3.4236673980198873" y2="-3.581554697228327" stroke-linecap="round"/><line stroke="black" stroke-width="0.09666055" x1="3.3374179691642354" y1="3.6713318981378507" x2="3.2789196692045692" y2="3.610098777627911" stroke-linecap="round"/><line stroke="black" stroke-width="0.09666055" x1="3.2789196692045692" y1="3.610098777627911" x2="1.0618234086139715" y2="-0.002038031832164222" stroke-linecap="round"/><line stroke="black" stroke-width="0.09666055" x1="3.981715089205366" y1="2.5387594801612465" x2="3.902937707826311" y2="2.777316661356963" stroke-linecap="round"/><line stroke="black" stroke-width="0.09666055" x1="3.3374179691642354" y1="3.6713318981378507" x2="3.306927614983138" y2="3.7043532805906807" stroke-linecap="round"/><line stroke="black" stroke-width="0.09666055" x1="2.1185269767284574" y1="0.07230432528371722" x2="2.088983897199398" y2="0.045855338401310064" stroke-linecap="round"/><line stroke="black" stroke-width="0.09666055" x1="4.16052416064764" y1="-1.5789108456047245" x2="4.215826776199748" y2="-1.031389341904557" stroke-linecap="round"/><line stroke="black" stroke-width="0.09666055" x1="1.0618234086139715" y1="-0.002038031832164222" x2="0.0026067556172693074" y2="-0.001366311570485279" stroke-linecap="round"/><line stroke="black" stroke-width="0.09666055" x1="1.1018452566455537" y1="-0.007888341537473309" x2="1.0618234086139715" y2="-0.002038031832164222" stroke-linecap="round"/><line stroke="black" stroke-width="0.09666055" x1="0.019009556863803567" y1="-1.0539090110410623" x2="3.3085313405541115" y2="-3.7103298691787643" stroke-linecap="round"/><line stroke="black" stroke-width="0.09666055" x1="2.309998440750597" y1="-4.2610075006324415" x2="2.377579244191807" y2="-4.241297493915049" stroke-linecap="round"/><line stroke="black" stroke-width="0.09666055" x1="3.2789196692045692" y1="3.610098777627911" x2="0.023252911242472862" y2="1.0125323420246328" stroke-linecap="round"/><line stroke="black" stroke-width="0.09666055" x1="2.2896080857848062" y1="-4.266948330596776" x2="2.2113819943592645" y2="-4.2851220102497045" stroke-linecap="round"/><line stroke="black" stroke-width="0.09666055" x1="2.2113819943592645" y1="-4.2851220102497045" x2="2.091792610430943" y2="-4.308974766561683" stroke-linecap="round"/><line stroke="black" stroke-width="0.09666055" x1="2.091792610430943" y1="-4.308974766561683" x2="1.6242182166185763" y2="-4.379706079714326" stroke-linecap="round"/><line stroke="black" stroke-width="0.09666055" x1="1.6242182166185763" y1="-4.379706079714326" x2="1.244902964639354" y2="-4.418779056417977" stroke-linecap="round"/><line stroke="black" stroke-width="0.09666055" x1="1.244902964639354" y1="-4.418779056417977" x2="0.5761799281968294" y2="-4.454687503870769" stroke-linecap="round"/><line stroke="black" stroke-width="0.09666055" x1="0.5761799281968294" y1="-4.454687503870769" x2="2.7755575615628914e-17" y2="-4.449569236511855" stroke-linecap="round"/><line stroke="black" stroke-width="0.09666055" x1="0.0" y1="4.479280314498025" x2="1.1849262126471132" y2="4.434487724746205" stroke-linecap="round"/><line stroke="black" stroke-width="0.09666055" x1="1.1849262126471132" y1="4.434487724746205" x2="1.960734165177385" y2="4.343841583298541" stroke-linecap="round"/><line stroke="black" stroke-width="0.09666055" x1="1.960734165177385" y1="4.343841583298541" x2="2.17562354848188" y2="4.303829880809616" stroke-linecap="round"/><line stroke="black" stroke-width="0.09666055" x1="2.17562354848188" y1="4.303829880809616" x2="2.181833352466029" y2="4.302290438313463" stroke-linecap="round"/><line stroke="black" stroke-width="0.09666055" x1="4.059793878426149" y1="2.303837367442924" x2="4.1255776802005535" y2="2.000177238003012" stroke-linecap="round"/><line stroke="black" stroke-width="0.09666055" x1="4.234724491074987" y1="0.7855116064785399" x2="4.2479115878470495" y2="0.05134172597330178" stroke-linecap="round"/><line stroke="black" stroke-width="0.09666055" x1="4.013418767391869" y1="-2.4054958406017874" x2="3.972511815116107" y2="-2.553072967096739" stroke-linecap="round"/><line stroke="black" stroke-width="0.09666055" x1="3.972511815116107" y1="-2.553072967096739" x2="3.8839751912292684" y2="-2.7843214631586335" stroke-linecap="round"/><line stroke="black" stroke-width="0.09666055" x1="3.8839751912292684" y1="-2.7843214631586335" x2="3.8486637669781203" y2="-2.86785153301318" stroke-linecap="round"/><line stroke="black" stroke-width="0.09666055" x1="3.8486637669781203" y1="-2.86785153301318" x2="3.7207000685955336" y2="-3.1298307489820303" stroke-linecap="round"/><line stroke="black" stroke-width="0.09666055" x1="3.7207000685955336" y1="-3.1298307489820303" x2="3.6555940031409477" y2="-3.250657652942678" stroke-linecap="round"/><line stroke="black" stroke-width="0.09666055" x1="3.6555940031409477" y1="-3.250657652942678" x2="3.594984387002512" y2="-3.3479610719716106" stroke-linecap="round"/><line stroke="black" stroke-width="0.09666055" x1="3.594984387002512" y1="-3.3479610719716106" x2="3.505240709464573" y2="-3.4776911176902274" stroke-linecap="round"/><line stroke="black" stroke-width="0.09666055" x1="3.505240709464573" y1="-3.4776911176902274" x2="3.4474810509562985" y2="-3.5534583359458054" stroke-linecap="round"/><line stroke="black" stroke-width="0.09666055" x1="3.4474810509562985" y1="-3.5534583359458054" x2="3.4236673980198873" y2="-3.581554697228327" stroke-linecap="round"/><line stroke="black" stroke-width="0.09666055" x1="3.3374179691642354" y1="3.6713318981378507" x2="3.487461426273029" y2="3.508974095000781" stroke-linecap="round"/><line stroke="black" stroke-width="0.09666055" x1="3.487461426273029" y1="3.508974095000781" x2="3.5217624951011715" y2="3.466200102255584" stroke-linecap="round"/><line stroke="black" stroke-width="0.09666055" x1="3.5217624951011715" y1="3.466200102255584" x2="3.707760914266487" y2="3.1888492066321987" stroke-linecap="round"/><line stroke="black" stroke-width="0.09666055" x1="3.707760914266487" y1="3.1888492066321987" x2="3.7177532870282377" y2="3.1722725318735883" stroke-linecap="round"/><line stroke="black" stroke-width="0.09666055" x1="3.7177532870282377" y1="3.1722725318735883" x2="3.7614085592001913" y2="3.0883397167225155" stroke-linecap="round"/><line stroke="black" stroke-width="0.09666055" x1="3.7614085592001913" y1="3.0883397167225155" x2="3.848043477279475" y2="2.908152699339837" stroke-linecap="round"/><line stroke="black" stroke-width="0.09666055" x1="3.848043477279475" y1="2.908152699339837" x2="3.8876863482246975" y2="2.81859957390013" stroke-linecap="round"/><line stroke="black" stroke-width="0.09666055" x1="3.8876863482246975" y1="2.81859957390013" x2="3.902937707826311" y2="2.777316661356963" stroke-linecap="round"/><line stroke="black" stroke-width="0.09666055" x1="2.181833352466029" y1="4.302290438313463" x2="2.2954968223750427" y2="4.274138195189252" stroke-linecap="round"/><line stroke="black" stroke-width="0.09666055" x1="2.2954968223750427" y1="4.274138195189252" x2="2.437172612330812" y2="4.234283700763299" stroke-linecap="round"/><line stroke="black" stroke-width="0.09666055" x1="2.437172612330812" y1="4.234283700763299" x2="2.5311808869663395" y2="4.204310119269749" stroke-linecap="round"/><line stroke="black" stroke-width="0.09666055" x1="2.5311808869663395" y1="4.204310119269749" x2="2.5561267142293786" y2="4.192828340669749" stroke-linecap="round"/><line stroke="black" stroke-width="0.09666055" x1="2.5561267142293786" y1="4.192828340669749" x2="2.845391374646283" y2="4.041991217835985" stroke-linecap="round"/><line stroke="black" stroke-width="0.09666055" x1="2.845391374646283" y1="4.041991217835985" x2="2.8566636491046182" y2="4.035452093895273" stroke-linecap="round"/><line stroke="black" stroke-width="0.09666055" x1="2.8566636491046182" y1="4.035452093895273" x2="3.0396186098813303" y2="3.9165181174016084" stroke-linecap="round"/><line stroke="black" stroke-width="0.09666055" x1="3.0396186098813303" y1="3.9165181174016084" x2="3.1198362093097813" y2="3.8592546183466254" stroke-linecap="round"/><line stroke="black" stroke-width="0.09666055" x1="3.1198362093097813" y1="3.8592546183466254" x2="3.152056618793708" y2="3.8346889397281245" stroke-linecap="round"/><line stroke="black" stroke-width="0.09666055" x1="3.152056618793708" y1="3.8346889397281245" x2="3.283724339388499" y2="3.7257838918202424" stroke-linecap="round"/><line stroke="black" stroke-width="0.09666055" x1="3.283724339388499" y1="3.7257838918202424" x2="3.306927614983138" y2="3.7043532805906807" stroke-linecap="round"/><line stroke="black" stroke-width="0.09666055" x1="4.2479115878470495" y1="0.05134172597330178" x2="4.251750065833079" y2="-0.16114233255385102" stroke-linecap="round"/><line stroke="black" stroke-width="0.09666055" x1="4.251750065833079" y1="-0.16114233255385102" x2="4.243387146924036" y2="-0.5252783547988429" stroke-linecap="round"/><line stroke="black" stroke-width="0.09666055" x1="4.243387146924036" y1="-0.5252783547988429" x2="4.215826776199748" y2="-1.031389341904557" stroke-linecap="round"/><line stroke="black" stroke-width="0.09666055" x1="4.16052416064764" y1="-1.5789108456047245" x2="4.046187914749737" y2="-2.2872940420195533" stroke-linecap="round"/><line stroke="black" stroke-width="0.09666055" x1="4.046187914749737" y1="-2.2872940420195533" x2="4.013418767391869" y2="-2.4054958406017874" stroke-linecap="round"/><line stroke="black" stroke-width="0.09666055" x1="3.4236673980198873" y1="-3.581554697228327" x2="3.355005137739738" y2="-3.6625251045407197" stroke-linecap="round"/><line stroke="black" stroke-width="0.09666055" x1="3.355005137739738" y1="-3.6625251045407197" x2="3.3355468433993565" y2="-3.6835991495732543" stroke-linecap="round"/><line stroke="black" stroke-width="0.09666055" x1="3.3355468433993565" y1="-3.6835991495732543" x2="3.3085313405541115" y2="-3.7103298691787643" stroke-linecap="round"/><line stroke="black" stroke-width="0.09666055" x1="3.3085313405541115" y1="-3.7103298691787643" x2="3.2534018248060477" y2="-3.76484479218513" stroke-linecap="round"/><line stroke="black" stroke-width="0.09666055" x1="3.2534018248060477" y1="-3.76484479218513" x2="3.1190040746087817" y2="-3.866500912367435" stroke-linecap="round"/><line stroke="black" stroke-width="0.09666055" x1="3.1190040746087817" y1="-3.866500912367435" x2="2.989805034037545" y2="-3.955524778756967" stroke-linecap="round"/><line stroke="black" stroke-width="0.09666055" x1="2.989805034037545" y1="-3.955524778756967" x2="2.9371892384584157" y2="-3.9872428123555324" stroke-linecap="round"/><line stroke="black" stroke-width="0.09666055" x1="2.9371892384584157" y1="-3.9872428123555324" x2="2.8381374065400706" y2="-4.042788255902359" stroke-linecap="round"/><line stroke="black" stroke-width="0.09666055" x1="2.8381374065400706" y1="-4.042788255902359" x2="2.683697190405397" y2="-4.119339398722069" stroke-linecap="round"/><line stroke="black" stroke-width="0.09666055" x1="2.683697190405397" y1="-4.119339398722069" x2="2.4795662319993" y2="-4.20557298810936" stroke-linecap="round"/><line stroke="black" stroke-width="0.09666055" x1="2.4795662319993" y1="-4.20557298810936" x2="2.377579244191807" y2="-4.241297493915049" stroke-linecap="round"/></g><line stroke="#B46B37" stroke-width="0.09666055" x1="-0.048330273" y1="-4.9383764" x2="-0.048330273" y2="4.9634466" stroke-linecap="round"/></g><g transform="translate(-50.0) translate(300.0 400.0) scale(51.727413177490234) translate(0.0011637210845947266 -0.01253509521484375)"><g transform="scale(-1 1)"><line stroke="#966441" stroke-width="0.09666055" x1="3.2094693149582407" y1="-2.1733192080647705" x2="2.2850191979121046" y2="-2.5020749219324" stroke-linecap="round"/><line stroke="#966441" stroke-width="0.09666055" x1="2.2850191979121046" y1="-2.5020749219324" x2="2.241725381213942" y2="-2.4385522724967332" stroke-linecap="round"/><line stroke="#966441" stroke-width="0.09666055" x1="2.241725381213942" y1="-2.4385522724967332" x2="2.777536001372303" y2="0.0714114356551774" stroke-linecap="round"/><line stroke="#966441" stroke-width="0.09666055" x1="2.2850191979121046" y1="-2.5020749219324" x2="1.892538439022895" y2="-3.4021871326320676" stroke-linecap="round"/><line stroke="#966441" stroke-width="0.09666055" x1="1.9137383261426717" y1="3.474856689633905" x2="2.232760114336974" y2="2.57365129420557" stroke-linecap="round"/><line stroke="#966441" stroke-width="0.09666055" x1="2.232760114336974" y1="2.57365129420557" x2="2.1934446110021675" y2="2.5397726445428743" stroke-linecap="round"/><line stroke="#966441" stroke-width="0.09666055" x1="0.005355759009381362" y1="3.0476558197033925" x2="1.8638776705773608" y2="3.474444415923961" stroke-linecap="round"/><line stroke="#966441" stroke-width="0.09666055" x1="3.2712250578308186" y1="2.265682115491033" x2="4.229900630560432" y2="0.04584192103998872" stroke-linecap="round"/><line stroke="#966441" stroke-width="0.09666055" x1="3.2095072984380866" y1="-2.168478528325799" x2="2.7988629316175446" y2="0.07108197703119878" stroke-linecap="round"/><line stroke="#966441" stroke-width="0.09666055" x1="2.7988629316175446" y1="0.07108197703119878" x2="3.2039305649637573" y2="2.249054598029659" stroke-linecap="round"/><line stroke="#966441" stroke-width="0.09666055" x1="3.2094693149582407" y1="-2.1733192080647705" x2="3.212686793091921" y2="-2.1765209885565797" stroke-linecap="round"/><line stroke="#966441" stroke-width="0.09666055" x1="3.212686793091921" y1="-2.1765209885565797" x2="3.324891814133372" y2="-3.636649479439093" stroke-linecap="round"/><line stroke="#966441" stroke-width="0.09666055" x1="3.324891814133372" y1="-3.636649479439093" x2="1.9092069561695755" y2="-3.422320537398689" stroke-linecap="round"/><line stroke="#966441" stroke-width="0.09666055" x1="1.9137383261426717" y1="3.474856689633905" x2="1.9253173201475446" y2="3.486832394488693" stroke-linecap="round"/><line stroke="#966441" stroke-width="0.09666055" x1="1.9253173201475446" y1="3.486832394488693" x2="3.336802203858192" y2="3.6572460755394385" stroke-linecap="round"/><line stroke="#966441" stroke-width="0.09666055" x1="3.234851250201978" y1="2.2648960666093223" x2="3.2039305649637573" y2="2.249054598029659" stroke-linecap="round"/><line stroke="#966441" stroke-width="0.09666055" x1="0.0" y1="-3.0850184371865876" x2="1.8421160323869803" y2="-3.390591342892892" stroke-linecap="round"/><line stroke="#966441" stroke-width="0.09666055" x1="1.8421160323869803" y1="-3.390591342892892" x2="0.0" y2="-4.393457842353105" stroke-linecap="round"/><line stroke="#966441" stroke-width="0.09666055" x1="2.232760114336974" y1="2.57365129420557" x2="3.2039305649637573" y2="2.249054598029659" stroke-linecap="round"/><line stroke="#966441" stroke-width="0.09666055" x1="2.777536001372303" y1="0.0714114356551774" x2="2.1934446110021675" y2="2.5397726445428743" stroke-linecap="round"/><line stroke="#966441" stroke-width="0.09666055" x1="2.7988629316175446" y1="0.07108197703119878" x2="2.777536001372303" y2="0.0714114356551774" stroke-linecap="round"/><line stroke="#966441" stroke-width="0.09666055" x1="1.9092069561695755" y1="-3.422320537398689" x2="2.344210309407265" y2="-4.250806124961244" stroke-linecap="round"/><line stroke="#966441" stroke-width="0.09666055" x1="1.892538439022895" y1="-3.4021871326320676" x2="1.9092069561695755" y2="-3.422320537398689" stroke-linecap="round"/><line stroke="#966441" stroke-width="0.09666055" x1="3.2095072984380866" y1="-2.168478528325799" x2="4.229900630560432" y2="0.04584192103998872" stroke-linecap="round"/><line stroke="#966441" stroke-width="0.09666055" x1="4.229900630560432" y1="0.04584192103998872" x2="4.248149048340576" y2="0.048056183890238066" stroke-linecap="round"/><line stroke="#966441" stroke-width="0.09666055" x1="3.2094693149582407" y1="-2.1733192080647705" x2="3.2095072984380866" y2="-2.168478528325799" stroke-linecap="round"/><line stroke="#966441" stroke-width="0.09666055" x1="4.049662410626204" y1="-2.274862768977226" x2="3.9987080963304553" y2="-2.4586852346214734" stroke-linecap="round"/><line stroke="#966441" stroke-width="0.09666055" x1="4.248149048340576" y1="0.048056183890238066" x2="4.251900433228842" y2="-0.16110744244393033" stroke-linecap="round"/><line stroke="#966441" stroke-width="0.09666055" x1="3.2712250578308186" y1="2.265682115491033" x2="3.982372518363671" y2="2.542590332812118" stroke-linecap="round"/><line stroke="#966441" stroke-width="0.09666055" x1="1.9137383261426717" y1="3.474856689633905" x2="1.8638776705773608" y2="3.474444415923961" stroke-linecap="round"/><line stroke="#966441" stroke-width="0.09666055" x1="1.8638776705773608" y1="3.474444415923961" x2="0.0" y2="4.461809658475037" stroke-linecap="round"/><line stroke="#966441" stroke-width="0.09666055" x1="2.175833877421124" y1="4.303961455984404" x2="2.248650336664655" y2="4.285924137269185" stroke-linecap="round"/><line stroke="#966441" stroke-width="0.09666055" x1="0.0" y1="4.479447532685019" x2="1.1843264453892617" y2="4.434641058383101" stroke-linecap="round"/><line stroke="#966441" stroke-width="0.09666055" x1="3.2712250578308186" y1="2.265682115491033" x2="3.234851250201978" y2="2.2648960666093223" stroke-linecap="round"/><line stroke="#966441" stroke-width="0.09666055" x1="3.234851250201978" y1="2.2648960666093223" x2="3.336802203858192" y2="3.6572460755394385" stroke-linecap="round"/><line stroke="#966441" stroke-width="0.09666055" x1="3.336802203858192" y1="3.6572460755394385" x2="3.3438147778649845" y2="3.6648912253865786" stroke-linecap="round"/><line stroke="#966441" stroke-width="0.09666055" x1="1.9253173201475446" y1="3.486832394488693" x2="2.248650336664655" y2="4.285924137269185" stroke-linecap="round"/><line stroke="#966441" stroke-width="0.09666055" x1="2.248650336664655" y1="4.285924137269185" x2="2.295691286752097" y2="4.274259547585833" stroke-linecap="round"/><line stroke="#966441" stroke-width="0.09666055" x1="3.324891814133372" y1="-3.636649479439093" x2="3.344721735772478" y2="-3.673736205141666" stroke-linecap="round"/><line stroke="#966441" stroke-width="0.09666055" x1="3.212686793091921" y1="-2.1765209885565797" x2="3.9987080963304553" y2="-2.4586852346214734" stroke-linecap="round"/><line stroke="#966441" stroke-width="0.09666055" x1="3.9987080963304553" y1="-2.4586852346214734" x2="3.9721881234222516" y2="-2.554343595612982" stroke-linecap="round"/><line stroke="#966441" stroke-width="0.09666055" x1="0.009500604848084229" y1="3.024114292145764" x2="2.1934446110021675" y2="2.5397726445428743" stroke-linecap="round"/><line stroke="#966441" stroke-width="0.09666055" x1="2.241725381213942" y1="-2.4385522724967332" x2="-2.7755575615628914e-17" y2="-2.9170221290452254" stroke-linecap="round"/><line stroke="#966441" stroke-width="0.09666055" x1="1.892538439022895" y1="-3.4021871326320676" x2="1.8421160323869803" y2="-3.390591342892892" stroke-linecap="round"/><line stroke="#966441" stroke-width="0.09666055" x1="1.3877787807814457e-17" y1="-4.4502692121023175" x2="0.5664641266623087" y2="-4.455073343922559" stroke-linecap="round"/><line stroke="#966441" stroke-width="0.09666055" x1="0.5664641266623087" y1="-4.455073343922559" x2="1.2465241839142103" y2="-4.418559997689112" stroke-linecap="round"/><line stroke="#966441" stroke-width="0.09666055" x1="1.2465241839142103" y1="-4.418559997689112" x2="1.6243389166734612" y2="-4.3796300501748515" stroke-linecap="round"/><line stroke="#966441" stroke-width="0.09666055" x1="1.6243389166734612" y1="-4.3796300501748515" x2="2.0919710059477366" y2="-4.308862523294093" stroke-linecap="round"/><line stroke="#966441" stroke-width="0.09666055" x1="2.0919710059477366" y1="-4.308862523294093" x2="2.2115827034794484" y2="-4.284995611905031" stroke-linecap="round"/><line stroke="#966441" stroke-width="0.09666055" x1="2.2115827034794484" y1="-4.284995611905031" x2="2.287419268691209" y2="-4.267370269443786" stroke-linecap="round"/><line stroke="#966441" stroke-width="0.09666055" x1="2.287419268691209" y1="-4.267370269443786" x2="2.344210309407265" y2="-4.250806124961244" stroke-linecap="round"/><line stroke="#966441" stroke-width="0.09666055" x1="4.049662410626204" y1="-2.274862768977226" x2="4.158882536356707" y2="-1.5947241843164093" stroke-linecap="round"/><line stroke="#966441" stroke-width="0.09666055" x1="4.158882536356707" y1="-1.5947241843164093" x2="4.216101648368516" y2="-1.0282948466141064" stroke-linecap="round"/><line stroke="#966441" stroke-width="0.09666055" x1="4.216101648368516" y1="-1.0282948466141064" x2="4.243512156950738" y2="-0.5251995030517158" stroke-linecap="round"/><line stroke="#966441" stroke-width="0.09666055" x1="4.243512156950738" y1="-0.5251995030517158" x2="4.251900433228842" y2="-0.16110744244393033" stroke-linecap="round"/><line stroke="#966441" stroke-width="0.09666055" x1="4.248149048340576" y1="0.048056183890238066" x2="4.234865189233137" y2="0.7843810336865514" stroke-linecap="round"/><line stroke="#966441" stroke-width="0.09666055" x1="4.234865189233137" y1="0.7843810336865514" x2="4.138623298874467" y2="1.9084277937351866" stroke-linecap="round"/><line stroke="#966441" stroke-width="0.09666055" x1="4.138623298874467" y1="1.9084277937351866" x2="4.125786621776157" y2="1.9998503747244014" stroke-linecap="round"/><line stroke="#966441" stroke-width="0.09666055" x1="4.125786621776157" y1="1.9998503747244014" x2="4.057751759987352" y2="2.314169773230579" stroke-linecap="round"/><line stroke="#966441" stroke-width="0.09666055" x1="4.057751759987352" y1="2.314169773230579" x2="3.982372518363671" y2="2.542590332812118" stroke-linecap="round"/><line stroke="#966441" stroke-width="0.09666055" x1="2.175833877421124" y1="4.303961455984404" x2="1.9609073789507527" y2="4.343950077449605" stroke-linecap="round"/><line stroke="#966441" stroke-width="0.09666055" x1="1.9609073789507527" y1="4.343950077449605" x2="1.1843264453892617" y2="4.434641058383101" stroke-linecap="round"/><line stroke="#966441" stroke-width="0.09666055" x1="3.982372518363671" y1="2.542590332812118" x2="3.9147717834878564" y2="2.7460215682262854" stroke-linecap="round"/><line stroke="#966441" stroke-width="0.09666055" x1="3.9147717834878564" y1="2.7460215682262854" x2="3.8878883355918674" y2="2.8187261302505044" stroke-linecap="round"/><line stroke="#966441" stroke-width="0.09666055" x1="3.8878883355918674" y1="2.8187261302505044" x2="3.8482282814703668" y2="2.9082684950111695" stroke-linecap="round"/><line stroke="#966441" stroke-width="0.09666055" x1="3.8482282814703668" y1="2.9082684950111695" x2="3.76156276653959" y2="3.08843636479098" stroke-linecap="round"/><line stroke="#966441" stroke-width="0.09666055" x1="3.76156276653959" y1="3.08843636479098" x2="3.71789746069799" y2="3.17236280235798" stroke-linecap="round"/><line stroke="#966441" stroke-width="0.09666055" x1="3.71789746069799" y1="3.17236280235798" x2="3.7079042439376613" y2="3.188938973149954" stroke-linecap="round"/><line stroke="#966441" stroke-width="0.09666055" x1="3.7079042439376613" y1="3.188938973149954" x2="3.5219108472535727" y2="3.4662930796961455" stroke-linecap="round"/><line stroke="#966441" stroke-width="0.09666055" x1="3.5219108472535727" y1="3.4662930796961455" x2="3.486903898518413" y2="3.5099591262364904" stroke-linecap="round"/><line stroke="#966441" stroke-width="0.09666055" x1="3.486903898518413" y1="3.5099591262364904" x2="3.3438147778649845" y2="3.6648912253865786" stroke-linecap="round"/><line stroke="#966441" stroke-width="0.09666055" x1="3.3438147778649845" y1="3.6648912253865786" x2="3.307963276092608" y2="3.703674741800893" stroke-linecap="round"/><line stroke="#966441" stroke-width="0.09666055" x1="3.307963276092608" y1="3.703674741800893" x2="3.283895786551333" y2="3.7258912209617696" stroke-linecap="round"/><line stroke="#966441" stroke-width="0.09666055" x1="3.283895786551333" y1="3.7258912209617696" x2="3.152195395525267" y2="3.834775759501564" stroke-linecap="round"/><line stroke="#966441" stroke-width="0.09666055" x1="3.152195395525267" y1="3.834775759501564" x2="3.119968685594931" y2="3.8593375551020785" stroke-linecap="round"/><line stroke="#966441" stroke-width="0.09666055" x1="3.119968685594931" y1="3.8593375551020785" x2="3.0397406339540214" y2="3.9165944284175183" stroke-linecap="round"/><line stroke="#966441" stroke-width="0.09666055" x1="3.0397406339540214" y1="3.9165944284175183" x2="2.8567726284944084" y2="4.035520494347935" stroke-linecap="round"/><line stroke="#966441" stroke-width="0.09666055" x1="2.8567726284944084" y1="4.035520494347935" x2="2.8455004237123416" y2="4.0420593891889425" stroke-linecap="round"/><line stroke="#966441" stroke-width="0.09666055" x1="2.8455004237123416" y1="4.0420593891889425" x2="2.556252628382574" y2="4.19290676691967" stroke-linecap="round"/><line stroke="#966441" stroke-width="0.09666055" x1="2.556252628382574" y1="4.19290676691967" x2="2.5313094306290655" y2="4.20439057592621" stroke-linecap="round"/><line stroke="#966441" stroke-width="0.09666055" x1="2.5313094306290655" y1="4.20439057592621" x2="2.437325377151107" y2="4.23437887647275" stroke-linecap="round"/><line stroke="#966441" stroke-width="0.09666055" x1="2.437325377151107" y1="4.23437887647275" x2="2.295691286752097" y2="4.274259547585833" stroke-linecap="round"/><line stroke="#966441" stroke-width="0.09666055" x1="2.344210309407265" y1="-4.250806124961244" x2="2.3806482641928395" y2="-4.240190059868538" stroke-linecap="round"/><line stroke="#966441" stroke-width="0.09666055" x1="2.3806482641928395" y1="-4.240190059868538" x2="2.479414890539741" y2="-4.205597888653358" stroke-linecap="round"/><line stroke="#966441" stroke-width="0.09666055" x1="2.479414890539741" y1="-4.205597888653358" x2="2.6838454286340947" y2="-4.1192461500975375" stroke-linecap="round"/><line stroke="#966441" stroke-width="0.09666055" x1="2.6838454286340947" y1="-4.1192461500975375" x2="2.838265688207477" y2="-4.0427069646331155" stroke-linecap="round"/><line stroke="#966441" stroke-width="0.09666055" x1="2.838265688207477" y1="-4.0427069646331155" x2="2.937310793921946" y2="-3.9871665263571088" stroke-linecap="round"/><line stroke="#966441" stroke-width="0.09666055" x1="2.937310793921946" y1="-3.9871665263571088" x2="2.989925121937864" y2="-3.955449432092694" stroke-linecap="round"/><line stroke="#966441" stroke-width="0.09666055" x1="2.989925121937864" y1="-3.955449432092694" x2="3.119130429644304" y2="-3.866421204134868" stroke-linecap="round"/><line stroke="#966441" stroke-width="0.09666055" x1="3.119130429644304" y1="-3.866421204134868" x2="3.2516356376562703" y2="-3.7661983994907873" stroke-linecap="round"/><line stroke="#966441" stroke-width="0.09666055" x1="3.2516356376562703" y1="-3.7661983994907873" x2="3.341179649079788" y2="-3.6775713752137396" stroke-linecap="round"/><line stroke="#966441" stroke-width="0.09666055" x1="3.341179649079788" y1="-3.6775713752137396" x2="3.344721735772478" y2="-3.673736205141666" stroke-linecap="round"/><line stroke="#966441" stroke-width="0.09666055" x1="3.344721735772478" y1="-3.673736205141666" x2="3.3491282713557657" y2="-3.6689634912975495" stroke-linecap="round"/><line stroke="#966441" stroke-width="0.09666055" x1="3.3491282713557657" y1="-3.6689634912975495" x2="3.4515986673658716" y2="-3.548155938493659" stroke-linecap="round"/><line stroke="#966441" stroke-width="0.09666055" x1="3.4515986673658716" y1="-3.548155938493659" x2="3.5053747652915606" y2="-3.4776061448548035" stroke-linecap="round"/><line stroke="#966441" stroke-width="0.09666055" x1="3.5053747652915606" y1="-3.4776061448548035" x2="3.595105185286655" y2="-3.347885061300208" stroke-linecap="round"/><line stroke="#966441" stroke-width="0.09666055" x1="3.595105185286655" y1="-3.347885061300208" x2="3.6557117343008505" y2="-3.2505830678806924" stroke-linecap="round"/><line stroke="#966441" stroke-width="0.09666055" x1="3.6557117343008505" y1="-3.2505830678806924" x2="3.720824324984549" y2="-3.129752228380542" stroke-linecap="round"/><line stroke="#966441" stroke-width="0.09666055" x1="3.720824324984549" y1="-3.129752228380542" x2="3.8488156920895458" y2="-2.86775578494797" stroke-linecap="round"/><line stroke="#966441" stroke-width="0.09666055" x1="3.8488156920895458" y1="-2.86775578494797" x2="3.884141113783017" y2="-2.7842167993391236" stroke-linecap="round"/><line stroke="#966441" stroke-width="0.09666055" x1="3.884141113783017" y1="-2.7842167993391236" x2="3.9721881234222516" y2="-2.554343595612982" stroke-linecap="round"/></g><g><line stroke="black" stroke-width="0.09666055" x1="-2.2842298460362778" y1="-2.5183563850023436" x2="-3.181826604230886" y2="-2.2600090252421454" stroke-linecap="round"/><line stroke="black" stroke-width="0.09666055" x1="-3.181826604230886" y1="-2.2600090252421454" x2="-2.780001308552965" y2="0.07242470536894294" stroke-linecap="round"/><line stroke="black" stroke-width="0.09666055" x1="-2.7668542338203905" y1="0.07180935288628103" x2="-2.2724007844921603" y2="-2.507358811925184" stroke-linecap="round"/><line stroke="black" stroke-width="0.09666055" x1="-2.780001308552965" y1="0.07242470536894294" x2="-2.7668542338203905" y2="0.07180935288628103" stroke-linecap="round"/><line stroke="black" stroke-width="0.09666055" x1="-2.780001308552965" y1="0.07242470536894294" x2="-3.172613807405608" y2="2.248091460703341" stroke-linecap="round"/><line stroke="black" stroke-width="0.09666055" x1="-3.172613807405608" y1="2.248091460703341" x2="-2.266616743474336" y2="2.541104382703731" stroke-linecap="round"/><line stroke="black" stroke-width="0.09666055" x1="-2.266616743474336" y1="2.541104382703731" x2="-2.241094741804056" y2="2.516698702740573" stroke-linecap="round"/><line stroke="black" stroke-width="0.09666055" x1="-0.2144491921876085" y1="-3.049445291070366" x2="-0.2639104058463481" y2="-2.973350694125118" stroke-linecap="round"/><line stroke="black" stroke-width="0.09666055" x1="-2.266616743474336" y1="2.541104382703731" x2="-1.8961799070806988" y2="3.3969226471116682" stroke-linecap="round"/><line stroke="black" stroke-width="0.09666055" x1="-1.8961799070806988" y1="3.3969226471116682" x2="-4.0766001685454967e-17" y2="3.048639545115925" stroke-linecap="round"/><line stroke="black" stroke-width="0.09666055" x1="-2.2724007844921603" y1="-2.507358811925184" x2="-0.2639104058463481" y2="-2.973350694125118" stroke-linecap="round"/><line stroke="black" stroke-width="0.09666055" x1="-2.2842298460362778" y1="-2.5183563850023436" x2="-2.2724007844921603" y2="-2.507358811925184" stroke-linecap="round"/><line stroke="black" stroke-width="0.09666055" x1="-0.2144491921876085" y1="-3.049445291070366" x2="-1.9104939296988972" y2="-3.3923615580002595" stroke-linecap="round"/><line stroke="black" stroke-width="0.09666055" x1="-1.8961799070806988" y1="3.3969226471116682" x2="-1.9239196552319437" y2="3.4550377639052563" stroke-linecap="round"/><line stroke="black" stroke-width="0.09666055" x1="-1.9239196552319437" y1="3.4550377639052563" x2="-0.00843917302317844" y2="4.466280201928878" stroke-linecap="round"/><line stroke="black" stroke-width="0.09666055" x1="-2.2842298460362778" y1="-2.5183563850023436" x2="-1.9104939296988972" y2="-3.3923615580002595" stroke-linecap="round"/><line stroke="black" stroke-width="0.09666055" x1="-1.9104939296988972" y1="-3.3923615580002595" x2="-3.3567226519378077" y2="-3.6314382451601386" stroke-linecap="round"/><line stroke="black" stroke-width="0.09666055" x1="-0.2144491921876085" y1="-3.049445291070366" x2="0.0" y2="-3.0850184371865876" stroke-linecap="round"/><line stroke="black" stroke-width="0.09666055" x1="-3.181826604230886" y1="-2.2600090252421454" x2="-3.188896581936963" y2="-2.2635508075841027" stroke-linecap="round"/><line stroke="black" stroke-width="0.09666055" x1="-3.188896581936963" y1="-2.2635508075841027" x2="-4.25405843566076" y2="0.09772965255787507" stroke-linecap="round"/><line stroke="black" stroke-width="0.09666055" x1="-3.172613807405608" y1="2.248091460703341" x2="-3.1831039049823304" y2="2.2531799714338585" stroke-linecap="round"/><line stroke="black" stroke-width="0.09666055" x1="-3.1831039049823304" y1="2.2531799714338585" x2="-3.35450064094556" y2="3.6410558229949843" stroke-linecap="round"/><line stroke="black" stroke-width="0.09666055" x1="-3.198504259092292" y1="-2.2729529320001345" x2="-3.9724831182125024" y2="-2.5569214766062767" stroke-linecap="round"/><line stroke="black" stroke-width="0.09666055" x1="-3.188896581936963" y1="-2.2635508075841027" x2="-3.198504259092292" y2="-2.2729529320001345" stroke-linecap="round"/><line stroke="black" stroke-width="0.09666055" x1="-2.1979627356858065" y1="-4.246205553951178" x2="-2.259659769040502" y2="-4.230911728479025" stroke-linecap="round"/><line stroke="black" stroke-width="0.09666055" x1="-0.086210182331681" y1="-4.449538071222119" x2="-0.4132112775244206" y2="-4.446603031968445" stroke-linecap="round"/><line stroke="black" stroke-width="0.09666055" x1="-1.9108493086410832" y1="-3.441396453713319" x2="-0.08808014653387033" y2="-4.441409560200056" stroke-linecap="round"/><line stroke="black" stroke-width="0.09666055" x1="-1.9299752696111847" y1="3.462009735918132" x2="-2.220553863221188" y2="4.2764471689230215" stroke-linecap="round"/><line stroke="black" stroke-width="0.09666055" x1="-1.9239196552319437" y1="3.4550377639052563" x2="-1.9299752696111847" y2="3.462009735918132" stroke-linecap="round"/><line stroke="black" stroke-width="0.09666055" x1="-4.003309290618912" y1="2.4422502336361553" x2="-3.979408721756628" y2="2.538667006145858" stroke-linecap="round"/><line stroke="black" stroke-width="0.09666055" x1="-3.2416758165250945" y1="2.255148686917436" x2="-4.251892265641228" y2="0.19185481222776363" stroke-linecap="round"/><line stroke="black" stroke-width="0.09666055" x1="-4.251892265641228" y1="0.19185481222776363" x2="-4.242598293769129" y2="0.5965709083916585" stroke-linecap="round"/><line stroke="black" stroke-width="0.09666055" x1="-3.2416758165250945" y1="2.255148686917436" x2="-3.979408721756628" y2="2.538667006145858" stroke-linecap="round"/><line stroke="black" stroke-width="0.09666055" x1="-3.979408721756628" y1="2.538667006145858" x2="-3.931920133104209" y2="2.730453870121832" stroke-linecap="round"/><line stroke="black" stroke-width="0.09666055" x1="-3.1831039049823304" y1="2.2531799714338585" x2="-3.2416758165250945" y2="2.255148686917436" stroke-linecap="round"/><line stroke="black" stroke-width="0.09666055" x1="-1.9299752696111847" y1="3.462009735918132" x2="-3.341374259648395" y2="3.653172681381069" stroke-linecap="round"/><line stroke="black" stroke-width="0.09666055" x1="-3.341374259648395" y1="3.653172681381069" x2="-3.304206460863647" y2="3.687470735261748" stroke-linecap="round"/><line stroke="black" stroke-width="0.09666055" x1="-1.9108493086410832" y1="-3.441396453713319" x2="-2.259659769040502" y2="-4.230911728479025" stroke-linecap="round"/><line stroke="black" stroke-width="0.09666055" x1="-2.259659769040502" y1="-4.230911728479025" x2="-2.280137763099576" y2="-4.225840607079332" stroke-linecap="round"/><line stroke="black" stroke-width="0.09666055" x1="-1.9104939296988972" y1="-3.3923615580002595" x2="-1.9108493086410832" y2="-3.441396453713319" stroke-linecap="round"/><line stroke="black" stroke-width="0.09666055" x1="-3.3680275861123303" y1="-3.6457428593031773" x2="-3.404218123141276" y2="-3.610168390703377" stroke-linecap="round"/><line stroke="black" stroke-width="0.09666055" x1="-3.198504259092292" y1="-2.2729529320001345" x2="-3.3567226519378077" y2="-3.6314382451601386" stroke-linecap="round"/><line stroke="black" stroke-width="0.09666055" x1="-3.3567226519378077" y1="-3.6314382451601386" x2="-3.3680275861123303" y2="-3.6457428593031773" stroke-linecap="round"/><line stroke="black" stroke-width="0.09666055" x1="-2.7668542338203905" y1="0.07180935288628103" x2="-2.241094741804056" y2="2.516698702740573" stroke-linecap="round"/><line stroke="black" stroke-width="0.09666055" x1="-2.241094741804056" y1="2.516698702740573" x2="1.3183898417423734e-16" y2="3.0219723011317563" stroke-linecap="round"/><line stroke="black" stroke-width="0.09666055" x1="-2.7755575615628914e-17" y1="-2.9170221290452254" x2="-0.2639104058463481" y2="-2.973350694125118" stroke-linecap="round"/><line stroke="black" stroke-width="0.09666055" x1="-4.251892265641228" y1="0.19185481222776363" x2="-4.25405843566076" y2="0.09772965255787507" stroke-linecap="round"/><line stroke="black" stroke-width="0.09666055" x1="-3.341374259648395" y1="3.653172681381069" x2="-3.35450064094556" y2="3.6410558229949843" stroke-linecap="round"/><line stroke="black" stroke-width="0.09666055" x1="-4.25405843566076" y1="0.09772965255787507" x2="-4.251075891964769" y2="-0.2594111084974953" stroke-linecap="round"/><line stroke="black" stroke-width="0.09666055" x1="-4.251075891964769" y1="-0.2594111084974953" x2="-4.233930472413112" y2="-0.6899056420420125" stroke-linecap="round"/><line stroke="black" stroke-width="0.09666055" x1="-4.233930472413112" y1="-0.6899056420420125" x2="-4.1536198755997376" y2="-1.572211840794063" stroke-linecap="round"/><line stroke="black" stroke-width="0.09666055" x1="-4.1536198755997376" y1="-1.572211840794063" x2="-4.072003094643652" y2="-2.112462374411747" stroke-linecap="round"/><line stroke="black" stroke-width="0.09666055" x1="-4.072003094643652" y1="-2.112462374411747" x2="-4.0310211588950615" y2="-2.317798697872223" stroke-linecap="round"/><line stroke="black" stroke-width="0.09666055" x1="-4.0310211588950615" y1="-2.317798697872223" x2="-3.9959199506972163" y2="-2.468777033910702" stroke-linecap="round"/><line stroke="black" stroke-width="0.09666055" x1="-3.9959199506972163" y1="-2.468777033910702" x2="-3.9724831182125024" y2="-2.5569214766062767" stroke-linecap="round"/><line stroke="black" stroke-width="0.09666055" x1="-2.1979627356858065" y1="-4.246205553951178" x2="-1.4122942951123836" y2="-4.3743283125968135" stroke-linecap="round"/><line stroke="black" stroke-width="0.09666055" x1="-1.4122942951123836" y1="-4.3743283125968135" x2="-1.3119524905860815" y2="-4.386147821276658" stroke-linecap="round"/><line stroke="black" stroke-width="0.09666055" x1="-1.3119524905860815" y1="-4.386147821276658" x2="-0.9472045440244603" y2="-4.417528778507387" stroke-linecap="round"/><line stroke="black" stroke-width="0.09666055" x1="-0.9472045440244603" y1="-4.417528778507387" x2="-0.4132112775244206" y2="-4.446603031968445" stroke-linecap="round"/><line stroke="black" stroke-width="0.09666055" x1="-0.0184224653037771" y1="4.480143536305826" x2="-0.47627244478886127" y2="4.476275345660531" stroke-linecap="round"/><line stroke="black" stroke-width="0.09666055" x1="-0.47627244478886127" y1="4.476275345660531" x2="-1.1955350519006263" y2="4.437256730329834" stroke-linecap="round"/><line stroke="black" stroke-width="0.09666055" x1="-1.1955350519006263" y1="4.437256730329834" x2="-1.6718918250000094" y2="4.380993047469657" stroke-linecap="round"/><line stroke="black" stroke-width="0.09666055" x1="-1.6718918250000094" y1="4.380993047469657" x2="-2.1139731491016636" y2="4.30121062840509" stroke-linecap="round"/><line stroke="black" stroke-width="0.09666055" x1="-2.1139731491016636" y1="4.30121062840509" x2="-2.220553863221188" y2="4.2764471689230215" stroke-linecap="round"/><line stroke="black" stroke-width="0.09666055" x1="-4.003309290618912" y1="2.4422502336361553" x2="-4.055108665964171" y2="2.2010704432321417" stroke-linecap="round"/><line stroke="black" stroke-width="0.09666055" x1="-4.055108665964171" y1="2.2010704432321417" x2="-4.144218316604303" y2="1.6861598418233101" stroke-linecap="round"/><line stroke="black" stroke-width="0.09666055" x1="-4.144218316604303" y1="1.6861598418233101" x2="-4.229978433345753" y2="0.8283442704223758" stroke-linecap="round"/><line stroke="black" stroke-width="0.09666055" x1="-4.229978433345753" y1="0.8283442704223758" x2="-4.242598293769129" y2="0.5965709083916585" stroke-linecap="round"/><line stroke="black" stroke-width="0.09666055" x1="-3.35450064094556" y1="3.6410558229949843" x2="-3.4213851021391317" y2="3.5792942282567033" stroke-linecap="round"/><line stroke="black" stroke-width="0.09666055" x1="-3.4213851021391317" y1="3.5792942282567033" x2="-3.5017802663823234" y2="3.4933407309168896" stroke-linecap="round"/><line stroke="black" stroke-width="0.09666055" x1="-3.5017802663823234" y1="3.4933407309168896" x2="-3.5445078533264587" y2="3.4434892127215635" stroke-linecap="round"/><line stroke="black" stroke-width="0.09666055" x1="-3.5445078533264587" y1="3.4434892127215635" x2="-3.5714977679737046" y2="3.408083733297787" stroke-linecap="round"/><line stroke="black" stroke-width="0.09666055" x1="-3.5714977679737046" y1="3.408083733297787" x2="-3.654742730283481" y2="3.2885466036807047" stroke-linecap="round"/><line stroke="black" stroke-width="0.09666055" x1="-3.654742730283481" y1="3.2885466036807047" x2="-3.753895933011518" y2="3.120280885460126" stroke-linecap="round"/><line stroke="black" stroke-width="0.09666055" x1="-3.753895933011518" y1="3.120280885460126" x2="-3.840299971646696" y2="2.9599142158391056" stroke-linecap="round"/><line stroke="black" stroke-width="0.09666055" x1="-3.840299971646696" y1="2.9599142158391056" x2="-3.8838954077598706" y2="2.872530693575189" stroke-linecap="round"/><line stroke="black" stroke-width="0.09666055" x1="-3.8838954077598706" y1="2.872530693575189" x2="-3.911220504920675" y2="2.804052240290902" stroke-linecap="round"/><line stroke="black" stroke-width="0.09666055" x1="-3.911220504920675" y1="2.804052240290902" x2="-3.931920133104209" y2="2.730453870121832" stroke-linecap="round"/><line stroke="black" stroke-width="0.09666055" x1="-2.220553863221188" y1="4.2764471689230215" x2="-2.2419861969717325" y2="4.271464933521918" stroke-linecap="round"/><line stroke="black" stroke-width="0.09666055" x1="-2.2419861969717325" y1="4.271464933521918" x2="-2.329742190603318" y2="4.245161761586013" stroke-linecap="round"/><line stroke="black" stroke-width="0.09666055" x1="-2.329742190603318" y1="4.245161761586013" x2="-2.4912524579442157" y2="4.189667916369093" stroke-linecap="round"/><line stroke="black" stroke-width="0.09666055" x1="-2.4912524579442157" y1="4.189667916369093" x2="-2.5815639090849647" y2="4.153026449356207" stroke-linecap="round"/><line stroke="black" stroke-width="0.09666055" x1="-2.5815639090849647" y1="4.153026449356207" x2="-2.76733859873502" y2="4.067942195620114" stroke-linecap="round"/><line stroke="black" stroke-width="0.09666055" x1="-2.76733859873502" y1="4.067942195620114" x2="-2.9124506750398305" y2="3.9820544048105866" stroke-linecap="round"/><line stroke="black" stroke-width="0.09666055" x1="-2.9124506750398305" y1="3.9820544048105866" x2="-3.017904674169968" y2="3.90908225592432" stroke-linecap="round"/><line stroke="black" stroke-width="0.09666055" x1="-3.017904674169968" y1="3.90908225592432" x2="-3.1943553301055605" y2="3.7785978195819365" stroke-linecap="round"/><line stroke="black" stroke-width="0.09666055" x1="-3.1943553301055605" y1="3.7785978195819365" x2="-3.304206460863647" y2="3.687470735261748" stroke-linecap="round"/><line stroke="black" stroke-width="0.09666055" x1="-3.3680275861123303" y1="-3.6457428593031773" x2="-3.315847619334522" y2="-3.697069109879006" stroke-linecap="round"/><line stroke="black" stroke-width="0.09666055" x1="-3.315847619334522" y1="-3.697069109879006" x2="-3.2026912036359763" y2="-3.7965043154195848" stroke-linecap="round"/><line stroke="black" stroke-width="0.09666055" x1="-3.2026912036359763" y1="-3.7965043154195848" x2="-3.144925695283072" y2="-3.8434880473418715" stroke-linecap="round"/><line stroke="black" stroke-width="0.09666055" x1="-3.144925695283072" y1="-3.8434880473418715" x2="-3.1256970063105225" y2="-3.8577951941904285" stroke-linecap="round"/><line stroke="black" stroke-width="0.09666055" x1="-3.1256970063105225" y1="-3.8577951941904285" x2="-3.0502833307747443" y2="-3.904769177195882" stroke-linecap="round"/><line stroke="black" stroke-width="0.09666055" x1="-3.0502833307747443" y1="-3.904769177195882" x2="-2.863260817083188" y2="-4.009302976232169" stroke-linecap="round"/><line stroke="black" stroke-width="0.09666055" x1="-2.863260817083188" y1="-4.009302976232169" x2="-2.6764846924608814" y2="-4.093346713891127" stroke-linecap="round"/><line stroke="black" stroke-width="0.09666055" x1="-2.6764846924608814" y1="-4.093346713891127" x2="-2.489603343094204" y2="-4.161632529016041" stroke-linecap="round"/><line stroke="black" stroke-width="0.09666055" x1="-2.489603343094204" y1="-4.161632529016041" x2="-2.334995336391699" y2="-4.210410882684956" stroke-linecap="round"/><line stroke="black" stroke-width="0.09666055" x1="-2.334995336391699" y1="-4.210410882684956" x2="-2.280137763099576" y2="-4.225840607079332" stroke-linecap="round"/><line stroke="black" stroke-width="0.09666055" x1="-3.9724831182125024" y1="-2.5569214766062767" x2="-3.9548074050595834" y2="-2.6234929130801175" stroke-linecap="round"/><line stroke="black" stroke-width="0.09666055" x1="-3.9548074050595834" y1="-2.6234929130801175" x2="-3.862898251959943" y2="-2.9304100829425708" stroke-linecap="round"/><line stroke="black" stroke-width="0.09666055" x1="-3.862898251959943" y1="-2.9304100829425708" x2="-3.8524084743754097" y2="-2.9595514651509403" stroke-linecap="round"/><line stroke="black" stroke-width="0.09666055" x1="-3.8524084743754097" y1="-2.9595514651509403" x2="-3.8476162837613854" y2="-2.9703782424335543" stroke-linecap="round"/><line stroke="black" stroke-width="0.09666055" x1="-3.8476162837613854" y1="-2.9703782424335543" x2="-3.6468722533331905" y2="-3.317389807487331" stroke-linecap="round"/><line stroke="black" stroke-width="0.09666055" x1="-3.6468722533331905" y1="-3.317389807487331" x2="-3.627842400635574" y2="-3.3431210570558902" stroke-linecap="round"/><line stroke="black" stroke-width="0.09666055" x1="-3.627842400635574" y1="-3.3431210570558902" x2="-3.5693892732919092" y2="-3.4171708229206086" stroke-linecap="round"/><line stroke="black" stroke-width="0.09666055" x1="-3.5693892732919092" y1="-3.4171708229206086" x2="-3.4484409902614863" y2="-3.560863486298141" stroke-linecap="round"/><line stroke="black" stroke-width="0.09666055" x1="-3.4484409902614863" y1="-3.560863486298141" x2="-3.404218123141276" y2="-3.610168390703377" stroke-linecap="round"/></g><line stroke="#B46B37" stroke-width="0.09666055" x1="0.048330273" y1="-4.9383764" x2="0.048330273" y2="4.9634466" stroke-linecap="round"/></g></svg>