<svg xmlns="http://www.w3.org/2000/svg" width="600" height="800"><g transform="translate(50.0) translate(300.0 400.0) scale(121.85209655761719) translate(-0.0006823539733886719 -0.0038377046585083008)"><g transform="scale(-1 1)"><line stroke="#966441" stroke-width="0.041033354" x1="0.0" y1="-1.9166852161641037" x2="-0.8679192335780144" y2="-1.916576770991881" stroke-linecap="round"/><line stroke="#966441" stroke-width="0.041033354" x1="-0.8679192335780144" y1="-1.916576770991881" x2="-1.308264778933335" y2="-2.5327747169674097" stroke-linecap="round"/><line stroke="#966441" stroke-width="0.041033354" x1="-1.2962411648744165" y1="2.543894167701964" x2="-1.2990808784787937" y2="2.5412370685555032" stroke-linecap="round"/><line stroke="#966441" stroke-width="0.041033354" x1="-1.2990808784787937" y1="2.5412370685555032" x2="-0.8498165856485507" y2="1.9292717041326313" stroke-linecap="round"/><line stroke="#966441" stroke-width="0.041033354" x1="-1.1518686387726333" y1="2.544188650941493" x2="-1.2962411648744165" y2="2.543894167701964" stroke-linecap="round"/><line stroke="#966441" stroke-width="0.041033354" x1="-0.8498165856485507" y1="1.9292717041326313" x2="-5.551115123125783e-17" y2="1.930381900653714" stroke-linecap="round"/><line stroke="#966441" stroke-width="0.041033354" x1="-0.8679192335780144" y1="-1.916576770991881" x2="-0.8677198253762199" y2="-1.908807520559968" stroke-linecap="round"/><line stroke="#966441" stroke-width="0.041033354" x1="-1.3709206690762556" y1="-2.474653053722882" x2="-1.308264778933335" y2="-2.5327747169674097" stroke-linecap="round"/><line stroke="#966441" stroke-width="0.041033354" x1="-1.792910229226294" y1="-2.052129160305718" x2="-1.3709206690762556" y2="-2.474653053722882" stroke-linecap="round"/><line stroke="#966441" stroke-width="0.041033354" x1="-1.1962285915051396" y1="-1.5873390841499013" x2="-1.8024269642771884" y2="-2.0419462142145655" stroke-linecap="round"/><line stroke="#966441" stroke-width="0.041033354" x1="-0.8677198253762199" y1="-1.908807520559968" x2="-1.1913743305652602" y2="-1.5871687331215085" stroke-linecap="round"/><line stroke="#966441" stroke-width="0.041033354" x1="-1.804737919955386" y1="-2.0394740703690815" x2="-1.8024269642771884" y2="-2.0419462142145655" stroke-linecap="round"/><line stroke="#966441" stroke-width="0.041033354" x1="-1.1962285915051396" y1="-1.5873390841499013" x2="-1.2146351899948606" y2="1.5909095149746868" stroke-linecap="round"/><line stroke="#966441" stroke-width="0.041033354" x1="-1.2146351899948606" y1="1.5909095149746868" x2="-1.207297186888137" y2="1.5903827234008538" stroke-linecap="round"/><line stroke="#966441" stroke-width="0.041033354" x1="-1.7645479643614674" y1="2.0801039767343923" x2="-1.8037664612897961" y2="2.038130536625438" stroke-linecap="round"/><line stroke="#966441" stroke-width="0.041033354" x1="-1.8037664612897961" y1="2.038130536625438" x2="-1.2146351899948606" y2="1.5909095149746868" stroke-linecap="round"/><line stroke="#966441" stroke-width="0.041033354" x1="-1.334968829767238" y1="2.5076966793679105" x2="-1.7645479643614674" y2="2.0801039767343923" stroke-linecap="round"/><line stroke="#966441" stroke-width="0.041033354" x1="-1.207297186888137" y1="1.5903827234008538" x2="-0.8498584165919816" y2="1.9257547346415436" stroke-linecap="round"/><line stroke="#966441" stroke-width="0.041033354" x1="-0.4976469333193876" y1="-1.0880493202613408" x2="-0.4937239158836846" y2="-1.0828317017504077" stroke-linecap="round"/><line stroke="#966441" stroke-width="0.041033354" x1="-1.1913743305652602" y1="-1.5871687331215085" x2="-0.4976469333193876" y2="-1.0880493202613408" stroke-linecap="round"/><line stroke="#966441" stroke-width="0.041033354" x1="-1.1962285915051396" y1="-1.5873390841499013" x2="-1.1913743305652602" y2="-1.5871687331215085" stroke-linecap="round"/><line stroke="#966441" stroke-width="0.041033354" x1="0.0" y1="-1.2033307977375494" x2="-0.38043181288006167" y2="-1.210547692014881" stroke-linecap="round"/><line stroke="#966441" stroke-width="0.041033354" x1="-0.363450977496349" y1="1.2032555715924573" x2="-0.3538423706119538" y2="1.1958548103479245" stroke-linecap="round"/><line stroke="#966441" stroke-width="0.041033354" x1="-0.8498584165919816" y1="1.9257547346415436" x2="-0.363450977496349" y2="1.2032555715924573" stroke-linecap="round"/><line stroke="#966441" stroke-width="0.041033354" x1="-0.8498165856485507" y1="1.9292717041326313" x2="-0.8498584165919816" y2="1.9257547346415436" stroke-linecap="round"/><line stroke="#966441" stroke-width="0.041033354" x1="-1.207297186888137" y1="1.5903827234008538" x2="-0.4909264595724494" y2="1.0744019030413057" stroke-linecap="round"/><line stroke="#966441" stroke-width="0.041033354" x1="-0.4909264595724494" y1="1.0744019030413057" x2="-0.363450977496349" y2="1.2032555715924573" stroke-linecap="round"/><line stroke="#966441" stroke-width="0.041033354" x1="-0.38043181288006167" y1="-1.210547692014881" x2="-0.3792493439469595" y2="-1.2068904530400069" stroke-linecap="round"/><line stroke="#966441" stroke-width="0.041033354" x1="-0.8677198253762199" y1="-1.908807520559968" x2="-0.38043181288006167" y2="-1.210547692014881" stroke-linecap="round"/><line stroke="#966441" stroke-width="0.041033354" x1="-0.4898653627322176" y1="1.0730237053617557" x2="-0.4937239158836846" y2="-1.0828317017504077" stroke-linecap="round"/><line stroke="#966441" stroke-width="0.041033354" x1="-0.4937239158836846" y1="-1.0828317017504077" x2="-0.0021269364510487776" y2="-0.7276626548359708" stroke-linecap="round"/><line stroke="#966441" stroke-width="0.041033354" x1="-5.551115123125783e-17" y1="1.2004129020150396" x2="-0.3538423706119538" y2="1.1958548103479245" stroke-linecap="round"/><line stroke="#966441" stroke-width="0.041033354" x1="-0.3538423706119538" y1="1.1958548103479245" x2="-0.004451301943252162" y2="0.7224824669474437" stroke-linecap="round"/><line stroke="#966441" stroke-width="0.041033354" x1="-0.4898653627322176" y1="1.0730237053617557" x2="-0.004856951719869329" y2="0.7214351496102474" stroke-linecap="round"/><line stroke="#966441" stroke-width="0.041033354" x1="-0.4909264595724494" y1="1.0744019030413057" x2="-0.4898653627322176" y2="1.0730237053617557" stroke-linecap="round"/><line stroke="#966441" stroke-width="0.041033354" x1="-0.4976469333193876" y1="-1.0880493202613408" x2="-0.3792493439469595" y2="-1.2068904530400069" stroke-linecap="round"/><line stroke="#966441" stroke-width="0.041033354" x1="-0.3792493439469595" y1="-1.2068904530400069" x2="-0.0019049304561811198" y2="-0.7282750938177749" stroke-linecap="round"/><line stroke="#966441" stroke-width="0.041033354" x1="-1.3042743798090015" y1="-2.5364871284448327" x2="-1.308264778933335" y2="-2.5327747169674097" stroke-linecap="round"/><line stroke="#966441" stroke-width="0.041033354" x1="0.0" y1="-2.53503611995467" x2="-1.3042743798090015" y2="-2.5364871284448327" stroke-linecap="round"/><line stroke="#966441" stroke-width="0.041033354" x1="-1.1518686387726333" y1="2.544188650941493" x2="-1.1102230246251565e-16" y2="2.542442556122193" stroke-linecap="round"/><line stroke="#966441" stroke-width="0.041033354" x1="-1.792910229226294" y1="-2.052129160305718" x2="-1.8024269642771884" y2="-2.0419462142145655" stroke-linecap="round"/><line stroke="#966441" stroke-width="0.041033354" x1="-1.804737919955386" y1="-2.0394740703690815" x2="-1.8044943662379218" y2="2.0373546485093783" stroke-linecap="round"/><line stroke="#966441" stroke-width="0.041033354" x1="-1.8044943662379218" y1="2.0373546485093783" x2="-1.8037664612897961" y2="2.038130536625438" stroke-linecap="round"/><line stroke="#966441" stroke-width="0.041033354" x1="-1.334968829767238" y1="2.5076966793679105" x2="-1.2990808784787937" y2="2.5412370685555032" stroke-linecap="round"/></g><g><line stroke="black" stroke-width="0.041033354" x1="1.3035679264413815" y1="-2.532674930061617" x2="0.8574728691408211" y2="-1.9167923560791706" stroke-linecap="round"/><line stroke="black" stroke-width="0.041033354" x1="0.8574728691408211" y1="-1.9167923560791706" x2="0.0" y2="-1.9166852161641037" stroke-linecap="round"/><line stroke="black" stroke-width="0.041033354" x1="1.3026642155614496" y1="-2.5335869027762357" x2="1.3035679264413815" y2="-2.532674930061617" stroke-linecap="round"/><line stroke="black" stroke-width="0.041033354" x1="-5.551115123125783e-17" y1="1.930381900653714" x2="0.8533095602707093" y2="1.931496660380951" stroke-linecap="round"/><line stroke="black" stroke-width="0.041033354" x1="1.2993798388863667" y1="2.5388838971022523" x2="0.8549386856424732" y2="1.9323773071287995" stroke-linecap="round"/><line stroke="black" stroke-width="0.041033354" x1="1.210112531435243" y1="1.5953618360381547" x2="1.8028059541642136" y2="2.036105109133473" stroke-linecap="round"/><line stroke="black" stroke-width="0.041033354" x1="0.8549386856424732" y1="1.9323773071287995" x2="1.210112531435243" y2="1.5953618360381547" stroke-linecap="round"/><line stroke="black" stroke-width="0.041033354" x1="1.2096056574367609" y1="1.594405590845689" x2="1.19693603225293" y2="-1.5895473071704274" stroke-linecap="round"/><line stroke="black" stroke-width="0.041033354" x1="1.210112531435243" y1="1.5953618360381547" x2="1.2096056574367609" y2="1.594405590845689" stroke-linecap="round"/><line stroke="black" stroke-width="0.041033354" x1="1.8061498514919379" y1="2.032722608426159" x2="1.8028059541642136" y2="2.036105109133473" stroke-linecap="round"/><line stroke="black" stroke-width="0.041033354" x1="1.19693603225293" y1="-1.5895473071704274" x2="1.1884171155060104" y2="-1.589041386106544" stroke-linecap="round"/><line stroke="black" stroke-width="0.041033354" x1="1.3035679264413815" y1="-2.532674930061617" x2="1.7929627606609633" y2="-2.038929301104435" stroke-linecap="round"/><line stroke="black" stroke-width="0.041033354" x1="1.7929627606609633" y1="-2.038929301104435" x2="1.19693603225293" y2="-1.5895473071704274" stroke-linecap="round"/><line stroke="black" stroke-width="0.041033354" x1="0.8549386856424732" y1="1.9323773071287995" x2="0.8533095602707093" y2="1.931496660380951" stroke-linecap="round"/><line stroke="black" stroke-width="0.041033354" x1="0.46240017177255766" y1="1.0757155781610983" x2="0.484247645195957" y2="1.082044955059839" stroke-linecap="round"/><line stroke="black" stroke-width="0.041033354" x1="0.8533095602707093" y1="1.931496660380951" x2="0.35716964524904427" y2="1.2072757466563147" stroke-linecap="round"/><line stroke="black" stroke-width="0.041033354" x1="1.2096056574367609" y1="1.594405590845689" x2="0.484247645195957" y2="1.082044955059839" stroke-linecap="round"/><line stroke="black" stroke-width="0.041033354" x1="0.484247645195957" y1="1.082044955059839" x2="0.49603781984195905" y2="-1.0893754101796063" stroke-linecap="round"/><line stroke="black" stroke-width="0.041033354" x1="0.348251642795411" y1="-1.1967243699813253" x2="0.0" y2="-1.2033307977375494" stroke-linecap="round"/><line stroke="black" stroke-width="0.041033354" x1="0.3592937242216401" y1="-1.2053102609002835" x2="0.348251642795411" y2="-1.1967243699813253" stroke-linecap="round"/><line stroke="black" stroke-width="0.041033354" x1="0.8574572712985216" y1="-1.9143124239385685" x2="0.3592937242216401" y2="-1.2053102609002835" stroke-linecap="round"/><line stroke="black" stroke-width="0.041033354" x1="0.8574728691408211" y1="-1.9167923560791706" x2="0.8574572712985216" y2="-1.9143124239385685" stroke-linecap="round"/><line stroke="black" stroke-width="0.041033354" x1="0.49603781984195905" y1="-1.0893754101796063" x2="0.48615045936001167" y2="-1.086150353118562" stroke-linecap="round"/><line stroke="black" stroke-width="0.041033354" x1="0.8574572712985216" y1="-1.9143124239385685" x2="1.1884171155060104" y2="-1.589041386106544" stroke-linecap="round"/><line stroke="black" stroke-width="0.041033354" x1="1.1884171155060104" y1="-1.589041386106544" x2="0.49603781984195905" y2="-1.0893754101796063" stroke-linecap="round"/><line stroke="black" stroke-width="0.041033354" x1="0.46240017177255766" y1="1.0757155781610983" x2="0.014290174791831589" y2="0.7412311704318455" stroke-linecap="round"/><line stroke="black" stroke-width="0.041033354" x1="0.348251642795411" y1="-1.1967243699813253" x2="0.0" y2="-0.7304829672627898" stroke-linecap="round"/><line stroke="black" stroke-width="0.041033354" x1="0.35427469008806867" y1="1.2049765626924405" x2="-5.551115123125783e-17" y2="1.2004129020150396" stroke-linecap="round"/><line stroke="black" stroke-width="0.041033354" x1="0.35427469008806867" y1="1.2049765626924405" x2="0.014290174791831589" y2="0.7412311704318455" stroke-linecap="round"/><line stroke="black" stroke-width="0.041033354" x1="0.46240017177255766" y1="1.0757155781610983" x2="0.35716964524904427" y2="1.2072757466563147" stroke-linecap="round"/><line stroke="black" stroke-width="0.041033354" x1="0.35716964524904427" y1="1.2072757466563147" x2="0.35427469008806867" y2="1.2049765626924405" stroke-linecap="round"/><line stroke="black" stroke-width="0.041033354" x1="0.3592937242216401" y1="-1.2053102609002835" x2="0.48615045936001167" y2="-1.086150353118562" stroke-linecap="round"/><line stroke="black" stroke-width="0.041033354" x1="0.48615045936001167" y1="-1.086150353118562" x2="0.0" y2="-0.7299072590221226" stroke-linecap="round"/><line stroke="black" stroke-width="0.041033354" x1="1.3026642155614496" y1="-2.5335869027762357" x2="0.0" y2="-2.53503611995467" stroke-linecap="round"/><line stroke="black" stroke-width="0.041033354" x1="-1.1102230246251565e-16" y1="2.542442556122193" x2="1.2233558041179435" y2="2.540588095327074" stroke-linecap="round"/><line stroke="black" stroke-width="0.041033354" x1="1.2233558041179435" y1="2.540588095327074" x2="1.2982627057525917" y2="2.5399374099657095" stroke-linecap="round"/><line stroke="black" stroke-width="0.041033354" x1="1.2982627057525917" y1="2.5399374099657095" x2="1.2993798388863667" y2="2.5388838971022523" stroke-linecap="round"/><line stroke="black" stroke-width="0.041033354" x1="1.2993798388863667" y1="2.5388838971022523" x2="1.3634651582272" y2="2.4784137017991554" stroke-linecap="round"/><line stroke="black" stroke-width="0.041033354" x1="1.3634651582272" y1="2.4784137017991554" x2="1.8028059541642136" y2="2.036105109133473" stroke-linecap="round"/><line stroke="black" stroke-width="0.041033354" x1="1.7988324935963478" y1="-2.033010649394832" x2="1.7929627606609633" y2="-2.038929301104435" stroke-linecap="round"/><line stroke="black" stroke-width="0.041033354" x1="1.8061498514919379" y1="2.032722608426159" x2="1.7988324935963478" y2="-2.033010649394832" stroke-linecap="round"/></g><line stroke="#B46B37" stroke-width="0.041033354" x1="-0.020516677" y1="-2.7416801" x2="-0.020516677" y2="2.7493556" stroke-linecap="round"/></g><g transform="translate(-50.0) translate(300.0 400.0) scale(121.85209655761719) translate(-0.0006823539733886719 -0.0038377046585083008)"><g transform="scale(-1 1)"><line stroke="#966441" stroke-width="0.041033354" x1="1.3903610272375597" y1="1.7753452952501314" x2="1.3972801968188078" y2="1.7752258632533269" stroke-linecap="round"/><line stroke="#966441" stroke-width="0.041033354" x1="1.3972801968188078" y1="1.7752258632533269" x2="1.3764068306108215" y2="-1.7766583931055357" stroke-linecap="round"/><line stroke="#966441" stroke-width="0.041033354" x1="1.140083960511799" y1="-1.6429922114546636" x2="1.146314137874117" y2="1.6406473658486913" stroke-linecap="round"/><line stroke="#966441" stroke-width="0.041033354" x1="1.3764068306108215" y1="-1.7766583931055357" x2="1.3637410370134115" y2="-1.7774012518568199" stroke-linecap="round"/><line stroke="#966441" stroke-width="0.041033354" x1="0.0" y1="-1.9137831642320444" x2="0.8882803122062866" y2="-1.914371012373527" stroke-linecap="round"/><line stroke="#966441" stroke-width="0.041033354" x1="0.8882803122062866" y1="-1.914371012373527" x2="1.040410893795194" y2="-2.1224669369190114" stroke-linecap="round"/><line stroke="#966441" stroke-width="0.041033354" x1="1.040410893795194" y1="-2.1224669369190114" x2="-1.1102230246251565e-16" y2="-2.129855634618637" stroke-linecap="round"/><line stroke="#966441" stroke-width="0.041033354" x1="1.0330987133027156" y1="2.120030980225615" x2="0.8946985479699024" y2="1.8988172223651218" stroke-linecap="round"/><line stroke="#966441" stroke-width="0.041033354" x1="1.1102230246251565e-16" y1="2.1312206840736434" x2="1.033218699969506" y2="2.1251001731762806" stroke-linecap="round"/><line stroke="#966441" stroke-width="0.041033354" x1="1.140083960511799" y1="-1.6429922114546636" x2="1.3637410370134115" y2="-1.7774012518568199" stroke-linecap="round"/><line stroke="#966441" stroke-width="0.041033354" x1="1.3637410370134115" y1="-1.7774012518568199" x2="1.0423747854106242" y2="-2.123614395189121" stroke-linecap="round"/><line stroke="#966441" stroke-width="0.041033354" x1="1.5951235309456542" y1="1.9135525433314526" x2="1.6100683525117456" y2="1.9174426555228552" stroke-linecap="round"/><line stroke="#966441" stroke-width="0.041033354" x1="1.6100683525117456" y1="1.9174426555228552" x2="1.588134939411537" y2="-1.9152651142063677" stroke-linecap="round"/><line stroke="#966441" stroke-width="0.041033354" x1="1.3972801968188078" y1="1.7752258632533269" x2="1.5951235309456542" y2="1.9135525433314526" stroke-linecap="round"/><line stroke="#966441" stroke-width="0.041033354" x1="1.588134939411537" y1="-1.9152651142063677" x2="1.5712023111609499" y2="-1.9112396904590652" stroke-linecap="round"/><line stroke="#966441" stroke-width="0.041033354" x1="1.173648787740246" y1="-2.3187620758716894" x2="1.1761649722486125" y2="-2.3286650285264123" stroke-linecap="round"/><line stroke="#966441" stroke-width="0.041033354" x1="1.1761649722486125" y1="-2.3286650285264123" x2="0.0" y2="-2.3340272840916825" stroke-linecap="round"/><line stroke="#966441" stroke-width="0.041033354" x1="1.0423747854106242" y1="-2.123614395189121" x2="1.173648787740246" y2="-2.3187620758716894" stroke-linecap="round"/><line stroke="#966441" stroke-width="0.041033354" x1="1.040410893795194" y1="-2.1224669369190114" x2="1.0423747854106242" y2="-2.123614395189121" stroke-linecap="round"/><line stroke="#966441" stroke-width="0.041033354" x1="1.033218699969506" y1="2.1251001731762806" x2="1.1754563501809445" y2="2.34108271243823" stroke-linecap="round"/><line stroke="#966441" stroke-width="0.041033354" x1="1.0330987133027156" y1="2.120030980225615" x2="1.033218699969506" y2="2.1251001731762806" stroke-linecap="round"/><line stroke="#966441" stroke-width="0.041033354" x1="1.3903610272375597" y1="1.7753452952501314" x2="1.0330987133027156" y2="2.120030980225615" stroke-linecap="round"/><line stroke="#966441" stroke-width="0.041033354" x1="1.3764068306108215" y1="-1.7766583931055357" x2="1.5712023111609499" y2="-1.9112396904590652" stroke-linecap="round"/><line stroke="#966441" stroke-width="0.041033354" x1="1.5712023111609499" y1="-1.9112396904590652" x2="1.173648787740246" y2="-2.3187620758716894" stroke-linecap="round"/><line stroke="#966441" stroke-width="0.041033354" x1="1.1102230246251565e-16" y1="2.3526115819406463" x2="1.176425545033063" y2="2.3452760441697196" stroke-linecap="round"/><line stroke="#966441" stroke-width="0.041033354" x1="1.804556048650313" y1="2.0309314409155768" x2="1.7970219890392338" y2="-2.0348825671388466" stroke-linecap="round"/><line stroke="#966441" stroke-width="0.041033354" x1="1.7970219890392338" y1="-2.0348825671388466" x2="1.788131237014542" y2="-2.043854939756573" stroke-linecap="round"/><line stroke="#966441" stroke-width="0.041033354" x1="1.6100683525117456" y1="1.9174426555228552" x2="1.7966234096317688" y2="2.038534841315803" stroke-linecap="round"/><line stroke="#966441" stroke-width="0.041033354" x1="-2.220446049250313e-16" y1="2.5387294682149797" x2="1.299669459998346" y2="2.5366707710079544" stroke-linecap="round"/><line stroke="#966441" stroke-width="0.041033354" x1="1.176425545033063" y1="2.3452760441697196" x2="1.299669459998346" y2="2.5366707710079544" stroke-linecap="round"/><line stroke="#966441" stroke-width="0.041033354" x1="1.1754563501809445" y1="2.34108271243823" x2="1.176425545033063" y2="2.3452760441697196" stroke-linecap="round"/><line stroke="#966441" stroke-width="0.041033354" x1="1.5951235309456542" y1="1.9135525433314526" x2="1.1754563501809445" y2="2.34108271243823" stroke-linecap="round"/><line stroke="#966441" stroke-width="0.041033354" x1="1.588134939411537" y1="-1.9152651142063677" x2="1.788131237014542" y2="-2.043854939756573" stroke-linecap="round"/><line stroke="#966441" stroke-width="0.041033354" x1="1.788131237014542" y1="-2.043854939756573" x2="1.310022242141125" y2="-2.5262102186685325" stroke-linecap="round"/><line stroke="#966441" stroke-width="0.041033354" x1="1.310022242141125" y1="-2.5262102186685325" x2="1.3026851154264905" y2="-2.5336105082712876" stroke-linecap="round"/><line stroke="#966441" stroke-width="0.041033354" x1="1.1761649722486125" y1="-2.3286650285264123" x2="1.310022242141125" y2="-2.5262102186685325" stroke-linecap="round"/><line stroke="#966441" stroke-width="0.041033354" x1="1.140083960511799" y1="-1.6429922114546636" x2="0.8882803122062866" y2="-1.914371012373527" stroke-linecap="round"/><line stroke="#966441" stroke-width="0.041033354" x1="0.0" y1="1.9000928238087953" x2="0.8946985479699024" y2="1.8988172223651218" stroke-linecap="round"/><line stroke="#966441" stroke-width="0.041033354" x1="1.3903610272375597" y1="1.7753452952501314" x2="1.146314137874117" y2="1.6406473658486913" stroke-linecap="round"/><line stroke="#966441" stroke-width="0.041033354" x1="1.146314137874117" y1="1.6406473658486913" x2="0.8946985479699024" y2="1.8988172223651218" stroke-linecap="round"/><line stroke="#966441" stroke-width="0.041033354" x1="1.804556048650313" y1="2.0309314409155768" x2="1.7966234096317688" y2="2.038534841315803" stroke-linecap="round"/><line stroke="#966441" stroke-width="0.041033354" x1="1.7966234096317688" y1="2.038534841315803" x2="1.299669459998346" y2="2.5366707710079544" stroke-linecap="round"/><line stroke="#966441" stroke-width="0.041033354" x1="-1.1102230246251565e-16" y1="-2.5350610010141184" x2="1.3026851154264905" y2="-2.5336105082712876" stroke-linecap="round"/></g><g><line stroke="black" stroke-width="0.041033354" x1="-1.3713811664582203" y1="-1.7901602886062065" x2="-1.3767350964530762" y2="-1.7901138166811144" stroke-linecap="round"/><line stroke="black" stroke-width="0.041033354" x1="-1.3818442017675623" y1="1.7787907907512293" x2="-1.1575435227498452" y2="1.6114361068913186" stroke-linecap="round"/><line stroke="black" stroke-width="0.041033354" x1="-1.3767350964530762" y1="-1.7901138166811144" x2="-1.385159385316261" y2="1.7788440239323577" stroke-linecap="round"/><line stroke="black" stroke-width="0.041033354" x1="-0.8871629055551089" y1="-1.9131960555704468" x2="0.0" y2="-1.9137831642320444" stroke-linecap="round"/><line stroke="black" stroke-width="0.041033354" x1="-1.1102230246251565e-16" y1="-2.129855634618637" x2="-1.0487930939842305" y2="-2.137303860283246" stroke-linecap="round"/><line stroke="black" stroke-width="0.041033354" x1="-1.0459712680657647" y1="2.1220812685887975" x2="-1.0465523846174696" y2="2.1374201801482897" stroke-linecap="round"/><line stroke="black" stroke-width="0.041033354" x1="-1.0465523846174696" y1="2.1374201801482897" x2="1.1102230246251565e-16" y2="2.1312206840736434" stroke-linecap="round"/><line stroke="black" stroke-width="0.041033354" x1="-1.3818442017675623" y1="1.7787907907512293" x2="-1.0459712680657647" y2="2.1220812685887975" stroke-linecap="round"/><line stroke="black" stroke-width="0.041033354" x1="-1.0459712680657647" y1="2.1220812685887975" x2="-0.8888888670557826" y2="1.9013601421973796" stroke-linecap="round"/><line stroke="black" stroke-width="0.041033354" x1="-0.8871629055551089" y1="-1.9131960555704468" x2="-1.0484708969208434" y2="-2.120857898892684" stroke-linecap="round"/><line stroke="black" stroke-width="0.041033354" x1="-1.3713811664582203" y1="-1.7901602886062065" x2="-1.1615514821973305" y2="-1.628340761927992" stroke-linecap="round"/><line stroke="black" stroke-width="0.041033354" x1="-1.1615514821973305" y1="-1.628340761927992" x2="-0.8871629055551089" y2="-1.9131960555704468" stroke-linecap="round"/><line stroke="black" stroke-width="0.041033354" x1="-1.3767350964530762" y1="-1.7901138166811144" x2="-1.6026437915221343" y2="-1.9279689144948042" stroke-linecap="round"/><line stroke="black" stroke-width="0.041033354" x1="-1.6026437915221343" y1="-1.9279689144948042" x2="-1.6146495907943696" y2="1.9247220861304408" stroke-linecap="round"/><line stroke="black" stroke-width="0.041033354" x1="0.0" y1="-2.3340272840916825" x2="-1.169050285069243" y2="-2.339357103075501" stroke-linecap="round"/><line stroke="black" stroke-width="0.041033354" x1="-1.0487930939842305" y1="-2.137303860283246" x2="-1.169050285069243" y2="-2.339357103075501" stroke-linecap="round"/><line stroke="black" stroke-width="0.041033354" x1="-1.3713811664582203" y1="-1.7901602886062065" x2="-1.0484708969208434" y2="-2.120857898892684" stroke-linecap="round"/><line stroke="black" stroke-width="0.041033354" x1="-1.0484708969208434" y1="-2.120857898892684" x2="-1.0487930939842305" y2="-2.137303860283246" stroke-linecap="round"/><line stroke="black" stroke-width="0.041033354" x1="-1.169050285069243" y1="-2.339357103075501" x2="-1.1973880943494666" y2="-2.3641498774721477" stroke-linecap="round"/><line stroke="black" stroke-width="0.041033354" x1="-1.385159385316261" y1="1.7788440239323577" x2="-1.599402657687683" y2="1.9210799882735476" stroke-linecap="round"/><line stroke="black" stroke-width="0.041033354" x1="-1.599402657687683" y1="1.9210799882735476" x2="-1.1851139405324398" y2="2.3524667586946437" stroke-linecap="round"/><line stroke="black" stroke-width="0.041033354" x1="-1.3818442017675623" y1="1.7787907907512293" x2="-1.385159385316261" y2="1.7788440239323577" stroke-linecap="round"/><line stroke="black" stroke-width="0.041033354" x1="-1.1851139405324398" y1="2.3524667586946437" x2="-1.186999633805052" y2="2.3600130538694186" stroke-linecap="round"/><line stroke="black" stroke-width="0.041033354" x1="-1.0465523846174696" y1="2.1374201801482897" x2="-1.1851139405324398" y2="2.3524667586946437" stroke-linecap="round"/><line stroke="black" stroke-width="0.041033354" x1="-1.186999633805052" y1="2.3600130538694186" x2="1.1102230246251565e-16" y2="2.3526115819406463" stroke-linecap="round"/><line stroke="black" stroke-width="0.041033354" x1="-1.3024867967303666" y1="2.537944968558541" x2="-1.2996697346243926" y2="2.5407881658570175" stroke-linecap="round"/><line stroke="black" stroke-width="0.041033354" x1="-1.2996697346243926" y1="2.5407881658570175" x2="-2.220446049250313e-16" y2="2.5387294682149797" stroke-linecap="round"/><line stroke="black" stroke-width="0.041033354" x1="-1.186999633805052" y1="2.3600130538694186" x2="-1.3024867967303666" y2="2.537944968558541" stroke-linecap="round"/><line stroke="black" stroke-width="0.041033354" x1="-1.7956057619813013" y1="-2.047479357034859" x2="-1.8047853490052008" y2="-2.0384051729525363" stroke-linecap="round"/><line stroke="black" stroke-width="0.041033354" x1="-1.8047853490052008" y1="-2.0384051729525363" x2="-1.8045463688259575" y2="2.0375740626167738" stroke-linecap="round"/><line stroke="black" stroke-width="0.041033354" x1="-1.6063571374215786" y1="-1.9321052271012351" x2="-1.7956057619813013" y2="-2.047479357034859" stroke-linecap="round"/><line stroke="black" stroke-width="0.041033354" x1="-1.6026437915221343" y1="-1.9279689144948042" x2="-1.6063571374215786" y2="-1.9321052271012351" stroke-linecap="round"/><line stroke="black" stroke-width="0.041033354" x1="-1.8045463688259575" y1="2.0375740626167738" x2="-1.8002414241101414" y2="2.042187833084451" stroke-linecap="round"/><line stroke="black" stroke-width="0.041033354" x1="-1.6063571374215786" y1="-1.9321052271012351" x2="-1.1973880943494666" y2="-2.3641498774721477" stroke-linecap="round"/><line stroke="black" stroke-width="0.041033354" x1="-1.1973880943494666" y1="-2.3641498774721477" x2="-1.3077462487584182" y2="-2.5335085184093167" stroke-linecap="round"/><line stroke="black" stroke-width="0.041033354" x1="-1.6146495907943696" y1="1.9247220861304408" x2="-1.8002414241101414" y2="2.042187833084451" stroke-linecap="round"/><line stroke="black" stroke-width="0.041033354" x1="-1.599402657687683" y1="1.9210799882735476" x2="-1.6146495907943696" y2="1.9247220861304408" stroke-linecap="round"/><line stroke="black" stroke-width="0.041033354" x1="-0.8888888670557826" y1="1.9013601421973796" x2="0.0" y2="1.9000928238087953" stroke-linecap="round"/><line stroke="black" stroke-width="0.041033354" x1="-1.1575435227498452" y1="1.6114361068913186" x2="-0.8888888670557826" y2="1.9013601421973796" stroke-linecap="round"/><line stroke="black" stroke-width="0.041033354" x1="-1.1615514821973305" y1="-1.628340761927992" x2="-1.1575435227498452" y2="1.6114361068913186" stroke-linecap="round"/><line stroke="black" stroke-width="0.041033354" x1="-1.7956057619813013" y1="-2.047479357034859" x2="-1.3391808587562708" y2="-2.504341941571759" stroke-linecap="round"/><line stroke="black" stroke-width="0.041033354" x1="-1.3391808587562708" y1="-2.504341941571759" x2="-1.3077462487584182" y2="-2.5335085184093167" stroke-linecap="round"/><line stroke="black" stroke-width="0.041033354" x1="-1.3077462487584182" y1="-2.5335085184093167" x2="-1.3045028232151408" y2="-2.5365135177088045" stroke-linecap="round"/><line stroke="black" stroke-width="0.041033354" x1="-1.3045028232151408" y1="-2.5365135177088045" x2="-1.1102230246251565e-16" y2="-2.5350610010141184" stroke-linecap="round"/><line stroke="black" stroke-width="0.041033354" x1="-1.3024867967303666" y1="2.537944968558541" x2="-1.8002414241101414" y2="2.042187833084451" stroke-linecap="round"/></g><line stroke="#B46B37" stroke-width="0.041033354" x1="0.020516677" y1="-2.7416801" x2="0.020516677" y2="2.7493556" stroke-linecap="round"/></g></svg>