<svg xmlns="http://www.w3.org/2000/svg" width="600" height="800"><g transform="translate(50.0) translate(300.0 400.0) scale(48.10293197631836) translate(0.0013499259948730469 -2.8112926483154297)"><g transform="scale(-1 1)"><line stroke="#966441" stroke-width="0.103943765" x1="-8.543513119185775e-17" y1="-0.7833059303090592" x2="-3.212969045285183" y2="-3.160700447355275" stroke-linecap="round"/><line stroke="#966441" stroke-width="0.103943765" x1="-1.7769763665162213" y1="-4.152785137007365" x2="-1.7580469474019438" y2="-4.159497511646849" stroke-linecap="round"/><line stroke="#966441" stroke-width="0.103943765" x1="-3.212969045285183" y1="-3.160700447355275" x2="-3.0833010722099594" y2="-3.301177804838373" stroke-linecap="round"/><line stroke="#966441" stroke-width="0.103943765" x1="-0.7841692779360581" y1="-0.005056585485188947" x2="-0.6825338315193643" y2="0.01241171155866927" stroke-linecap="round"/><line stroke="#966441" stroke-width="0.103943765" x1="-0.6825338315193643" y1="0.01241171155866927" x2="-3.1913024172739917" y2="6.132527910031399" stroke-linecap="round"/><line stroke="#966441" stroke-width="0.103943765" x1="-4.197280608484624" y1="3.318567382904849" x2="-4.238623247812358" y2="3.095950453680107" stroke-linecap="round"/><line stroke="#966441" stroke-width="0.103943765" x1="-3.1913024172739917" y1="6.132527910031399" x2="-3.2880897539144236" y2="5.94023798009095" stroke-linecap="round"/><line stroke="#966441" stroke-width="0.103943765" x1="-0.002431696130879235" y1="-0.8026226328575115" x2="-1.7580469474019438" y2="-4.159497511646849" stroke-linecap="round"/><line stroke="#966441" stroke-width="0.103943765" x1="-1.7580469474019438" y1="-4.159497511646849" x2="-1.681353732717012" y2="-4.186679179966907" stroke-linecap="round"/><line stroke="#966441" stroke-width="0.103943765" x1="-4.257419282766415" y1="-1.6038876637965789" x2="-4.238093331667084" y2="-1.6520173152976767" stroke-linecap="round"/><line stroke="#966441" stroke-width="0.103943765" x1="-0.7967994406951915" y1="-0.0014527072857690726" x2="-4.568557183115095" y2="0.019393637457547186" stroke-linecap="round"/><line stroke="#966441" stroke-width="0.103943765" x1="-0.7841692779360581" y1="-0.005056585485188947" x2="-0.7967994406951915" y2="-0.0014527072857690726" stroke-linecap="round"/><line stroke="#966441" stroke-width="0.103943765" x1="-3.3655803682351007" y1="-2.9952666817933853" x2="-3.233677185148199" y2="-3.1382585093083932" stroke-linecap="round"/><line stroke="#966441" stroke-width="0.103943765" x1="-0.8259525436091759" y1="-0.033106851611700794" x2="-4.238093331667084" y2="-1.6520173152976767" stroke-linecap="round"/><line stroke="#966441" stroke-width="0.103943765" x1="-4.238093331667084" y1="-1.6520173152976767" x2="-4.225701611039467" y2="-1.6828648683589247" stroke-linecap="round"/><line stroke="#966441" stroke-width="0.103943765" x1="-0.6825338315193643" y1="0.01241171155866927" x2="-0.0027078079977300717" y2="-0.0005804448653797811" stroke-linecap="round"/><line stroke="#966441" stroke-width="0.103943765" x1="4.5102810375396984e-17" y1="1.406630574639169" x2="-1.4824431843478294" y2="8.702792027053512" stroke-linecap="round"/><line stroke="#966441" stroke-width="0.103943765" x1="-0.8259525436091759" y1="-0.033106851611700794" x2="-3.233677185148199" y2="-3.1382585093083932" stroke-linecap="round"/><line stroke="#966441" stroke-width="0.103943765" x1="-0.7841692779360581" y1="-0.005056585485188947" x2="-0.8259525436091759" y2="-0.033106851611700794" stroke-linecap="round"/><line stroke="#966441" stroke-width="0.103943765" x1="-0.7967994406951915" y1="-0.0014527072857690726" x2="-4.238623247812358" y2="3.095950453680107" stroke-linecap="round"/><line stroke="#966441" stroke-width="0.103943765" x1="-4.238623247812358" y1="3.095950453680107" x2="-4.326861618223168" y2="2.6207019079645377" stroke-linecap="round"/><line stroke="#966441" stroke-width="0.103943765" x1="-1.7769763665162213" y1="-4.152785137007365" x2="-1.8561052172996693" y2="-4.121895698665362" stroke-linecap="round"/><line stroke="#966441" stroke-width="0.103943765" x1="-1.8561052172996693" y1="-4.121895698665362" x2="-1.9345284356955812" y2="-4.083611308148981" stroke-linecap="round"/><line stroke="#966441" stroke-width="0.103943765" x1="-1.9345284356955812" y1="-4.083611308148981" x2="-2.162806955648783" y2="-3.9595549108356347" stroke-linecap="round"/><line stroke="#966441" stroke-width="0.103943765" x1="-2.162806955648783" y1="-3.9595549108356347" x2="-2.3011524006515085" y2="-3.8786449919174864" stroke-linecap="round"/><line stroke="#966441" stroke-width="0.103943765" x1="-2.3011524006515085" y1="-3.8786449919174864" x2="-2.4180730861418507" y2="-3.8052436536344043" stroke-linecap="round"/><line stroke="#966441" stroke-width="0.103943765" x1="-2.4180730861418507" y1="-3.8052436536344043" x2="-2.735909789155139" y2="-3.5820608644529877" stroke-linecap="round"/><line stroke="#966441" stroke-width="0.103943765" x1="-2.735909789155139" y1="-3.5820608644529877" x2="-2.859798953260041" y2="-3.486935555137112" stroke-linecap="round"/><line stroke="#966441" stroke-width="0.103943765" x1="-2.859798953260041" y1="-3.486935555137112" x2="-3.0329603044292313" y2="-3.3451176482339893" stroke-linecap="round"/><line stroke="#966441" stroke-width="0.103943765" x1="-3.0329603044292313" y1="-3.3451176482339893" x2="-3.0833010722099594" y2="-3.301177804838373" stroke-linecap="round"/><line stroke="#966441" stroke-width="0.103943765" x1="-4.197280608484624" y1="3.318567382904849" x2="-4.146711976085992" y2="3.550103181351721" stroke-linecap="round"/><line stroke="#966441" stroke-width="0.103943765" x1="-4.146711976085992" y1="3.550103181351721" x2="-4.0668909842547425" y2="3.8674191875767026" stroke-linecap="round"/><line stroke="#966441" stroke-width="0.103943765" x1="-4.0668909842547425" y1="3.8674191875767026" x2="-4.0133238617166125" y2="4.055225744549526" stroke-linecap="round"/><line stroke="#966441" stroke-width="0.103943765" x1="-4.0133238617166125" y1="4.055225744549526" x2="-3.9082514493436076" y2="4.384083006844856" stroke-linecap="round"/><line stroke="#966441" stroke-width="0.103943765" x1="-3.9082514493436076" y1="4.384083006844856" x2="-3.7589927913579384" y2="4.805137473526559" stroke-linecap="round"/><line stroke="#966441" stroke-width="0.103943765" x1="-3.7589927913579384" y1="4.805137473526559" x2="-3.557156191941713" y2="5.322327342277994" stroke-linecap="round"/><line stroke="#966441" stroke-width="0.103943765" x1="-3.557156191941713" y1="5.322327342277994" x2="-3.353130209063721" y2="5.800235849486569" stroke-linecap="round"/><line stroke="#966441" stroke-width="0.103943765" x1="-3.353130209063721" y1="5.800235849486569" x2="-3.2880897539144236" y2="5.94023798009095" stroke-linecap="round"/><line stroke="#966441" stroke-width="0.103943765" x1="0.0" y1="-4.486714918443555" x2="-0.14981882906566568" y2="-4.4827345703916155" stroke-linecap="round"/><line stroke="#966441" stroke-width="0.103943765" x1="-0.14981882906566568" y1="-4.4827345703916155" x2="-0.44357508824962544" y2="-4.462585613779689" stroke-linecap="round"/><line stroke="#966441" stroke-width="0.103943765" x1="-0.44357508824962544" y1="-4.462585613779689" x2="-0.6085006135650683" y2="-4.442567818944268" stroke-linecap="round"/><line stroke="#966441" stroke-width="0.103943765" x1="-0.6085006135650683" y1="-4.442567818944268" x2="-0.937294946272015" y2="-4.3869828579834484" stroke-linecap="round"/><line stroke="#966441" stroke-width="0.103943765" x1="-0.937294946272015" y1="-4.3869828579834484" x2="-1.086827457636602" y2="-4.35432909386521" stroke-linecap="round"/><line stroke="#966441" stroke-width="0.103943765" x1="-1.086827457636602" y1="-4.35432909386521" x2="-1.3317660455823557" y2="-4.2927240273550265" stroke-linecap="round"/><line stroke="#966441" stroke-width="0.103943765" x1="-1.3317660455823557" y1="-4.2927240273550265" x2="-1.4960946478313737" y2="-4.245861277620639" stroke-linecap="round"/><line stroke="#966441" stroke-width="0.103943765" x1="-1.4960946478313737" y1="-4.245861277620639" x2="-1.681353732717012" y2="-4.186679179966907" stroke-linecap="round"/><line stroke="#966441" stroke-width="0.103943765" x1="-4.257419282766415" y1="-1.6038876637965789" x2="-4.3449914901872795" y2="-1.341707805464603" stroke-linecap="round"/><line stroke="#966441" stroke-width="0.103943765" x1="-4.3449914901872795" y1="-1.341707805464603" x2="-4.467111870269141" y2="-0.8885934520061021" stroke-linecap="round"/><line stroke="#966441" stroke-width="0.103943765" x1="-4.467111870269141" y1="-0.8885934520061021" x2="-4.512265351238453" y2="-0.6429332600089435" stroke-linecap="round"/><line stroke="#966441" stroke-width="0.103943765" x1="-4.512265351238453" y1="-0.6429332600089435" x2="-4.5377900744105695" y2="-0.4485987234352269" stroke-linecap="round"/><line stroke="#966441" stroke-width="0.103943765" x1="-4.5377900744105695" y1="-0.4485987234352269" x2="-4.542632450758818" y2="-0.3999393618548748" stroke-linecap="round"/><line stroke="#966441" stroke-width="0.103943765" x1="-4.542632450758818" y1="-0.3999393618548748" x2="-4.565618564194228" y2="-0.06135291879066074" stroke-linecap="round"/><line stroke="#966441" stroke-width="0.103943765" x1="-4.565618564194228" y1="-0.06135291879066074" x2="-4.568557183115095" y2="0.019393637457547186" stroke-linecap="round"/><line stroke="#966441" stroke-width="0.103943765" x1="-3.3655803682351007" y1="-2.9952666817933853" x2="-3.464494490275257" y2="-2.876876697377188" stroke-linecap="round"/><line stroke="#966441" stroke-width="0.103943765" x1="-3.464494490275257" y1="-2.876876697377188" x2="-3.689826639205089" y2="-2.589287334255136" stroke-linecap="round"/><line stroke="#966441" stroke-width="0.103943765" x1="-3.689826639205089" y1="-2.589287334255136" x2="-3.895749228156152" y2="-2.30289615283602" stroke-linecap="round"/><line stroke="#966441" stroke-width="0.103943765" x1="-3.895749228156152" y1="-2.30289615283602" x2="-4.173944175622712" y2="-1.7914524543492298" stroke-linecap="round"/><line stroke="#966441" stroke-width="0.103943765" x1="-4.173944175622712" y1="-1.7914524543492298" x2="-4.225701611039467" y2="-1.6828648683589247" stroke-linecap="round"/><line stroke="#966441" stroke-width="0.103943765" x1="-3.1913024172739917" y1="6.132527910031399" x2="-3.0987328889190557" y2="6.316428645779011" stroke-linecap="round"/><line stroke="#966441" stroke-width="0.103943765" x1="-3.0987328889190557" y1="6.316428645779011" x2="-2.8977220231752803" y2="6.686353205500625" stroke-linecap="round"/><line stroke="#966441" stroke-width="0.103943765" x1="-2.8977220231752803" y1="6.686353205500625" x2="-2.712032483611317" y2="7.003883805760266" stroke-linecap="round"/><line stroke="#966441" stroke-width="0.103943765" x1="-2.712032483611317" y1="7.003883805760266" x2="-2.4981102093255334" y2="7.344657815146938" stroke-linecap="round"/><line stroke="#966441" stroke-width="0.103943765" x1="-2.4981102093255334" y1="7.344657815146938" x2="-2.091135676019972" y2="7.936938046368251" stroke-linecap="round"/><line stroke="#966441" stroke-width="0.103943765" x1="-2.091135676019972" y1="7.936938046368251" x2="-1.8126271463669639" y2="8.29965401722468" stroke-linecap="round"/><line stroke="#966441" stroke-width="0.103943765" x1="-1.8126271463669639" y1="8.29965401722468" x2="-1.4824431843478294" y2="8.702792027053512" stroke-linecap="round"/><line stroke="#966441" stroke-width="0.103943765" x1="-3.212969045285183" y1="-3.160700447355275" x2="-3.233677185148199" y2="-3.1382585093083932" stroke-linecap="round"/><line stroke="#966441" stroke-width="0.103943765" x1="-4.568557183115095" y1="0.019393637457547186" x2="-4.573190001470898" y2="0.14707923281440927" stroke-linecap="round"/><line stroke="#966441" stroke-width="0.103943765" x1="-4.573190001470898" y1="0.14707923281440927" x2="-4.57487593789184" y2="0.4935214648706854" stroke-linecap="round"/><line stroke="#966441" stroke-width="0.103943765" x1="-4.57487593789184" y1="0.4935214648706854" x2="-4.572086106613202" y2="0.5986089434189878" stroke-linecap="round"/><line stroke="#966441" stroke-width="0.103943765" x1="-4.572086106613202" y1="0.5986089434189878" x2="-4.566762839882951" y2="0.6903706297525076" stroke-linecap="round"/><line stroke="#966441" stroke-width="0.103943765" x1="-4.566762839882951" y1="0.6903706297525076" x2="-4.524507576363712" y2="1.162013079991162" stroke-linecap="round"/><line stroke="#966441" stroke-width="0.103943765" x1="-4.524507576363712" y1="1.162013079991162" x2="-4.326861618223168" y2="2.6207019079645377" stroke-linecap="round"/><line stroke="#966441" stroke-width="0.103943765" x1="-1.4824431843478294" y1="8.702792027053512" x2="-1.4276675011516815" y2="8.76966977717504" stroke-linecap="round"/><line stroke="#966441" stroke-width="0.103943765" x1="-1.4276675011516815" y1="8.76966977717504" x2="-1.0261218030995316" y2="9.214540869132968" stroke-linecap="round"/><line stroke="#966441" stroke-width="0.103943765" x1="-1.0261218030995316" y1="9.214540869132968" x2="-0.4567781138551936" y2="9.74431851565161" stroke-linecap="round"/><line stroke="#966441" stroke-width="0.103943765" x1="-0.4567781138551936" y1="9.74431851565161" x2="-0.06179400540798241" y2="10.069009446178272" stroke-linecap="round"/></g><g><line stroke="black" stroke-width="0.103943765" x1="0.7936011536005076" y1="-0.029325079562047218" x2="0.7647589813380717" y2="-0.021916175649911995" stroke-linecap="round"/><line stroke="black" stroke-width="0.103943765" x1="4.22932749350913" y1="-1.7041522524192576" x2="4.232130483869197" y2="-1.696735875566782" stroke-linecap="round"/><line stroke="black" stroke-width="0.103943765" x1="0.7647589813380717" y1="-0.021916175649911995" x2="3.2453871249262676" y2="-3.1345093101424375" stroke-linecap="round"/><line stroke="black" stroke-width="0.103943765" x1="1.7431452921201434" y1="-4.182141846757258" x2="1.7812577548378972" y2="-4.165427522576017" stroke-linecap="round"/><line stroke="black" stroke-width="0.103943765" x1="0.7936011536005076" y1="-0.029325079562047218" x2="4.569094515383846" y2="0.025667597918388907" stroke-linecap="round"/><line stroke="black" stroke-width="0.103943765" x1="4.267524554758163" y1="3.017666052757477" x2="0.7776352725738507" y2="-0.004545588156879887" stroke-linecap="round"/><line stroke="black" stroke-width="0.103943765" x1="4.0197185276282035" y1="4.069124431936098" x2="3.846718018659315" y2="4.625454246942759" stroke-linecap="round"/><line stroke="black" stroke-width="0.103943765" x1="4.239631714027737" y1="3.1773749282630845" x2="4.0197185276282035" y2="4.069124431936098" stroke-linecap="round"/><line stroke="black" stroke-width="0.103943765" x1="3.1142554595174285" y1="-3.2628803423505808" x2="3.2434946025760674" y2="-3.136364564620541" stroke-linecap="round"/><line stroke="black" stroke-width="0.103943765" x1="0.03874126888796381" y1="-0.8349114069342616" x2="1.7812577548378972" y2="-4.165427522576017" stroke-linecap="round"/><line stroke="black" stroke-width="0.103943765" x1="1.7812577548378972" y1="-4.165427522576017" x2="1.8614372965269155" y2="-4.130260814526592" stroke-linecap="round"/><line stroke="black" stroke-width="0.103943765" x1="0.7936011536005076" y1="-0.029325079562047218" x2="4.232130483869197" y2="-1.696735875566782" stroke-linecap="round"/><line stroke="black" stroke-width="0.103943765" x1="4.232130483869197" y1="-1.696735875566782" x2="4.287595060283522" y2="-1.5499913424511842" stroke-linecap="round"/><line stroke="black" stroke-width="0.103943765" x1="0.7633735279624192" y1="-0.02136440279026508" x2="0.7776352725738507" y2="-0.004545588156879887" stroke-linecap="round"/><line stroke="black" stroke-width="0.103943765" x1="0.7776352725738507" y1="-0.004545588156879887" x2="3.1621674896366265" y2="6.196388207578115" stroke-linecap="round"/><line stroke="black" stroke-width="0.103943765" x1="0.03874126888796381" y1="-0.8349114069342616" x2="3.2434946025760674" y2="-3.136364564620541" stroke-linecap="round"/><line stroke="black" stroke-width="0.103943765" x1="0.7633735279624192" y1="-0.02136440279026508" x2="0.0025665344197012274" y2="-0.0007019411284443777" stroke-linecap="round"/><line stroke="black" stroke-width="0.103943765" x1="0.7647589813380717" y1="-0.021916175649911995" x2="0.7633735279624192" y2="-0.02136440279026508" stroke-linecap="round"/><line stroke="black" stroke-width="0.103943765" x1="1.4762584429031094" y1="8.68489298176567" x2="1.4229883936366825" y2="8.744716996230414" stroke-linecap="round"/><line stroke="black" stroke-width="0.103943765" x1="3.1621674896366265" y1="6.196388207578115" x2="2.8530109506655013" y2="6.752298170967961" stroke-linecap="round"/><line stroke="black" stroke-width="0.103943765" x1="1.4229883936366825" y1="8.744716996230414" x2="1.3010355860064138" y2="8.881688625377828" stroke-linecap="round"/><line stroke="black" stroke-width="0.103943765" x1="0.030250124144641788" y1="1.140393969955401" x2="1.4229883936366825" y2="8.744716996230414" stroke-linecap="round"/><line stroke="black" stroke-width="0.103943765" x1="4.22932749350913" y1="-1.7041522524192576" x2="4.155869530116735" y2="-1.876228515284586" stroke-linecap="round"/><line stroke="black" stroke-width="0.103943765" x1="4.155869530116735" y1="-1.876228515284586" x2="4.084556903798708" y2="-2.0179078644351733" stroke-linecap="round"/><line stroke="black" stroke-width="0.103943765" x1="4.084556903798708" y1="-2.0179078644351733" x2="4.010615293921475" y2="-2.1539875304675267" stroke-linecap="round"/><line stroke="black" stroke-width="0.103943765" x1="4.010615293921475" y1="-2.1539875304675267" x2="3.9451386992385054" y2="-2.2659538697863564" stroke-linecap="round"/><line stroke="black" stroke-width="0.103943765" x1="3.9451386992385054" y1="-2.2659538697863564" x2="3.7897721191733584" y2="-2.502312986145524" stroke-linecap="round"/><line stroke="black" stroke-width="0.103943765" x1="3.7897721191733584" y1="-2.502312986145524" x2="3.6941201572156537" y2="-2.6353331887047577" stroke-linecap="round"/><line stroke="black" stroke-width="0.103943765" x1="3.6941201572156537" y1="-2.6353331887047577" x2="3.604154665328739" y2="-2.7491510939750246" stroke-linecap="round"/><line stroke="black" stroke-width="0.103943765" x1="3.604154665328739" y1="-2.7491510939750246" x2="3.5146384471324605" y2="-2.8516965198998054" stroke-linecap="round"/><line stroke="black" stroke-width="0.103943765" x1="3.5146384471324605" y1="-2.8516965198998054" x2="3.316831612601975" y2="-3.0644202995108945" stroke-linecap="round"/><line stroke="black" stroke-width="0.103943765" x1="3.316831612601975" y1="-3.0644202995108945" x2="3.2453871249262676" y2="-3.1345093101424375" stroke-linecap="round"/><line stroke="black" stroke-width="0.103943765" x1="1.7431452921201434" y1="-4.182141846757258" x2="1.5011120062931447" y2="-4.277361060440233" stroke-linecap="round"/><line stroke="black" stroke-width="0.103943765" x1="1.5011120062931447" y1="-4.277361060440233" x2="1.1004078607894687" y2="-4.37526576853519" stroke-linecap="round"/><line stroke="black" stroke-width="0.103943765" x1="1.1004078607894687" y1="-4.37526576853519" x2="0.9448870190691512" y2="-4.405726620807569" stroke-linecap="round"/><line stroke="black" stroke-width="0.103943765" x1="0.9448870190691512" y1="-4.405726620807569" x2="0.7135394202062582" y2="-4.439784909421768" stroke-linecap="round"/><line stroke="black" stroke-width="0.103943765" x1="0.7135394202062582" y1="-4.439784909421768" x2="0.4555241415800655" y2="-4.465462663072222" stroke-linecap="round"/><line stroke="black" stroke-width="0.103943765" x1="0.4555241415800655" y1="-4.465462663072222" x2="0.14338905142433234" y2="-4.486654534690288" stroke-linecap="round"/><line stroke="black" stroke-width="0.103943765" x1="0.14338905142433234" y1="-4.486654534690288" x2="0.0820640221549116" y2="-4.4888867302474145" stroke-linecap="round"/><line stroke="black" stroke-width="0.103943765" x1="4.267524554758163" y1="3.017666052757477" x2="4.415380385465728" y2="2.1719270287253902" stroke-linecap="round"/><line stroke="black" stroke-width="0.103943765" x1="4.415380385465728" y1="2.1719270287253902" x2="4.469770784961225" y2="1.757772308716163" stroke-linecap="round"/><line stroke="black" stroke-width="0.103943765" x1="4.469770784961225" y1="1.757772308716163" x2="4.531944549019458" y2="1.132802628499654" stroke-linecap="round"/><line stroke="black" stroke-width="0.103943765" x1="4.531944549019458" y1="1.132802628499654" x2="4.570996673951789" y2="0.3574503291982687" stroke-linecap="round"/><line stroke="black" stroke-width="0.103943765" x1="4.570996673951789" y1="0.3574503291982687" x2="4.57206899475244" y2="0.13769496058657893" stroke-linecap="round"/><line stroke="black" stroke-width="0.103943765" x1="4.57206899475244" y1="0.13769496058657893" x2="4.569094515383846" y2="0.025667597918388907" stroke-linecap="round"/><line stroke="black" stroke-width="0.103943765" x1="3.1621674896366265" y1="6.196388207578115" x2="3.177517098859111" y2="6.168791879281731" stroke-linecap="round"/><line stroke="black" stroke-width="0.103943765" x1="3.177517098859111" y1="6.168791879281731" x2="3.2646594977381014" y2="5.9998411279716475" stroke-linecap="round"/><line stroke="black" stroke-width="0.103943765" x1="3.2646594977381014" y1="5.9998411279716475" x2="3.5963707919758363" y2="5.281644288095292" stroke-linecap="round"/><line stroke="black" stroke-width="0.103943765" x1="3.5963707919758363" y1="5.281644288095292" x2="3.712864975522624" y2="4.9915928151155935" stroke-linecap="round"/><line stroke="black" stroke-width="0.103943765" x1="3.712864975522624" y1="4.9915928151155935" x2="3.846718018659315" y2="4.625454246942759" stroke-linecap="round"/><line stroke="black" stroke-width="0.103943765" x1="4.239631714027737" y1="3.1773749282630845" x2="4.267524554758163" y2="3.017666052757477" stroke-linecap="round"/><line stroke="black" stroke-width="0.103943765" x1="3.1142554595174285" y1="-3.2628803423505808" x2="2.8550695007041185" y2="-3.4846844237887016" stroke-linecap="round"/><line stroke="black" stroke-width="0.103943765" x1="2.8550695007041185" y1="-3.4846844237887016" x2="2.6442644823328614" y2="-3.6498630699715786" stroke-linecap="round"/><line stroke="black" stroke-width="0.103943765" x1="2.6442644823328614" y1="-3.6498630699715786" x2="2.401499779766933" y2="-3.821366463037764" stroke-linecap="round"/><line stroke="black" stroke-width="0.103943765" x1="2.401499779766933" y1="-3.821366463037764" x2="2.161817757647965" y2="-3.9709115232249044" stroke-linecap="round"/><line stroke="black" stroke-width="0.103943765" x1="2.161817757647965" y1="-3.9709115232249044" x2="1.9939042717586144" y2="-4.064299967401592" stroke-linecap="round"/><line stroke="black" stroke-width="0.103943765" x1="1.9939042717586144" y1="-4.064299967401592" x2="1.8614372965269155" y2="-4.130260814526592" stroke-linecap="round"/><line stroke="black" stroke-width="0.103943765" x1="4.569094515383846" y1="0.025667597918388907" x2="4.565622807762837" y2="-0.10552601780289095" stroke-linecap="round"/><line stroke="black" stroke-width="0.103943765" x1="4.565622807762837" y1="-0.10552601780289095" x2="4.555505103040401" y2="-0.28011968332950765" stroke-linecap="round"/><line stroke="black" stroke-width="0.103943765" x1="4.555505103040401" y1="-0.28011968332950765" x2="4.548762281871136" y2="-0.35541701094784983" stroke-linecap="round"/><line stroke="black" stroke-width="0.103943765" x1="4.548762281871136" y1="-0.35541701094784983" x2="4.4780612936556174" y2="-0.817521309654067" stroke-linecap="round"/><line stroke="black" stroke-width="0.103943765" x1="4.4780612936556174" y1="-0.817521309654067" x2="4.37661585222825" y2="-1.2502187350279819" stroke-linecap="round"/><line stroke="black" stroke-width="0.103943765" x1="4.37661585222825" y1="-1.2502187350279819" x2="4.32035706433299" y2="-1.447458981809099" stroke-linecap="round"/><line stroke="black" stroke-width="0.103943765" x1="4.32035706433299" y1="-1.447458981809099" x2="4.287595060283522" y2="-1.5499913424511842" stroke-linecap="round"/><line stroke="black" stroke-width="0.103943765" x1="3.2453871249262676" y1="-3.1345093101424375" x2="3.2434946025760674" y2="-3.136364564620541" stroke-linecap="round"/><line stroke="black" stroke-width="0.103943765" x1="1.4762584429031094" y1="8.68489298176567" x2="1.870391343998854" y2="8.21322878170938" stroke-linecap="round"/><line stroke="black" stroke-width="0.103943765" x1="1.870391343998854" y1="8.21322878170938" x2="2.4365964822435853" y2="7.4258577980163984" stroke-linecap="round"/><line stroke="black" stroke-width="0.103943765" x1="2.4365964822435853" y1="7.4258577980163984" x2="2.6373955783433907" y2="7.112848816983396" stroke-linecap="round"/><line stroke="black" stroke-width="0.103943765" x1="2.6373955783433907" y1="7.112848816983396" x2="2.8530109506655013" y2="6.752298170967961" stroke-linecap="round"/><line stroke="black" stroke-width="0.103943765" x1="0.04919316009097585" y1="10.076316747837163" x2="0.37528832811200985" y2="9.802465767851919" stroke-linecap="round"/><line stroke="black" stroke-width="0.103943765" x1="0.37528832811200985" y1="9.802465767851919" x2="0.7704888560695053" y2="9.434987072515344" stroke-linecap="round"/><line stroke="black" stroke-width="0.103943765" x1="0.7704888560695053" y1="9.434987072515344" x2="1.3010355860064138" y2="8.881688625377828" stroke-linecap="round"/></g><line stroke="#B46B37" stroke-width="0.103943765" x1="-0.051971883" y1="-5.0086055" x2="-0.051971883" y2="10.631191" stroke-linecap="round"/></g><g transform="translate(-50.0) translate(300.0 400.0) scale(48.10293197631836) translate(0.0013499259948730469 -2.8112926483154297)"><g transform="scale(-1 1)"><line stroke="#966441" stroke-width="0.103943765" x1="2.776225819057017" y1="0.3069830287330445" x2="2.7317308201918804" y2="0.29928826293214345" stroke-linecap="round"/><line stroke="#966441" stroke-width="0.103943765" x1="1.3483596928091932" y1="5.855794106885698" x2="3.2765701276144674" y2="3.1113247991386483" stroke-linecap="round"/><line stroke="#966441" stroke-width="0.103943765" x1="2.7317308201918804" y1="0.29928826293214345" x2="1.341093924577283" y2="5.8598650916340285" stroke-linecap="round"/><line stroke="#966441" stroke-width="0.103943765" x1="-3.469446951953614e-18" y1="8.165155995942209" x2="0.47667522146631225" y2="8.62004101302155" stroke-linecap="round"/><line stroke="#966441" stroke-width="0.103943765" x1="1.341093924577283" y1="5.8598650916340285" x2="0.0" y2="8.003496914865446" stroke-linecap="round"/><line stroke="#966441" stroke-width="0.103943765" x1="1.3483596928091932" y1="5.855794106885698" x2="1.341093924577283" y2="5.8598650916340285" stroke-linecap="round"/><line stroke="#966441" stroke-width="0.103943765" x1="0.034475655176605016" y1="-2.680577447880946" x2="2.021073707533014" y2="-1.8280201366277902" stroke-linecap="round"/><line stroke="#966441" stroke-width="0.103943765" x1="2.0415951300455335" y1="-1.8470187054514928" x2="1.4111175575260548" y2="-3.1854607912210016" stroke-linecap="round"/><line stroke="#966441" stroke-width="0.103943765" x1="2.021073707533014" y1="-1.8280201366277902" x2="2.0415951300455335" y2="-1.8470187054514928" stroke-linecap="round"/><line stroke="#966441" stroke-width="0.103943765" x1="2.776225819057017" y1="0.3069830287330445" x2="3.2288326682360378" y2="-1.25156091951158" stroke-linecap="round"/><line stroke="#966441" stroke-width="0.103943765" x1="3.2765701276144674" y1="3.1113247991386483" x2="3.3243546432734536" y2="3.1181798112021095" stroke-linecap="round"/><line stroke="#966441" stroke-width="0.103943765" x1="2.776225819057017" y1="0.3069830287330445" x2="3.2765701276144674" y2="3.1113247991386483" stroke-linecap="round"/><line stroke="#966441" stroke-width="0.103943765" x1="3.3243546432734536" y1="3.1181798112021095" x2="4.540824712256658" y2="0.03943146708108403" stroke-linecap="round"/><line stroke="#966441" stroke-width="0.103943765" x1="0.034429976873791776" y1="-2.731224533406635" x2="1.3726982522084241" y2="-3.1799132284246663" stroke-linecap="round"/><line stroke="#966441" stroke-width="0.103943765" x1="1.3726982522084241" y1="-3.1799132284246663" x2="0.030148401120256744" y2="-4.487385533169413" stroke-linecap="round"/><line stroke="#966441" stroke-width="0.103943765" x1="-1.734723475976807e-18" y1="10.087147641657866" x2="0.5146873303865788" y2="8.69725550347341" stroke-linecap="round"/><line stroke="#966441" stroke-width="0.103943765" x1="3.0686216271865665" y1="-3.302982731201898" x2="1.456449046478986" y2="-3.2570863935387453" stroke-linecap="round"/><line stroke="#966441" stroke-width="0.103943765" x1="3.2606730833371396" y1="-1.2632799260311456" x2="3.3208348548144895" y2="-1.3167283170169635" stroke-linecap="round"/><line stroke="#966441" stroke-width="0.103943765" x1="3.2288326682360378" y1="-1.25156091951158" x2="3.2606730833371396" y2="-1.2632799260311456" stroke-linecap="round"/><line stroke="#966441" stroke-width="0.103943765" x1="2.0415951300455335" y1="-1.8470187054514928" x2="3.2288326682360378" y2="-1.25156091951158" stroke-linecap="round"/><line stroke="#966441" stroke-width="0.103943765" x1="0.47667522146631225" y1="8.62004101302155" x2="0.5146873303865788" y2="8.69725550347341" stroke-linecap="round"/><line stroke="#966441" stroke-width="0.103943765" x1="1.3483596928091932" y1="5.855794106885698" x2="0.47667522146631225" y2="8.62004101302155" stroke-linecap="round"/><line stroke="#966441" stroke-width="0.103943765" x1="3.2137486598187173" y1="6.098877850024064" x2="3.25451203690632" y2="6.010818917757877" stroke-linecap="round"/><line stroke="#966441" stroke-width="0.103943765" x1="0.5146873303865788" y1="8.69725550347341" x2="0.5868214880485908" y2="8.671618760466078" stroke-linecap="round"/><line stroke="#966441" stroke-width="0.103943765" x1="4.244764625471273" y1="3.150067270973834" x2="4.25433364412957" y2="3.0953529319258934" stroke-linecap="round"/><line stroke="#966441" stroke-width="0.103943765" x1="3.3350026500360674" y1="3.1258151977748847" x2="3.25451203690632" y2="6.010818917757877" stroke-linecap="round"/><line stroke="#966441" stroke-width="0.103943765" x1="3.25451203690632" y1="6.010818917757877" x2="3.6196079446215426" y2="5.224044760130364" stroke-linecap="round"/><line stroke="#966441" stroke-width="0.103943765" x1="3.0887348645426456" y1="6.328755280925546" x2="0.5868214880485908" y2="8.671618760466078" stroke-linecap="round"/><line stroke="#966441" stroke-width="0.103943765" x1="0.5868214880485908" y1="8.671618760466078" x2="1.3821550900217803" y2="8.790865465655227" stroke-linecap="round"/><line stroke="#966441" stroke-width="0.103943765" x1="3.3350026500360674" y1="3.1258151977748847" x2="4.25433364412957" y2="3.0953529319258934" stroke-linecap="round"/><line stroke="#966441" stroke-width="0.103943765" x1="4.25433364412957" y1="3.0953529319258934" x2="4.41502938017945" y2="2.1754937275743833" stroke-linecap="round"/><line stroke="#966441" stroke-width="0.103943765" x1="3.3243546432734536" y1="3.1181798112021095" x2="3.3350026500360674" y2="3.1258151977748847" stroke-linecap="round"/><line stroke="#966441" stroke-width="0.103943765" x1="0.38291401071458364" y1="9.795585487685894" x2="0.7705941604960985" y2="9.435096943190798" stroke-linecap="round"/><line stroke="#966441" stroke-width="0.103943765" x1="0.043009432507054655" y1="10.080972778709818" x2="0.38291401071458364" y2="9.795585487685894" stroke-linecap="round"/><line stroke="#966441" stroke-width="0.103943765" x1="4.569539326103732" y1="0.038219794277220234" x2="4.565726359903954" y2="-0.10542294725539261" stroke-linecap="round"/><line stroke="#966441" stroke-width="0.103943765" x1="3.2606730833371396" y1="-1.2632799260311456" x2="4.540824712256658" y2="0.03943146708108403" stroke-linecap="round"/><line stroke="#966441" stroke-width="0.103943765" x1="4.540824712256658" y1="0.03943146708108403" x2="4.569539326103732" y2="0.038219794277220234" stroke-linecap="round"/><line stroke="#966441" stroke-width="0.103943765" x1="1.8615554262777103" y1="-4.1301429494574515" x2="1.772162959678335" y2="-4.169344970890249" stroke-linecap="round"/><line stroke="#966441" stroke-width="0.103943765" x1="3.0686216271865665" y1="-3.302982731201898" x2="2.8682000172185673" y2="-3.474378222760488" stroke-linecap="round"/><line stroke="#966441" stroke-width="0.103943765" x1="1.456449046478986" y1="-3.2570863935387453" x2="1.772162959678335" y2="-4.169344970890249" stroke-linecap="round"/><line stroke="#966441" stroke-width="0.103943765" x1="1.772162959678335" y1="-4.169344970890249" x2="1.7432690955560861" y2="-4.182018121579374" stroke-linecap="round"/><line stroke="#966441" stroke-width="0.103943765" x1="1.4111175575260548" y1="-3.1854607912210016" x2="1.456449046478986" y2="-3.2570863935387453" stroke-linecap="round"/><line stroke="#966441" stroke-width="0.103943765" x1="1.3726982522084241" y1="-3.1799132284246663" x2="1.4111175575260548" y2="-3.1854607912210016" stroke-linecap="round"/><line stroke="#966441" stroke-width="0.103943765" x1="3.340321098892542" y1="-3.039168496850521" x2="3.3208348548144895" y2="-1.3167283170169635" stroke-linecap="round"/><line stroke="#966441" stroke-width="0.103943765" x1="3.3208348548144895" y1="-1.3167283170169635" x2="4.220029193172477" y2="-1.7260969313521832" stroke-linecap="round"/><line stroke="#966441" stroke-width="0.103943765" x1="4.220029193172477" y1="-1.7260969313521832" x2="4.1559734521193725" y2="-1.876125485243529" stroke-linecap="round"/><line stroke="#966441" stroke-width="0.103943765" x1="2.7317308201918804" y1="0.29928826293214345" x2="2.021073707533014" y2="-1.8280201366277902" stroke-linecap="round"/><line stroke="#966441" stroke-width="0.103943765" x1="3.0686216271865665" y1="-3.302982731201898" x2="3.0953946595941497" y2="-3.2800778515178215" stroke-linecap="round"/><line stroke="#966441" stroke-width="0.103943765" x1="3.0953946595941497" y1="-3.2800778515178215" x2="3.330754935766324" y2="-3.04945613741895" stroke-linecap="round"/><line stroke="#966441" stroke-width="0.103943765" x1="3.330754935766324" y1="-3.04945613741895" x2="3.340321098892542" y2="-3.039168496850521" stroke-linecap="round"/><line stroke="#966441" stroke-width="0.103943765" x1="3.2137486598187173" y1="6.098877850024064" x2="3.177632337771409" y2="6.168909175495975" stroke-linecap="round"/><line stroke="#966441" stroke-width="0.103943765" x1="3.177632337771409" y1="6.168909175495975" x2="3.0887348645426456" y2="6.328755280925546" stroke-linecap="round"/><line stroke="#966441" stroke-width="0.103943765" x1="4.244764625471273" y1="3.150067270973834" x2="4.013932468095304" y2="4.088664424159823" stroke-linecap="round"/><line stroke="#966441" stroke-width="0.103943765" x1="4.013932468095304" y1="4.088664424159823" x2="3.847786646370574" y2="4.6227917666129175" stroke-linecap="round"/><line stroke="#966441" stroke-width="0.103943765" x1="3.847786646370574" y1="4.6227917666129175" x2="3.7129347390581717" y2="4.991663635857772" stroke-linecap="round"/><line stroke="#966441" stroke-width="0.103943765" x1="3.7129347390581717" y1="4.991663635857772" x2="3.6196079446215426" y2="5.224044760130364" stroke-linecap="round"/><line stroke="#966441" stroke-width="0.103943765" x1="3.0887348645426456" y1="6.328755280925546" x2="2.853104311070898" y2="6.752394480811624" stroke-linecap="round"/><line stroke="#966441" stroke-width="0.103943765" x1="2.853104311070898" y1="6.752394480811624" x2="2.637477646534622" y2="7.112933004934069" stroke-linecap="round"/><line stroke="#966441" stroke-width="0.103943765" x1="2.637477646534622" y1="7.112933004934069" x2="2.436674186720807" y2="7.425938043747057" stroke-linecap="round"/><line stroke="#966441" stroke-width="0.103943765" x1="2.436674186720807" y1="7.425938043747057" x2="1.8704840738041169" y2="8.213324654872261" stroke-linecap="round"/><line stroke="#966441" stroke-width="0.103943765" x1="1.8704840738041169" y1="8.213324654872261" x2="1.4763839036560724" y2="8.685022456162867" stroke-linecap="round"/><line stroke="#966441" stroke-width="0.103943765" x1="1.4763839036560724" y1="8.685022456162867" x2="1.3821550900217803" y2="8.790865465655227" stroke-linecap="round"/><line stroke="#966441" stroke-width="0.103943765" x1="4.569539326103732" y1="0.038219794277220234" x2="4.572177640753089" y2="0.13780355103207803" stroke-linecap="round"/><line stroke="#966441" stroke-width="0.103943765" x1="4.572177640753089" y1="0.13780355103207803" x2="4.571096681729366" y2="0.35755006265312334" stroke-linecap="round"/><line stroke="#966441" stroke-width="0.103943765" x1="4.571096681729366" y1="0.35755006265312334" x2="4.532031358940096" y2="1.1328894218174237" stroke-linecap="round"/><line stroke="#966441" stroke-width="0.103943765" x1="4.532031358940096" y1="1.1328894218174237" x2="4.469863637961145" y2="1.7578650548166572" stroke-linecap="round"/><line stroke="#966441" stroke-width="0.103943765" x1="4.469863637961145" y1="1.7578650548166572" x2="4.41502938017945" y2="2.1754937275743833" stroke-linecap="round"/><line stroke="#966441" stroke-width="0.103943765" x1="1.3821550900217803" y1="8.790865465655227" x2="1.301162703649247" y2="8.8818199783224" stroke-linecap="round"/><line stroke="#966441" stroke-width="0.103943765" x1="1.301162703649247" y1="8.8818199783224" x2="0.7705941604960985" y2="9.435096943190798" stroke-linecap="round"/><line stroke="#966441" stroke-width="0.103943765" x1="4.220029193172477" y1="-1.7260969313521832" x2="4.2289754848270515" y2="-1.705141351142642" stroke-linecap="round"/><line stroke="#966441" stroke-width="0.103943765" x1="4.2289754848270515" y1="-1.705141351142642" x2="4.287963500312574" y2="-1.5490669537440063" stroke-linecap="round"/><line stroke="#966441" stroke-width="0.103943765" x1="4.287963500312574" y1="-1.5490669537440063" x2="4.3204569998597115" y2="-1.4473596300273828" stroke-linecap="round"/><line stroke="#966441" stroke-width="0.103943765" x1="4.3204569998597115" y1="-1.4473596300273828" x2="4.37670566518691" y2="-1.2501294742526579" stroke-linecap="round"/><line stroke="#966441" stroke-width="0.103943765" x1="4.37670566518691" y1="-1.2501294742526579" x2="4.478140958151593" y2="-0.8174427731003063" stroke-linecap="round"/><line stroke="#966441" stroke-width="0.103943765" x1="4.478140958151593" y1="-0.8174427731003063" x2="4.548850111754297" y2="-0.3553297127181201" stroke-linecap="round"/><line stroke="#966441" stroke-width="0.103943765" x1="4.548850111754297" y1="-0.3553297127181201" x2="4.555596978189181" y2="-0.2800285337757021" stroke-linecap="round"/><line stroke="#966441" stroke-width="0.103943765" x1="4.555596978189181" y1="-0.2800285337757021" x2="4.565726359903954" y2="-0.10542294725539261" stroke-linecap="round"/><line stroke="#966441" stroke-width="0.103943765" x1="1.8615554262777103" y1="-4.1301429494574515" x2="1.9940099834990783" y2="-4.064195208429261" stroke-linecap="round"/><line stroke="#966441" stroke-width="0.103943765" x1="1.9940099834990783" y1="-4.064195208429261" x2="2.161911860422242" y2="-3.9708184742287465" stroke-linecap="round"/><line stroke="#966441" stroke-width="0.103943765" x1="2.161911860422242" y1="-3.9708184742287465" x2="2.4015838091461545" y2="-3.821283759442278" stroke-linecap="round"/><line stroke="#966441" stroke-width="0.103943765" x1="2.4015838091461545" y1="-3.821283759442278" x2="2.644347084131805" y2="-3.6497816527875186" stroke-linecap="round"/><line stroke="#966441" stroke-width="0.103943765" x1="2.644347084131805" y1="-3.6497816527875186" x2="2.8682000172185673" y2="-3.474378222760488" stroke-linecap="round"/><line stroke="#966441" stroke-width="0.103943765" x1="0.08218450333726572" y1="-4.488766294267312" x2="0.1435049932648713" y2="-4.486538609865905" stroke-linecap="round"/><line stroke="#966441" stroke-width="0.103943765" x1="0.1435049932648713" y1="-4.486538609865905" x2="0.45562204040372256" y2="-4.465365261599366" stroke-linecap="round"/><line stroke="#966441" stroke-width="0.103943765" x1="0.45562204040372256" y1="-4.465365261599366" x2="0.7136265421659015" y2="-4.43969880999474" stroke-linecap="round"/><line stroke="#966441" stroke-width="0.103943765" x1="0.7136265421659015" y1="-4.43969880999474" x2="0.9449701913113595" y2="-4.405644097140034" stroke-linecap="round"/><line stroke="#966441" stroke-width="0.103943765" x1="0.9449701913113595" y1="-4.405644097140034" x2="1.100492212723998" y2="-4.37518234444756" stroke-linecap="round"/><line stroke="#966441" stroke-width="0.103943765" x1="1.100492212723998" y1="-4.37518234444756" x2="1.5012094353328387" y2="-4.277264501600622" stroke-linecap="round"/><line stroke="#966441" stroke-width="0.103943765" x1="1.5012094353328387" y1="-4.277264501600622" x2="1.7432690955560861" y2="-4.182018121579374" stroke-linecap="round"/><line stroke="#966441" stroke-width="0.103943765" x1="3.340321098892542" y1="-3.039168496850521" x2="3.514723389942586" y2="-2.851612558911727" stroke-linecap="round"/><line stroke="#966441" stroke-width="0.103943765" x1="3.514723389942586" y1="-2.851612558911727" x2="3.6042325050470483" y2="-2.7490748039346067" stroke-linecap="round"/><line stroke="#966441" stroke-width="0.103943765" x1="3.6042325050470483" y1="-2.7490748039346067" x2="3.6941934674254715" y2="-2.6352613715085744" stroke-linecap="round"/><line stroke="#966441" stroke-width="0.103943765" x1="3.6941934674254715" y1="-2.6352613715085744" x2="3.7898444825430393" y2="-2.502241544104306" stroke-linecap="round"/><line stroke="#966441" stroke-width="0.103943765" x1="3.7898444825430393" y1="-2.502241544104306" x2="3.945215648742305" y2="-2.265878310709759" stroke-linecap="round"/><line stroke="#966441" stroke-width="0.103943765" x1="3.945215648742305" y1="-2.265878310709759" x2="4.010697874998533" y2="-2.1539058101070987" stroke-linecap="round"/><line stroke="#966441" stroke-width="0.103943765" x1="4.010697874998533" y1="-2.1539058101070987" x2="4.084648631056561" y2="-2.017817073509349" stroke-linecap="round"/><line stroke="#966441" stroke-width="0.103943765" x1="4.084648631056561" y1="-2.017817073509349" x2="4.1559734521193725" y2="-1.876125485243529" stroke-linecap="round"/></g><g><line stroke="black" stroke-width="0.103943765" x1="-1.5207700236388846" y1="5.556450379315351" x2="-1.4121837734416878" y2="5.651223551550291" stroke-linecap="round"/><line stroke="black" stroke-width="0.103943765" x1="-1.4121837734416878" y1="5.651223551550291" x2="-2.7384684817340093" y2="0.2723915782122744" stroke-linecap="round"/><line stroke="black" stroke-width="0.103943765" x1="-2.80430830854395" y1="0.28347374330255054" x2="-3.2915907641480473" y2="3.071615694226414" stroke-linecap="round"/><line stroke="black" stroke-width="0.103943765" x1="-2.7384684817340093" y1="0.2723915782122744" x2="-2.80430830854395" y2="0.28347374330255054" stroke-linecap="round"/><line stroke="black" stroke-width="0.103943765" x1="-1.5207700236388846" y1="5.556450379315351" x2="-0.49282028955291585" y2="8.679148963237632" stroke-linecap="round"/><line stroke="black" stroke-width="0.103943765" x1="-1.9749290731997409" y1="-1.884792114331155" x2="-1.945858404750468" y2="-1.8558259841580447" stroke-linecap="round"/><line stroke="black" stroke-width="0.103943765" x1="9.71445146547012e-17" y1="-2.7426079993595556" x2="-1.351940521162153" y2="-3.1895954878913266" stroke-linecap="round"/><line stroke="black" stroke-width="0.103943765" x1="-2.7384684817340093" y1="0.2723915782122744" x2="-1.945858404750468" y2="-1.8558259841580447" stroke-linecap="round"/><line stroke="black" stroke-width="0.103943765" x1="-1.9749290731997409" y1="-1.884792114331155" x2="-3.2662474853949353" y2="-1.230845123319119" stroke-linecap="round"/><line stroke="black" stroke-width="0.103943765" x1="-1.5207700236388846" y1="5.556450379315351" x2="-3.2915907641480473" y2="3.071615694226414" stroke-linecap="round"/><line stroke="black" stroke-width="0.103943765" x1="-3.319097526402971" y1="3.077223958236791" x2="-3.08944860476294" y2="6.299374177549014" stroke-linecap="round"/><line stroke="black" stroke-width="0.103943765" x1="-3.2915907641480473" y1="3.071615694226414" x2="-3.319097526402971" y2="3.077223958236791" stroke-linecap="round"/><line stroke="black" stroke-width="0.103943765" x1="-2.80430830854395" y1="0.28347374330255054" x2="-3.2674844516129733" y2="-1.215910476489854" stroke-linecap="round"/><line stroke="black" stroke-width="0.103943765" x1="-3.2674844516129733" y1="-1.215910476489854" x2="-4.558223337778369" y2="0.009333459439062927" stroke-linecap="round"/><line stroke="black" stroke-width="0.103943765" x1="-0.4976120095702036" y1="8.688652904019353" x2="-0.05964728516620523" y2="10.07062510479137" stroke-linecap="round"/><line stroke="black" stroke-width="0.103943765" x1="-0.49282028955291585" y1="8.679148963237632" x2="-0.4976120095702036" y2="8.688652904019353" stroke-linecap="round"/><line stroke="black" stroke-width="0.103943765" x1="-0.032874962052909684" y1="8.133783843580442" x2="-0.49282028955291585" y2="8.679148963237632" stroke-linecap="round"/><line stroke="black" stroke-width="0.103943765" x1="-3.298541555506271" y1="-3.0674586789181975" x2="-3.301991808285627" y2="-1.2686546039616882" stroke-linecap="round"/><line stroke="black" stroke-width="0.103943765" x1="-1.371690774522989" y1="-3.2135576917825084" x2="-3.1927165773386954" y2="-3.182152764969198" stroke-linecap="round"/><line stroke="black" stroke-width="0.103943765" x1="-1.356261336741222" y1="-3.1999112366379867" x2="-1.371690774522989" y2="-3.2135576917825084" stroke-linecap="round"/><line stroke="black" stroke-width="0.103943765" x1="-1.351940521162153" y1="-3.1895954878913266" x2="-1.356261336741222" y2="-3.1999112366379867" stroke-linecap="round"/><line stroke="black" stroke-width="0.103943765" x1="-1.9749290731997409" y1="-1.884792114331155" x2="-1.351940521162153" y2="-3.1895954878913266" stroke-linecap="round"/><line stroke="black" stroke-width="0.103943765" x1="-1.3968261054175966" y1="8.80730182402453" x2="-1.246909654158655" y2="8.973439917505097" stroke-linecap="round"/><line stroke="black" stroke-width="0.103943765" x1="-0.5255152154204954" y1="8.674281616011628" x2="-3.08944860476294" y2="6.299374177549014" stroke-linecap="round"/><line stroke="black" stroke-width="0.103943765" x1="-3.08944860476294" y1="6.299374177549014" x2="-3.1150513868933953" y2="6.2839156416175195" stroke-linecap="round"/><line stroke="black" stroke-width="0.103943765" x1="-3.348889722292445" y1="3.0699268995132782" x2="-4.2080788753990745" y2="3.2598626344848163" stroke-linecap="round"/><line stroke="black" stroke-width="0.103943765" x1="-3.319097526402971" y1="3.077223958236791" x2="-3.348889722292445" y2="3.0699268995132782" stroke-linecap="round"/><line stroke="black" stroke-width="0.103943765" x1="-3.348889722292445" y1="3.0699268995132782" x2="-4.558223337778369" y2="0.009333459439062927" stroke-linecap="round"/><line stroke="black" stroke-width="0.103943765" x1="-4.558223337778369" y1="0.009333459439062927" x2="-4.568083793426548" y2="0.009883783847188318" stroke-linecap="round"/><line stroke="black" stroke-width="0.103943765" x1="-1.356261336741222" y1="-3.1999112366379867" x2="-0.018026719065528406" y2="-4.486107354296883" stroke-linecap="round"/><line stroke="black" stroke-width="0.103943765" x1="-0.018026719065528406" y1="-4.486107354296883" x2="-0.14970532545094056" y2="-4.48262137449459" stroke-linecap="round"/><line stroke="black" stroke-width="0.103943765" x1="-1.371690774522989" y1="-3.2135576917825084" x2="-1.7815906190698165" y2="-4.150816231854619" stroke-linecap="round"/><line stroke="black" stroke-width="0.103943765" x1="-1.7815906190698165" y1="-4.150816231854619" x2="-1.855995232119625" y2="-4.12178507464488" stroke-linecap="round"/><line stroke="black" stroke-width="0.103943765" x1="-4.225585305603189" y1="-1.6827457007739532" x2="-4.226351619844131" y2="-1.6808379938917322" stroke-linecap="round"/><line stroke="black" stroke-width="0.103943765" x1="-3.298541555506271" y1="-3.0674586789181975" x2="-3.3675954020624106" y2="-2.9926347240172393" stroke-linecap="round"/><line stroke="black" stroke-width="0.103943765" x1="-0.5255152154204954" y1="8.674281616011628" x2="-1.246909654158655" y2="8.973439917505097" stroke-linecap="round"/><line stroke="black" stroke-width="0.103943765" x1="-1.246909654158655" y1="8.973439917505097" x2="-1.0447124105280206" y2="9.197079222012382" stroke-linecap="round"/><line stroke="black" stroke-width="0.103943765" x1="-0.4976120095702036" y1="8.688652904019353" x2="-0.5255152154204954" y2="8.674281616011628" stroke-linecap="round"/><line stroke="black" stroke-width="0.103943765" x1="-3.301991808285627" y1="-1.2686546039616882" x2="-4.226351619844131" y2="-1.6808379938917322" stroke-linecap="round"/><line stroke="black" stroke-width="0.103943765" x1="-4.226351619844131" y1="-1.6808379938917322" x2="-4.257307072579405" y2="-1.6037730086238529" stroke-linecap="round"/><line stroke="black" stroke-width="0.103943765" x1="-3.2662474853949353" y1="-1.230845123319119" x2="-3.301991808285627" y2="-1.2686546039616882" stroke-linecap="round"/><line stroke="black" stroke-width="0.103943765" x1="-3.2674844516129733" y1="-1.215910476489854" x2="-3.2662474853949353" y2="-1.230845123319119" stroke-linecap="round"/><line stroke="black" stroke-width="0.103943765" x1="-1.4121837734416878" y1="5.651223551550291" x2="-0.03447703493188392" y2="8.058605709183446" stroke-linecap="round"/><line stroke="black" stroke-width="0.103943765" x1="0.0" y1="-2.666219341516428" x2="-1.945858404750468" y2="-1.8558259841580447" stroke-linecap="round"/><line stroke="black" stroke-width="0.103943765" x1="-3.298541555506271" y1="-3.0674586789181975" x2="-3.1927165773386954" y2="-3.182152764969198" stroke-linecap="round"/><line stroke="black" stroke-width="0.103943765" x1="-1.3968261054175966" y1="8.80730182402453" x2="-1.8125318899488967" y2="8.299753521316454" stroke-linecap="round"/><line stroke="black" stroke-width="0.103943765" x1="-1.8125318899488967" y1="8.299753521316454" x2="-2.0910607989916983" y2="7.937017108473776" stroke-linecap="round"/><line stroke="black" stroke-width="0.103943765" x1="-2.0910607989916983" y1="7.937017108473776" x2="-2.498045572501521" y2="7.34472722923089" stroke-linecap="round"/><line stroke="black" stroke-width="0.103943765" x1="-2.498045572501521" y1="7.34472722923089" x2="-2.7119639186930273" y2="7.003956214259363" stroke-linecap="round"/><line stroke="black" stroke-width="0.103943765" x1="-2.7119639186930273" y1="7.003956214259363" x2="-2.897643366324327" y2="6.68643590172477" stroke-linecap="round"/><line stroke="black" stroke-width="0.103943765" x1="-2.897643366324327" y1="6.68643590172477" x2="-3.098634996995979" y2="6.316531111621194" stroke-linecap="round"/><line stroke="black" stroke-width="0.103943765" x1="-3.098634996995979" y1="6.316531111621194" x2="-3.1150513868933953" y2="6.2839156416175195" stroke-linecap="round"/><line stroke="black" stroke-width="0.103943765" x1="-3.1150513868933953" y1="6.2839156416175195" x2="-3.2880025863347173" y2="5.940329471596376" stroke-linecap="round"/><line stroke="black" stroke-width="0.103943765" x1="-3.2880025863347173" y1="5.940329471596376" x2="-3.353048631498662" y2="5.80032188413875" stroke-linecap="round"/><line stroke="black" stroke-width="0.103943765" x1="-3.353048631498662" y1="5.80032188413875" x2="-3.557085875005837" y2="5.322401443200785" stroke-linecap="round"/><line stroke="black" stroke-width="0.103943765" x1="-3.557085875005837" y1="5.322401443200785" x2="-3.7589260692241506" y2="4.805208257857657" stroke-linecap="round"/><line stroke="black" stroke-width="0.103943765" x1="-3.7589260692241506" y1="4.805208257857657" x2="-3.9081807217023172" y2="4.384157710102932" stroke-linecap="round"/><line stroke="black" stroke-width="0.103943765" x1="-3.9081807217023172" y1="4.384157710102932" x2="-4.013244049356634" y2="4.05530935874301" stroke-linecap="round"/><line stroke="black" stroke-width="0.103943765" x1="-4.013244049356634" y1="4.05530935874301" x2="-4.0668030767793155" y2="3.867510864270265" stroke-linecap="round"/><line stroke="black" stroke-width="0.103943765" x1="-4.0668030767793155" y1="3.867510864270265" x2="-4.146605826822302" y2="3.5502132728249998" stroke-linecap="round"/><line stroke="black" stroke-width="0.103943765" x1="-4.146605826822302" y1="3.5502132728249998" x2="-4.197157718319614" y2="3.318694573314488" stroke-linecap="round"/><line stroke="black" stroke-width="0.103943765" x1="-4.197157718319614" y1="3.318694573314488" x2="-4.2080788753990745" y2="3.2598626344848163" stroke-linecap="round"/><line stroke="black" stroke-width="0.103943765" x1="-4.2080788753990745" y1="3.2598626344848163" x2="-4.326751991504389" y2="2.6208150573802036" stroke-linecap="round"/><line stroke="black" stroke-width="0.103943765" x1="-4.326751991504389" y1="2.6208150573802036" x2="-4.524423372213512" y2="1.1621003317695782" stroke-linecap="round"/><line stroke="black" stroke-width="0.103943765" x1="-4.524423372213512" y1="1.1621003317695782" x2="-4.566675117834909" y2="0.690460977629408" stroke-linecap="round"/><line stroke="black" stroke-width="0.103943765" x1="-4.566675117834909" y1="0.690460977629408" x2="-4.57199634421313" y2="0.5987015295547331" stroke-linecap="round"/><line stroke="black" stroke-width="0.103943765" x1="-4.57199634421313" y1="0.5987015295547331" x2="-4.574781629855616" y2="0.4936182888293752" stroke-linecap="round"/><line stroke="black" stroke-width="0.103943765" x1="-4.574781629855616" y1="0.4936182888293752" x2="-4.573076864806806" y2="0.14719586205939636" stroke-linecap="round"/><line stroke="black" stroke-width="0.103943765" x1="-4.573076864806806" y1="0.14719586205939636" x2="-4.568083793426548" y2="0.009883783847188318" stroke-linecap="round"/><line stroke="black" stroke-width="0.103943765" x1="-1.7815906190698165" y1="-4.150816231854619" x2="-1.776855960462827" y2="-4.152664140650312" stroke-linecap="round"/><line stroke="black" stroke-width="0.103943765" x1="-1.776855960462827" y1="-4.152664140650312" x2="-1.6812392737566793" y2="-4.186564535402919" stroke-linecap="round"/><line stroke="black" stroke-width="0.103943765" x1="-1.6812392737566793" y1="-4.186564535402919" x2="-1.4959929181781282" y2="-4.245759285377677" stroke-linecap="round"/><line stroke="black" stroke-width="0.103943765" x1="-1.4959929181781282" y1="-4.245759285377677" x2="-1.331672638640742" y2="-4.292630640417346" stroke-linecap="round"/><line stroke="black" stroke-width="0.103943765" x1="-1.331672638640742" y1="-4.292630640417346" x2="-1.0867420206008704" y2="-4.354243858510552" stroke-linecap="round"/><line stroke="black" stroke-width="0.103943765" x1="-1.0867420206008704" y1="-4.354243858510552" x2="-0.9372115914794404" y2="-4.386899420665031" stroke-linecap="round"/><line stroke="black" stroke-width="0.103943765" x1="-0.9372115914794404" y1="-4.386899420665031" x2="-0.6084131188841138" y2="-4.442480335494351" stroke-linecap="round"/><line stroke="black" stroke-width="0.103943765" x1="-0.6084131188841138" y1="-4.442480335494351" x2="-0.44348125949636175" y2="-4.462491814300326" stroke-linecap="round"/><line stroke="black" stroke-width="0.103943765" x1="-0.44348125949636175" y1="-4.462491814300326" x2="-0.14970532545094056" y2="-4.48262137449459" stroke-linecap="round"/><line stroke="black" stroke-width="0.103943765" x1="-3.1927165773386954" y1="-3.182152764969198" x2="-3.0821828571543755" y2="-3.301983230395722" stroke-linecap="round"/><line stroke="black" stroke-width="0.103943765" x1="-3.0821828571543755" y1="-3.301983230395722" x2="-3.032873580503545" y2="-3.345030269202614" stroke-linecap="round"/><line stroke="black" stroke-width="0.103943765" x1="-3.032873580503545" y1="-3.345030269202614" x2="-2.859721263069683" y2="-3.48685677260375" stroke-linecap="round"/><line stroke="black" stroke-width="0.103943765" x1="-2.859721263069683" y1="-3.48685677260375" x2="-2.7358351335015905" y2="-3.581985757244442" stroke-linecap="round"/><line stroke="black" stroke-width="0.103943765" x1="-2.7358351335015905" y1="-3.581985757244442" x2="-2.417998293757327" y2="-3.8051681470152015" stroke-linecap="round"/><line stroke="black" stroke-width="0.103943765" x1="-2.417998293757327" y1="-3.8051681470152015" x2="-2.3010735389762074" y2="-3.878565923046709" stroke-linecap="round"/><line stroke="black" stroke-width="0.103943765" x1="-2.3010735389762074" y1="-3.878565923046709" x2="-2.162720940254273" y2="-3.959468639626465" stroke-linecap="round"/><line stroke="black" stroke-width="0.103943765" x1="-2.162720940254273" y1="-3.959468639626465" x2="-1.9344261149106015" y2="-4.083508825570961" stroke-linecap="round"/><line stroke="black" stroke-width="0.103943765" x1="-1.9344261149106015" y1="-4.083508825570961" x2="-1.855995232119625" y2="-4.12178507464488" stroke-linecap="round"/><line stroke="black" stroke-width="0.103943765" x1="-4.225585305603189" y1="-1.6827457007739532" x2="-4.173837532065393" y2="-1.7913437483973014" stroke-linecap="round"/><line stroke="black" stroke-width="0.103943765" x1="-4.173837532065393" y1="-1.7913437483973014" x2="-3.895674439468874" y2="-2.302819681973916" stroke-linecap="round"/><line stroke="black" stroke-width="0.103943765" x1="-3.895674439468874" y1="-2.302819681973916" x2="-3.689747723063488" y2="-2.589206898231187" stroke-linecap="round"/><line stroke="black" stroke-width="0.103943765" x1="-3.689747723063488" y1="-2.589206898231187" x2="-3.4644028228648427" y2="-2.876783721190161" stroke-linecap="round"/><line stroke="black" stroke-width="0.103943765" x1="-3.4644028228648427" y1="-2.876783721190161" x2="-3.3675954020624106" y2="-2.9926347240172393" stroke-linecap="round"/><line stroke="black" stroke-width="0.103943765" x1="-0.06166326702249993" y1="10.069144790776072" x2="-0.4550437055981611" y2="9.745769775783648" stroke-linecap="round"/><line stroke="black" stroke-width="0.103943765" x1="-0.4550437055981611" y1="9.745769775783648" x2="-1.0447124105280206" y2="9.197079222012382" stroke-linecap="round"/><line stroke="black" stroke-width="0.103943765" x1="-4.568083793426548" y1="0.009883783847188318" x2="-4.565502403069884" y2="-0.06123367051839425" stroke-linecap="round"/><line stroke="black" stroke-width="0.103943765" x1="-4.565502403069884" y1="-0.06123367051839425" x2="-4.542541139709953" y2="-0.39984529722517975" stroke-linecap="round"/><line stroke="black" stroke-width="0.103943765" x1="-4.542541139709953" y1="-0.39984529722517975" x2="-4.537701307522302" y2="-0.448507393707719" stroke-linecap="round"/><line stroke="black" stroke-width="0.103943765" x1="-4.537701307522302" y1="-0.448507393707719" x2="-4.512184171647222" y2="-0.6428494375342518" stroke-linecap="round"/><line stroke="black" stroke-width="0.103943765" x1="-4.512184171647222" y1="-0.6428494375342518" x2="-4.467032744960679" y2="-0.8885124596771596" stroke-linecap="round"/><line stroke="black" stroke-width="0.103943765" x1="-4.467032744960679" y1="-0.8885124596771596" x2="-4.344897075617334" y2="-1.3416111355702454" stroke-linecap="round"/><line stroke="black" stroke-width="0.103943765" x1="-4.344897075617334" y1="-1.3416111355702454" x2="-4.257307072579405" y2="-1.6037730086238529" stroke-linecap="round"/></g><line stroke="#B46B37" stroke-width="0.103943765" x1="0.051971883" y1="-5.0086055" x2="0.051971883" y2="10.631191" stroke-linecap="round"/></g></svg>