<svg xmlns="http://www.w3.org/2000/svg" width="600" height="800"><g transform="translate(50.0) translate(300.0 400.0) scale(66.67738342285156) translate(-0.00015544891357421875 -0.001517176628112793)"><g transform="scale(-1 1)"><line stroke="#966441" stroke-width="0.07498795" x1="-0.0001169703278662837" y1="3.300986651919068" x2="-0.2839964634023673" y2="0.6873606633763352" stroke-linecap="round"/><line stroke="#966441" stroke-width="0.07498795" x1="0.0" y1="0.0" x2="-0.2839964634023673" y2="0.6873606633763352" stroke-linecap="round"/><line stroke="#966441" stroke-width="0.07498795" x1="-0.2839964634023673" y1="0.6873606633763352" x2="-2.333114390399629" y2="2.3344017291994703" stroke-linecap="round"/><line stroke="#966441" stroke-width="0.07498795" x1="-2.333114390399629" y1="2.3344017291994703" x2="-0.6857347481278193" y2="0.28555594628261716" stroke-linecap="round"/><line stroke="#966441" stroke-width="0.07498795" x1="0.0" y1="0.0" x2="-2.333114390399629" y2="2.3344017291994703" stroke-linecap="round"/><line stroke="#966441" stroke-width="0.07498795" x1="0.0" y1="0.0" x2="-0.6857347481278193" y2="0.28555594628261716" stroke-linecap="round"/><line stroke="#966441" stroke-width="0.07498795" x1="-0.6857347481278193" y1="0.28555594628261716" x2="-3.299313954778828" y2="0.0012446996064738869" stroke-linecap="round"/><line stroke="#966441" stroke-width="0.07498795" x1="-3.299313954778828" y1="0.0012446996064738869" x2="-0.6856878438020315" y2="-0.28263478303088974" stroke-linecap="round"/><line stroke="#966441" stroke-width="0.07498795" x1="0.0" y1="0.0" x2="-0.6856878438020315" y2="-0.28263478303088974" stroke-linecap="round"/><line stroke="#966441" stroke-width="0.07498795" x1="-0.6856878438020315" y1="-0.28263478303088974" x2="-2.3327290706904336" y2="-2.331752607689026" stroke-linecap="round"/><line stroke="#966441" stroke-width="0.07498795" x1="-2.3327290706904336" y1="-2.331752607689026" x2="-0.28388315412304266" y2="-0.6843731716541406" stroke-linecap="round"/><line stroke="#966441" stroke-width="0.07498795" x1="0.0" y1="0.0" x2="-0.28388315412304266" y2="-0.6843731716541406" stroke-linecap="round"/><line stroke="#966441" stroke-width="0.07498795" x1="-0.28388315412304266" y1="-0.6843731716541406" x2="-6.993104012531504e-18" y2="-3.2940176019920866" stroke-linecap="round"/><line stroke="#966441" stroke-width="0.07498795" x1="-0.8540731206829335" y1="3.188489441320163" x2="-1.2627484348201605" y2="3.0497251427622576" stroke-linecap="round"/><line stroke="#966441" stroke-width="0.07498795" x1="-0.0001169703278662837" y1="3.300986651919068" x2="-0.4307816935170692" y2="3.2727235866246733" stroke-linecap="round"/><line stroke="#966441" stroke-width="0.07498795" x1="-0.2839964634023673" y1="0.6873606633763352" x2="-1.2627484348201605" y2="3.0497251427622576" stroke-linecap="round"/><line stroke="#966441" stroke-width="0.07498795" x1="-1.2627484348201605" y1="3.0497251427622576" x2="-1.649815092859562" y2="2.85880530209943" stroke-linecap="round"/><line stroke="#966441" stroke-width="0.07498795" x1="-2.8574050131862734" y1="1.6510160083840262" x2="-3.0482610218563906" y2="1.2639177107495811" stroke-linecap="round"/><line stroke="#966441" stroke-width="0.07498795" x1="-2.333114390399629" y1="2.3344017291994703" x2="-2.6176554114477497" y2="2.0098907188964574" stroke-linecap="round"/><line stroke="#966441" stroke-width="0.07498795" x1="-0.6857347481278193" y1="0.28555594628261716" x2="-3.0482610218563906" y2="1.2639177107495811" stroke-linecap="round"/><line stroke="#966441" stroke-width="0.07498795" x1="-3.0482610218563906" y1="1.2639177107495811" x2="-3.1869577984369784" y2="0.8552195550745125" stroke-linecap="round"/><line stroke="#966441" stroke-width="0.07498795" x1="-3.186816729693222" y1="-0.852711493039692" x2="-3.048052435964217" y2="-1.261386793079886" stroke-linecap="round"/><line stroke="#966441" stroke-width="0.07498795" x1="-3.299313954778828" y1="0.0012446996064738869" x2="-3.271051095721358" y2="-0.42942015723326676" stroke-linecap="round"/><line stroke="#966441" stroke-width="0.07498795" x1="-0.6856878438020315" y1="-0.28263478303088974" x2="-3.048052435964217" y2="-1.261386793079886" stroke-linecap="round"/><line stroke="#966441" stroke-width="0.07498795" x1="-3.048052435964217" y1="-1.261386793079886" x2="-2.8571326049591903" y2="-1.648453422925222" stroke-linecap="round"/><line stroke="#966441" stroke-width="0.07498795" x1="-1.6493432726125832" y1="-2.856043456028196" x2="-1.2622449749781381" y2="-3.0468994646983134" stroke-linecap="round"/><line stroke="#966441" stroke-width="0.07498795" x1="-2.3327290706904336" y1="-2.331752607689026" x2="-2.0082180217562176" y2="-2.6162937415134095" stroke-linecap="round"/><line stroke="#966441" stroke-width="0.07498795" x1="-0.28388315412304266" y1="-0.6843731716541406" x2="-1.2622449749781381" y2="-3.0468994646983134" stroke-linecap="round"/><line stroke="#966441" stroke-width="0.07498795" x1="-1.2622449749781381" y1="-3.0468994646983134" x2="-0.8535468193030695" y2="-3.185596241278901" stroke-linecap="round"/><line stroke="#966441" stroke-width="0.07498795" x1="-0.8540731206829335" y1="3.188489441320163" x2="-0.4307816935170692" y2="3.2727235866246733" stroke-linecap="round"/><line stroke="#966441" stroke-width="0.07498795" x1="-2.333114390399629" y1="2.3344017291994703" x2="-2.0086503413978676" y2="2.618996267008484" stroke-linecap="round"/><line stroke="#966441" stroke-width="0.07498795" x1="-2.0086503413978676" y1="2.618996267008484" x2="-1.649815092859562" y2="2.85880530209943" stroke-linecap="round"/><line stroke="#966441" stroke-width="0.07498795" x1="-2.8574050131862734" y1="1.6510160083840262" x2="-2.6176554114477497" y2="2.0098907188964574" stroke-linecap="round"/><line stroke="#966441" stroke-width="0.07498795" x1="-3.299313954778828" y1="0.0012446996064738869" x2="-3.2711222150474555" y2="0.43191419683728327" stroke-linecap="round"/><line stroke="#966441" stroke-width="0.07498795" x1="-3.2711222150474555" y1="0.43191419683728327" x2="-3.1869577984369784" y2="0.8552195550745125" stroke-linecap="round"/><line stroke="#966441" stroke-width="0.07498795" x1="-3.186816729693222" y1="-0.852711493039692" x2="-3.271051095721358" y2="-0.42942015723326676" stroke-linecap="round"/><line stroke="#966441" stroke-width="0.07498795" x1="-2.3327290706904336" y1="-2.331752607689026" x2="-2.617323834051973" y2="-2.0072886359496707" stroke-linecap="round"/><line stroke="#966441" stroke-width="0.07498795" x1="-2.617323834051973" y1="-2.0072886359496707" x2="-2.8571326049591903" y2="-1.648453422925222" stroke-linecap="round"/><line stroke="#966441" stroke-width="0.07498795" x1="-1.6493432726125832" y1="-2.856043456028196" x2="-2.0082180217562176" y2="-2.6162937415134095" stroke-linecap="round"/><line stroke="#966441" stroke-width="0.07498795" x1="1.349831704744453e-17" y1="-3.2979243780405025" x2="-0.4302415383282465" y2="-3.2697604323368523" stroke-linecap="round"/><line stroke="#966441" stroke-width="0.07498795" x1="-0.4302415383282465" y1="-3.2697604323368523" x2="-0.8535468193030695" y2="-3.185596241278901" stroke-linecap="round"/></g><g><line stroke="black" stroke-width="0.07498795" x1="0.0" y1="0.0" x2="0.6859989177382619" y2="0.2856691976151371" stroke-linecap="round"/><line stroke="black" stroke-width="0.07498795" x1="0.6859989177382619" y1="0.2856691976151371" x2="2.333040172041393" y2="2.334787126171072" stroke-linecap="round"/><line stroke="black" stroke-width="0.07498795" x1="2.333040172041393" y1="2.334787126171072" x2="0.28419423771707386" y2="0.6874075580443222" stroke-linecap="round"/><line stroke="black" stroke-width="0.07498795" x1="0.0" y1="0.0" x2="2.333040172041393" y2="2.334787126171072" stroke-linecap="round"/><line stroke="black" stroke-width="0.07498795" x1="0.0" y1="0.0" x2="0.28419423771707386" y2="0.6874075580443222" stroke-linecap="round"/><line stroke="black" stroke-width="0.07498795" x1="0.28419423771707386" y1="0.6874075580443222" x2="-1.3552527156068805e-20" y2="3.2999113823030117" stroke-linecap="round"/><line stroke="black" stroke-width="0.07498795" x1="0.00042803616496911445" y1="-3.297952397620751" x2="0.28430756475332686" y2="-0.684326144894289" stroke-linecap="round"/><line stroke="black" stroke-width="0.07498795" x1="0.0" y1="0.0" x2="0.28430756475332686" y2="-0.684326144894289" stroke-linecap="round"/><line stroke="black" stroke-width="0.07498795" x1="0.28430756475332686" y1="-0.684326144894289" x2="2.333425343460469" y2="-2.3313675135323564" stroke-linecap="round"/><line stroke="black" stroke-width="0.07498795" x1="2.333425343460469" y1="-2.3313675135323564" x2="0.6860459348403127" y2="-0.2825214930671667" stroke-linecap="round"/><line stroke="black" stroke-width="0.07498795" x1="0.0" y1="0.0" x2="0.6860459348403127" y2="-0.2825214930671667" stroke-linecap="round"/><line stroke="black" stroke-width="0.07498795" x1="0.6860459348403127" y1="-0.2825214930671667" x2="3.299624869208465" y2="0.0017896288369030344" stroke-linecap="round"/><line stroke="black" stroke-width="0.07498795" x1="1.649654225673423" y1="2.85907767169531" x2="1.262556153591504" y2="3.0499337576278336" stroke-linecap="round"/><line stroke="black" stroke-width="0.07498795" x1="2.333040172041393" y1="2.334787126171072" x2="2.008529123107177" y2="2.6193282599954557" stroke-linecap="round"/><line stroke="black" stroke-width="0.07498795" x1="0.28419423771707386" y1="0.6874075580443222" x2="1.262556153591504" y2="3.0499337576278336" stroke-linecap="round"/><line stroke="black" stroke-width="0.07498795" x1="1.262556153591504" y1="3.0499337576278336" x2="0.8538577723639094" y2="3.188630456946015" stroke-linecap="round"/><line stroke="black" stroke-width="0.07498795" x1="0.8543842992962993" y1="-3.185455148390643" x2="1.2630596134335264" y2="-3.0466908498327374" stroke-linecap="round"/><line stroke="black" stroke-width="0.07498795" x1="0.00042803616496911445" y1="-3.297952397620751" x2="0.431092872130435" y2="-3.269689293695153" stroke-linecap="round"/><line stroke="black" stroke-width="0.07498795" x1="0.28430756475332686" y1="-0.684326144894289" x2="1.2630596134335264" y2="-3.0466908498327374" stroke-linecap="round"/><line stroke="black" stroke-width="0.07498795" x1="1.2630596134335264" y1="-3.0466908498327374" x2="1.6501263278610594" y2="-2.8557709898543084" stroke-linecap="round"/><line stroke="black" stroke-width="0.07498795" x1="2.857716191799639" y1="-1.647981715454506" x2="3.0485722004697564" y2="-1.260883417820061" stroke-linecap="round"/><line stroke="black" stroke-width="0.07498795" x1="2.333425343460469" y1="-2.3313675135323564" x2="2.6179665900611155" y2="-2.0068564259669373" stroke-linecap="round"/><line stroke="black" stroke-width="0.07498795" x1="0.6860459348403127" y1="-0.2825214930671667" x2="3.0485722004697564" y2="-1.260883417820061" stroke-linecap="round"/><line stroke="black" stroke-width="0.07498795" x1="3.0485722004697564" y1="-1.260883417820061" x2="3.187268712866615" y2="-0.8521852266311356" stroke-linecap="round"/><line stroke="black" stroke-width="0.07498795" x1="3.1871278551886837" y1="0.8557459410365738" x2="3.048363566288579" y2="1.264421226979735" stroke-linecap="round"/><line stroke="black" stroke-width="0.07498795" x1="0.6859989177382619" y1="0.2856691976151371" x2="3.299624869208465" y2="0.0017896288369030344" stroke-linecap="round"/><line stroke="black" stroke-width="0.07498795" x1="3.299624869208465" y1="0.0017896288369030344" x2="3.2713619715197915" y2="0.4324545984529067" stroke-linecap="round"/><line stroke="black" stroke-width="0.07498795" x1="0.6859989177382619" y1="0.2856691976151371" x2="3.048363566288579" y2="1.264421226979735" stroke-linecap="round"/><line stroke="black" stroke-width="0.07498795" x1="3.048363566288579" y1="1.264421226979735" x2="2.85744370631015" y2="1.651487941407268" stroke-linecap="round"/><line stroke="black" stroke-width="0.07498795" x1="1.649654225673423" y1="2.85907767169531" x2="2.008529123107177" y2="2.6193282599954557" stroke-linecap="round"/><line stroke="black" stroke-width="0.07498795" x1="0.0" y1="3.3009789949379393" x2="0.43055249138908636" y2="3.2727946480039662" stroke-linecap="round"/><line stroke="black" stroke-width="0.07498795" x1="0.43055249138908636" y1="3.2727946480039662" x2="0.8538577723639094" y2="3.188630456946015" stroke-linecap="round"/><line stroke="black" stroke-width="0.07498795" x1="0.8543842992962993" y1="-3.185455148390643" x2="0.431092872130435" y2="-3.269689293695153" stroke-linecap="round"/><line stroke="black" stroke-width="0.07498795" x1="2.333425343460469" y1="-2.3313675135323564" x2="2.0089615972736397" y2="-2.6159621996314897" stroke-linecap="round"/><line stroke="black" stroke-width="0.07498795" x1="2.0089615972736397" y1="-2.6159621996314897" x2="1.6501263278610594" y2="-2.8557709898543084" stroke-linecap="round"/><line stroke="black" stroke-width="0.07498795" x1="2.857716191799639" y1="-1.647981715454506" x2="2.6179665900611155" y2="-2.0068564259669373" stroke-linecap="round"/><line stroke="black" stroke-width="0.07498795" x1="3.299624869208465" y1="0.0017896288369030344" x2="3.271433129477092" y2="-0.42887986839390635" stroke-linecap="round"/><line stroke="black" stroke-width="0.07498795" x1="3.271433129477092" y1="-0.42887986839390635" x2="3.187268712866615" y2="-0.8521852266311356" stroke-linecap="round"/><line stroke="black" stroke-width="0.07498795" x1="3.1871278551886837" y1="0.8557459410365738" x2="3.2713619715197915" y2="0.4324545984529067" stroke-linecap="round"/><line stroke="black" stroke-width="0.07498795" x1="2.333040172041393" y1="2.334787126171072" x2="2.6176347098504067" y2="2.0103230771693106" stroke-linecap="round"/><line stroke="black" stroke-width="0.07498795" x1="2.6176347098504067" y1="2.0103230771693106" x2="2.85744370631015" y2="1.651487941407268" stroke-linecap="round"/></g><line stroke="#B46B37" stroke-width="0.07498795" x1="-0.037493974" y1="-3.672892" x2="-0.037493974" y2="3.6759264" stroke-linecap="round"/></g><g transform="translate(-50.0) translate(300.0 400.0) scale(66.67738342285156) translate(-0.00015544891357421875 -0.001517176628112793)"><g transform="scale(-1 1)"><line stroke="#966441" stroke-width="0.07498795" x1="2.008529045567681" y1="2.6193281588759874" x2="2.33304008197411" y2="2.3347870360363476" stroke-linecap="round"/><line stroke="#966441" stroke-width="0.07498795" x1="2.33304008197411" y1="2.3347870360363476" x2="0.9753592078546478" y2="2.3564172360046123" stroke-linecap="round"/><line stroke="#966441" stroke-width="0.07498795" x1="0.9753592078546478" y1="2.3564172360046123" x2="1.2625561048503797" y2="3.0499336398847903" stroke-linecap="round"/><line stroke="#966441" stroke-width="0.07498795" x1="0.9753592078546478" y1="2.3564172360046123" x2="-1.3552527156068805e-20" y2="3.3008732602367767" stroke-linecap="round"/><line stroke="#966441" stroke-width="0.07498795" x1="0.0004280361484458644" y1="-3.29795227030292" x2="0.9757482037158485" y2="-2.3532218392881967" stroke-linecap="round"/><line stroke="#966441" stroke-width="0.07498795" x1="0.9757482037158485" y1="-2.3532218392881967" x2="1.2630595646729645" y2="-3.046690732214888" stroke-linecap="round"/><line stroke="#966441" stroke-width="0.07498795" x1="0.9757482037158485" y1="-2.3532218392881967" x2="2.3334252533783157" y2="-2.331367423529646" stroke-linecap="round"/><line stroke="#966441" stroke-width="0.07498795" x1="2.3334252533783157" y1="-2.331367423529646" x2="2.355055527491638" y2="-0.9736863980027239" stroke-linecap="round"/><line stroke="#966441" stroke-width="0.07498795" x1="2.355055527491638" y1="-0.9736863980027239" x2="3.0485720827792764" y2="-1.260883369143512" stroke-linecap="round"/><line stroke="#966441" stroke-width="0.07498795" x1="2.355055527491638" y1="-0.9736863980027239" x2="3.2996247418260687" y2="0.0017896287678155901" stroke-linecap="round"/><line stroke="#966441" stroke-width="0.07498795" x1="3.2996247418260687" y1="0.0017896287678155901" x2="2.3548943204691475" y2="0.9771097681411537" stroke-linecap="round"/><line stroke="#966441" stroke-width="0.07498795" x1="2.3548943204691475" y1="0.9771097681411537" x2="3.048363448606154" y2="1.2644211781666088" stroke-linecap="round"/><line stroke="#966441" stroke-width="0.07498795" x1="2.33304008197411" y1="2.3347870360363476" x2="2.6176346087963194" y2="2.0103229995605587" stroke-linecap="round"/><line stroke="#966441" stroke-width="0.07498795" x1="2.33304008197411" y1="2.3347870360363476" x2="2.3548943204691475" y2="0.9771097681411537" stroke-linecap="round"/><line stroke="#966441" stroke-width="0.07498795" x1="2.3548943204691475" y1="0.9771097681411537" x2="1.3317510870523759" y2="1.333332722311787" stroke-linecap="round"/><line stroke="#966441" stroke-width="0.07498795" x1="0.9753592078546478" y1="2.3564172360046123" x2="5.2412848261165125e-08" y2="1.8848333518815967" stroke-linecap="round"/><line stroke="#966441" stroke-width="0.07498795" x1="0.9757482037158485" y1="-2.3532218392881967" x2="1.331971147449345" y2="-1.3300784834373685" stroke-linecap="round"/><line stroke="#966441" stroke-width="0.07498795" x1="2.355055527491638" y1="-0.9736863980027239" x2="1.8834715499079646" y2="0.001672662419744741" stroke-linecap="round"/><line stroke="#966441" stroke-width="0.07498795" x1="2.3548943204691475" y1="0.9771097681411537" x2="1.8834715499079646" y2="0.001672662419744741" stroke-linecap="round"/><line stroke="#966441" stroke-width="0.07498795" x1="0.9753592078546478" y1="2.3564172360046123" x2="1.3317510870523759" y2="1.333332722311787" stroke-linecap="round"/><line stroke="#966441" stroke-width="0.07498795" x1="1.3317510870523759" y1="1.333332722311787" x2="5.2412848261165125e-08" y2="1.8848333518815967" stroke-linecap="round"/><line stroke="#966441" stroke-width="0.07498795" x1="0.9757482037158485" y1="-2.3532218392881967" x2="0.0003110875573013756" y2="-1.8817989462929572" stroke-linecap="round"/><line stroke="#966441" stroke-width="0.07498795" x1="0.0003110875573013756" y1="-1.8817989462929572" x2="1.331971147449345" y2="-1.3300784834373685" stroke-linecap="round"/><line stroke="#966441" stroke-width="0.07498795" x1="2.355055527491638" y1="-0.9736863980027239" x2="1.331971147449345" y2="-1.3300784834373685" stroke-linecap="round"/><line stroke="#966441" stroke-width="0.07498795" x1="1.331971147449345" y1="-1.3300784834373685" x2="1.8834715499079646" y2="0.001672662419744741" stroke-linecap="round"/><line stroke="#966441" stroke-width="0.07498795" x1="1.3317510870523759" y1="1.333332722311787" x2="1.8834715499079646" y2="0.001672662419744741" stroke-linecap="round"/><line stroke="#966441" stroke-width="0.07498795" x1="2.008529045567681" y1="2.6193281588759874" x2="1.6496541619883314" y2="2.85907756132029" stroke-linecap="round"/><line stroke="#966441" stroke-width="0.07498795" x1="1.6496541619883314" y1="2.85907756132029" x2="1.2625561048503797" y2="3.0499336398847903" stroke-linecap="round"/><line stroke="#966441" stroke-width="0.07498795" x1="1.2625561048503797" y1="3.0499336398847903" x2="0.8538577394006325" y2="3.1886303338485704" stroke-linecap="round"/><line stroke="#966441" stroke-width="0.07498795" x1="0.8538577394006325" y1="3.1886303338485704" x2="0.4305524747675573" y2="3.272794521657354" stroke-linecap="round"/><line stroke="#966441" stroke-width="0.07498795" x1="0.4305524747675573" y1="3.272794521657354" x2="0.0" y2="3.3009788675032654" stroke-linecap="round"/><line stroke="#966441" stroke-width="0.07498795" x1="0.0004280361484458644" y1="-3.29795227030292" x2="0.4310928554880448" y2="-3.2696891674684228" stroke-linecap="round"/><line stroke="#966441" stroke-width="0.07498795" x1="0.4310928554880448" y1="-3.2696891674684228" x2="0.8543842663126947" y2="-3.185455025415782" stroke-linecap="round"/><line stroke="#966441" stroke-width="0.07498795" x1="0.8543842663126947" y1="-3.185455025415782" x2="1.2630595646729645" y2="-3.046690732214888" stroke-linecap="round"/><line stroke="#966441" stroke-width="0.07498795" x1="1.2630595646729645" y1="-3.046690732214888" x2="1.650126264157744" y2="-2.8557708796069425" stroke-linecap="round"/><line stroke="#966441" stroke-width="0.07498795" x1="1.650126264157744" y1="-2.8557708796069425" x2="2.0089615197174475" y2="-2.615962098641968" stroke-linecap="round"/><line stroke="#966441" stroke-width="0.07498795" x1="2.0089615197174475" y1="-2.615962098641968" x2="2.3334252533783157" y2="-2.331367423529646" stroke-linecap="round"/><line stroke="#966441" stroke-width="0.07498795" x1="2.3334252533783157" y1="-2.331367423529646" x2="2.6179664889942154" y2="-2.0068563484920157" stroke-linecap="round"/><line stroke="#966441" stroke-width="0.07498795" x1="2.6179664889942154" y1="-2.0068563484920157" x2="2.857716081477179" y2="-1.647981651833982" stroke-linecap="round"/><line stroke="#966441" stroke-width="0.07498795" x1="2.857716081477179" y1="-1.647981651833982" x2="3.0485720827792764" y2="-1.260883369143512" stroke-linecap="round"/><line stroke="#966441" stroke-width="0.07498795" x1="3.0485720827792764" y1="-1.260883369143512" x2="3.1872685898217408" y2="-0.8521851937324264" stroke-linecap="round"/><line stroke="#966441" stroke-width="0.07498795" x1="3.1872685898217408" y1="-0.8521851937324264" x2="3.27143300318304" y2="-0.4288798518369501" stroke-linecap="round"/><line stroke="#966441" stroke-width="0.07498795" x1="3.27143300318304" y1="-0.4288798518369501" x2="3.2996247418260687" y2="0.0017896287678155901" stroke-linecap="round"/><line stroke="#966441" stroke-width="0.07498795" x1="3.2996247418260687" y1="0.0017896287678155901" x2="3.2713618452284874" y2="0.4324545817579462" stroke-linecap="round"/><line stroke="#966441" stroke-width="0.07498795" x1="3.2713618452284874" y1="0.4324545817579462" x2="3.1871277321492473" y2="0.8557459080004035" stroke-linecap="round"/><line stroke="#966441" stroke-width="0.07498795" x1="3.1871277321492473" y1="0.8557459080004035" x2="3.048363448606154" y2="1.2644211781666088" stroke-linecap="round"/><line stroke="#966441" stroke-width="0.07498795" x1="3.048363448606154" y1="1.2644211781666088" x2="2.857443595998207" y2="1.6514878776513866" stroke-linecap="round"/><line stroke="#966441" stroke-width="0.07498795" x1="2.857443595998207" y1="1.6514878776513866" x2="2.6176346087963194" y2="2.0103229995605587" stroke-linecap="round"/></g><g><line stroke="black" stroke-width="0.07498795" x1="-0.00011697032335196785" y1="3.300986524484099" x2="-0.9754370251144965" y2="2.356256132100579" stroke-linecap="round"/><line stroke="black" stroke-width="0.07498795" x1="-0.9754370251144965" y1="2.356256132100579" x2="-1.2627483860716129" y2="3.049725025027269" stroke-linecap="round"/><line stroke="black" stroke-width="0.07498795" x1="-0.9754370251144965" y1="2.356256132100579" x2="-2.3331143003294796" y2="2.334401639079625" stroke-linecap="round"/><line stroke="black" stroke-width="0.07498795" x1="-2.3331143003294796" y1="2.334401639079625" x2="-2.354744426152689" y2="0.9767209163676224" stroke-linecap="round"/><line stroke="black" stroke-width="0.07498795" x1="-2.354744426152689" y1="0.9767209163676224" x2="-3.0482609041779236" y2="1.2639176619558932" stroke-linecap="round"/><line stroke="black" stroke-width="0.07498795" x1="-2.354744426152689" y1="0.9767209163676224" x2="-3.2993138274084353" y2="0.001244699558421883" stroke-linecap="round"/><line stroke="black" stroke-width="0.07498795" x1="-3.2993138274084353" y1="0.001244699558421883" x2="-2.3545834253671134" y2="-0.9740753834267876" stroke-linecap="round"/><line stroke="black" stroke-width="0.07498795" x1="-2.3545834253671134" y1="-0.9740753834267876" x2="-3.048052318293803" y2="-1.261386744383904" stroke-linecap="round"/><line stroke="black" stroke-width="0.07498795" x1="-2.3545834253671134" y1="-0.9740753834267876" x2="-2.332728980635161" y2="-2.3317525176714473" stroke-linecap="round"/><line stroke="black" stroke-width="0.07498795" x1="-2.332728980635161" y1="-2.3317525176714473" x2="-0.9750481065156993" y2="-2.3533827176397146" stroke-linecap="round"/><line stroke="black" stroke-width="0.07498795" x1="-0.9750481065156993" y1="-2.3533827176397146" x2="-1.2622449262490252" y2="-3.0468993470724084" stroke-linecap="round"/><line stroke="black" stroke-width="0.07498795" x1="-0.9750481065156993" y1="-2.3533827176397146" x2="-4.1795993749316196e-17" y2="-3.2975377958779926" stroke-linecap="round"/><line stroke="black" stroke-width="0.07498795" x1="-0.9754370251144965" y1="2.356256132100579" x2="-1.331660063867323" y2="1.3331128697104075" stroke-linecap="round"/><line stroke="black" stroke-width="0.07498795" x1="-2.354744426152689" y1="0.9767209163676224" x2="-1.8831606354903305" y2="0.001361665906491766" stroke-linecap="round"/><line stroke="black" stroke-width="0.07498795" x1="-2.3545834253671134" y1="-0.9740753834267876" x2="-1.3314401726347416" y2="-1.3302983939855502" stroke-linecap="round"/><line stroke="black" stroke-width="0.07498795" x1="-0.9750481065156993" y1="-2.3533827176397146" x2="-3.0249240612345574e-17" y2="-1.8819493563617633" stroke-linecap="round"/><line stroke="black" stroke-width="0.07498795" x1="-0.9754370251144965" y1="2.356256132100579" x2="-5.853918813857354e-17" y2="1.8848333772124062" stroke-linecap="round"/><line stroke="black" stroke-width="0.07498795" x1="-3.4468033789933426e-17" y1="1.8848333301664146" x2="-1.331660063867323" y2="1.3331128697104075" stroke-linecap="round"/><line stroke="black" stroke-width="0.07498795" x1="-2.354744426152689" y1="0.9767209163676224" x2="-1.331660063867323" y2="1.3331128697104075" stroke-linecap="round"/><line stroke="black" stroke-width="0.07498795" x1="-1.331660063867323" y1="1.3331128697104075" x2="-1.8831606354903305" y2="0.001361665906491766" stroke-linecap="round"/><line stroke="black" stroke-width="0.07498795" x1="-2.3545834253671134" y1="-0.9740753834267876" x2="-1.8831606354903305" y2="0.001361665906491766" stroke-linecap="round"/><line stroke="black" stroke-width="0.07498795" x1="-1.8831606354903305" y1="0.001361665906491766" x2="-1.3314401726347416" y2="-1.3302983939855502" stroke-linecap="round"/><line stroke="black" stroke-width="0.07498795" x1="-0.9750481065156993" y1="-2.3533827176397146" x2="-1.3314401726347416" y2="-1.3302983939855502" stroke-linecap="round"/><line stroke="black" stroke-width="0.07498795" x1="-1.3314401726347416" y1="-1.3302983939855502" x2="5.084908188957016e-17" y2="-1.881670119713403" stroke-linecap="round"/><line stroke="black" stroke-width="0.07498795" x1="-0.00011697032335196785" y1="3.300986524484099" x2="-0.4307816768866931" y2="3.272723460280805" stroke-linecap="round"/><line stroke="black" stroke-width="0.07498795" x1="-0.4307816768866931" y1="3.272723460280805" x2="-0.8540730877113437" y2="3.1884893182281635" stroke-linecap="round"/><line stroke="black" stroke-width="0.07498795" x1="-0.8540730877113437" y1="3.1884893182281635" x2="-1.2627483860716129" y2="3.049725025027269" stroke-linecap="round"/><line stroke="black" stroke-width="0.07498795" x1="-1.2627483860716129" y1="3.049725025027269" x2="-1.6498150291682616" y2="2.858805191734924" stroke-linecap="round"/><line stroke="black" stroke-width="0.07498795" x1="-1.6498150291682616" y1="2.858805191734924" x2="-2.0086502638536903" y2="2.618996165901833" stroke-linecap="round"/><line stroke="black" stroke-width="0.07498795" x1="-2.0086502638536903" y1="2.618996165901833" x2="-2.3331143003294796" y2="2.334401639079625" stroke-linecap="round"/><line stroke="black" stroke-width="0.07498795" x1="-2.3331143003294796" y1="2.334401639079625" x2="-2.6176553103928617" y2="2.009890641304395" stroke-linecap="round"/><line stroke="black" stroke-width="0.07498795" x1="-2.6176553103928617" y1="2.009890641304395" x2="-2.857404902875824" y2="1.651015944646364" stroke-linecap="round"/><line stroke="black" stroke-width="0.07498795" x1="-2.857404902875824" y1="1.651015944646364" x2="-3.0482609041779236" y2="1.2639176619558932" stroke-linecap="round"/><line stroke="black" stroke-width="0.07498795" x1="-3.0482609041779236" y1="1.2639176619558932" x2="-3.186957675404107" y2="0.8552195220586626" stroke-linecap="round"/><line stroke="black" stroke-width="0.07498795" x1="-3.186957675404107" y1="0.8552195220586626" x2="-3.271122088765408" y2="0.4319141801631856" stroke-linecap="round"/><line stroke="black" stroke-width="0.07498795" x1="-3.271122088765408" y1="0.4319141801631856" x2="-3.2993138274084353" y2="0.001244699558421883" stroke-linecap="round"/><line stroke="black" stroke-width="0.07498795" x1="-3.2993138274084353" y1="0.001244699558421883" x2="-3.2710509694420558" y2="-0.42942014065545236" stroke-linecap="round"/><line stroke="black" stroke-width="0.07498795" x1="-3.2710509694420558" y1="-0.42942014065545236" x2="-3.1868166066657966" y2="-0.8527114601206663" stroke-linecap="round"/><line stroke="black" stroke-width="0.07498795" x1="-3.1868166066657966" y1="-0.8527114601206663" x2="-3.048052318293803" y2="-1.261386744383904" stroke-linecap="round"/><line stroke="black" stroke-width="0.07498795" x1="-3.048052318293803" y1="-1.261386744383904" x2="-2.8571324946592584" y2="-1.6484533592864876" stroke-linecap="round"/><line stroke="black" stroke-width="0.07498795" x1="-2.8571324946592584" y1="-1.6484533592864876" x2="-2.617323733009887" y2="-2.0072885584580624" stroke-linecap="round"/><line stroke="black" stroke-width="0.07498795" x1="-2.617323733009887" y1="-2.0072885584580624" x2="-2.332728980635161" y2="-2.3317525176714473" stroke-linecap="round"/><line stroke="black" stroke-width="0.07498795" x1="-2.332728980635161" y1="-2.3317525176714473" x2="-2.0082179442287313" y2="-2.6162936405110906" stroke-linecap="round"/><line stroke="black" stroke-width="0.07498795" x1="-2.0082179442287313" y1="-2.6162936405110906" x2="-1.6493432089394968" y2="-2.85604334577031" stroke-linecap="round"/><line stroke="black" stroke-width="0.07498795" x1="-1.6493432089394968" y1="-2.85604334577031" x2="-1.2622449262490252" y2="-3.0468993470724084" stroke-linecap="round"/><line stroke="black" stroke-width="0.07498795" x1="-1.2622449262490252" y1="-3.0468993470724084" x2="-0.8535467863517965" y2="-3.185596118298594" stroke-linecap="round"/><line stroke="black" stroke-width="0.07498795" x1="-0.8535467863517965" y1="-3.185596118298594" x2="-0.43024152171872215" y2="-3.2697603061073752" stroke-linecap="round"/><line stroke="black" stroke-width="0.07498795" x1="-0.43024152171872215" y1="-3.2697603061073752" x2="4.87890977618477e-19" y2="-3.2979242507237534" stroke-linecap="round"/></g><line stroke="#B46B37" stroke-width="0.07498795" x1="0.037493974" y1="-3.672892" x2="0.037493974" y2="3.6759264" stroke-linecap="round"/></g></svg>