<svg xmlns="http://www.w3.org/2000/svg" width="600" height="800"><g transform="translate(50.0) translate(300.0 400.0) scale(55.95564651489258) translate(-0.023995518684387207 -0.030529499053955078)"><g transform="scale(-1 1)"><line stroke="#966441" stroke-width="0.08935649" x1="-3.907281863340433" y1="-2.553955020018396" x2="-2.9308766694170068" y2="-1.9828159455322911" stroke-linecap="round"/><line stroke="#966441" stroke-width="0.08935649" x1="-2.9308766694170068" y1="-1.9828159455322911" x2="-2.9277292646160618" y2="2.0394548888803357" stroke-linecap="round"/><line stroke="#966441" stroke-width="0.08935649" x1="-3.9022992679407977" y1="2.6193672545750957" x2="-3.903889240520355" y2="2.6175094620881367" stroke-linecap="round"/><line stroke="#966441" stroke-width="0.08935649" x1="-2.9277292646160618" y1="2.0394548888803357" x2="-3.9022992679407977" y2="2.6193672545750957" stroke-linecap="round"/><line stroke="#966441" stroke-width="0.08935649" x1="-2.4681476157721463" y1="4.103187033012425" x2="-1.8868159656671821" y2="3.1464628303380984" stroke-linecap="round"/><line stroke="#966441" stroke-width="0.08935649" x1="0.0" y1="-3.069067792969063" x2="-1.8307608151455739" y2="-3.074713532557489" stroke-linecap="round"/><line stroke="#966441" stroke-width="0.08935649" x1="-1.8307608151455739" y1="-3.074713532557489" x2="-1.831460329390211" y2="-3.069773942818026" stroke-linecap="round"/><line stroke="#966441" stroke-width="0.08935649" x1="-1.831460329390211" y1="-3.069773942818026" x2="-2.9231394653500473" y2="-1.9840234064170659" stroke-linecap="round"/><line stroke="#966441" stroke-width="0.08935649" x1="-2.4055342283097545" y1="-4.041854771277734" x2="-1.8307608151455739" y2="-3.074713532557489" stroke-linecap="round"/><line stroke="#966441" stroke-width="0.08935649" x1="-2.41139163320571" y1="-4.0418681196650805" x2="-2.4055342283097545" y2="-4.041854771277734" stroke-linecap="round"/><line stroke="#966441" stroke-width="0.08935649" x1="-3.7597803735336015" y1="2.7767020444380464" x2="-3.887600775464195" y2="2.636541965391274" stroke-linecap="round"/><line stroke="#966441" stroke-width="0.08935649" x1="-2.486182446825154" y1="4.08826448017118" x2="-3.7597803735336015" y2="2.7767020444380464" stroke-linecap="round"/><line stroke="#966441" stroke-width="0.08935649" x1="-2.4707637265279523" y1="4.103172889715058" x2="-2.486182446825154" y2="4.08826448017118" stroke-linecap="round"/><line stroke="#966441" stroke-width="0.08935649" x1="-2.9241502638735497" y1="2.0400253585994825" x2="-1.8896736612839788" y2="3.124467871998526" stroke-linecap="round"/><line stroke="#966441" stroke-width="0.08935649" x1="-2.9277292646160618" y1="2.0394548888803357" x2="-2.9241502638735497" y2="2.0400253585994825" stroke-linecap="round"/><line stroke="#966441" stroke-width="0.08935649" x1="-1.6990619481810487" y1="-1.221880031850871" x2="-1.7152073207842964" y2="1.2775717757509923" stroke-linecap="round"/><line stroke="#966441" stroke-width="0.08935649" x1="-2.9231394653500473" y1="-1.9840234064170659" x2="-1.7133562522962524" y2="-1.241629112123226" stroke-linecap="round"/><line stroke="#966441" stroke-width="0.08935649" x1="-2.9308766694170068" y1="-1.9828159455322911" x2="-2.9231394653500473" y2="-1.9840234064170659" stroke-linecap="round"/><line stroke="#966441" stroke-width="0.08935649" x1="-1.8896736612839788" y1="3.124467871998526" x2="-1.113723748802478" y2="1.8891255872541883" stroke-linecap="round"/><line stroke="#966441" stroke-width="0.08935649" x1="0.0" y1="3.14669871829698" x2="-1.8868159656671821" y2="3.1464628303380984" stroke-linecap="round"/><line stroke="#966441" stroke-width="0.08935649" x1="-1.8868159656671821" y1="3.1464628303380984" x2="-1.8896736612839788" y2="3.124467871998526" stroke-linecap="round"/><line stroke="#966441" stroke-width="0.08935649" x1="0.0" y1="-1.8627369447665303" x2="-1.095886879265148" y2="-1.873132121009653" stroke-linecap="round"/><line stroke="#966441" stroke-width="0.08935649" x1="-1.831460329390211" y1="-3.069773942818026" x2="-1.095886879265148" y2="-1.873132121009653" stroke-linecap="round"/><line stroke="#966441" stroke-width="0.08935649" x1="-1.7152073207842964" y1="1.2775717757509923" x2="-1.7125783312799179" y2="1.2770935865381698" stroke-linecap="round"/><line stroke="#966441" stroke-width="0.08935649" x1="-2.9241502638735497" y1="2.0400253585994825" x2="-1.7152073207842964" y2="1.2775717757509923" stroke-linecap="round"/><line stroke="#966441" stroke-width="0.08935649" x1="-1.6990619481810487" y1="-1.221880031850871" x2="-0.0028530779270511952" y2="-0.0012327323631156073" stroke-linecap="round"/><line stroke="#966441" stroke-width="0.08935649" x1="-1.6990619481810487" y1="-1.221880031850871" x2="-1.7133562522962524" y2="-1.241629112123226" stroke-linecap="round"/><line stroke="#966441" stroke-width="0.08935649" x1="-1.7133562522962524" y1="-1.241629112123226" x2="-1.095886879265148" y2="-1.873132121009653" stroke-linecap="round"/><line stroke="#966441" stroke-width="0.08935649" x1="-1.095886879265148" y1="-1.873132121009653" x2="-1.5178830414797062e-18" y2="-0.006569140535257036" stroke-linecap="round"/><line stroke="#966441" stroke-width="0.08935649" x1="-1.1130800953618216" y1="1.8816709033073167" x2="-0.007327577990001166" y2="0.0037126261029256646" stroke-linecap="round"/><line stroke="#966441" stroke-width="0.08935649" x1="0.0" y1="1.899287041219825" x2="-1.113723748802478" y2="1.8891255872541883" stroke-linecap="round"/><line stroke="#966441" stroke-width="0.08935649" x1="-1.113723748802478" y1="1.8891255872541883" x2="-1.1130800953618216" y2="1.8816709033073167" stroke-linecap="round"/><line stroke="#966441" stroke-width="0.08935649" x1="-1.1130800953618216" y1="1.8816709033073167" x2="-1.7125783312799179" y2="1.2770935865381698" stroke-linecap="round"/><line stroke="#966441" stroke-width="0.08935649" x1="-1.7125783312799179" y1="1.2770935865381698" x2="-0.007327577990001166" y2="0.0037126261029256646" stroke-linecap="round"/><line stroke="#966441" stroke-width="0.08935649" x1="-3.907281863340433" y1="-2.553955020018396" x2="-3.907689775536195" y2="-2.5450909055651714" stroke-linecap="round"/><line stroke="#966441" stroke-width="0.08935649" x1="-3.907689775536195" y1="-2.5450909055651714" x2="-3.903889240520355" y2="2.6175094620881367" stroke-linecap="round"/><line stroke="#966441" stroke-width="0.08935649" x1="-2.4681476157721463" y1="4.103187033012425" x2="-2.220446049250313e-16" y2="4.100292524456789" stroke-linecap="round"/><line stroke="#966441" stroke-width="0.08935649" x1="0.0" y1="-4.038054597723959" x2="-2.4055342283097545" y2="-4.041854771277734" stroke-linecap="round"/><line stroke="#966441" stroke-width="0.08935649" x1="-2.41139163320571" y1="-4.0418681196650805" x2="-2.4431767065950893" y2="-4.012880476483019" stroke-linecap="round"/><line stroke="#966441" stroke-width="0.08935649" x1="-3.906520070353686" y1="-2.5705164218752508" x2="-3.907281863340433" y2="-2.553955020018396" stroke-linecap="round"/><line stroke="#966441" stroke-width="0.08935649" x1="-2.4431767065950893" y1="-4.012880476483019" x2="-3.906520070353686" y2="-2.5705164218752508" stroke-linecap="round"/><line stroke="#966441" stroke-width="0.08935649" x1="-3.9022992679407977" y1="2.6193672545750957" x2="-3.887600775464195" y2="2.636541965391274" stroke-linecap="round"/><line stroke="#966441" stroke-width="0.08935649" x1="-2.4707637265279523" y1="4.103172889715058" x2="-2.4681476157721463" y2="4.103187033012425" stroke-linecap="round"/></g><g><line stroke="black" stroke-width="0.08935649" x1="3.9074659914383876" y1="-2.5919877510314606" x2="2.968432609272705" y2="-2.0147647227001535" stroke-linecap="round"/><line stroke="black" stroke-width="0.08935649" x1="2.968432609272705" y1="-2.0147647227001535" x2="1.8684007507029143" y2="-3.0710016425041395" stroke-linecap="round"/><line stroke="black" stroke-width="0.08935649" x1="1.8684007507029143" y1="-3.0710016425041395" x2="2.4553387359369125" y2="-4.0309515807427765" stroke-linecap="round"/><line stroke="black" stroke-width="0.08935649" x1="3.909049255570693" y1="2.6277781235951174" x2="2.9580323395227204" y2="2.044234946165158" stroke-linecap="round"/><line stroke="black" stroke-width="0.08935649" x1="2.9580323395227204" y1="2.044234946165158" x2="2.9669666373003967" y2="-2.0118531353258575" stroke-linecap="round"/><line stroke="black" stroke-width="0.08935649" x1="3.91136396202344" y1="2.6254303293661003" x2="3.909049255570693" y2="2.6277781235951174" stroke-linecap="round"/><line stroke="black" stroke-width="0.08935649" x1="3.9074659914383876" y1="-2.5919877510314606" x2="3.9202859857828543" y2="-2.5779218753788555" stroke-linecap="round"/><line stroke="black" stroke-width="0.08935649" x1="1.8684007507029143" y1="-3.0710016425041395" x2="1.8524404216734425" y2="-3.063355197343615" stroke-linecap="round"/><line stroke="black" stroke-width="0.08935649" x1="1.8524404216734425" y1="-3.063355197343615" x2="0.0" y2="-3.069067792969063" stroke-linecap="round"/><line stroke="black" stroke-width="0.08935649" x1="2.451995830254962" y1="-4.034181025858533" x2="2.4553387359369125" y2="-4.0309515807427765" stroke-linecap="round"/><line stroke="black" stroke-width="0.08935649" x1="2.454154271960469" y1="4.0974144265295624" x2="1.8769833266289524" y2="3.146933376988569" stroke-linecap="round"/><line stroke="black" stroke-width="0.08935649" x1="1.8769833266289524" y1="3.146933376988569" x2="2.9509639831467247" y2="2.0454273022453933" stroke-linecap="round"/><line stroke="black" stroke-width="0.08935649" x1="2.4571399585498455" y1="4.097390998213816" x2="2.454154271960469" y2="4.0974144265295624" stroke-linecap="round"/><line stroke="black" stroke-width="0.08935649" x1="2.9509639831467247" y1="2.0454273022453933" x2="1.7086043603695646" y2="1.240889482883297" stroke-linecap="round"/><line stroke="black" stroke-width="0.08935649" x1="2.9580323395227204" y1="2.044234946165158" x2="2.9509639831467247" y2="2.0454273022453933" stroke-linecap="round"/><line stroke="black" stroke-width="0.08935649" x1="1.8769833266289524" y1="3.146933376988569" x2="0.0" y2="3.14669871829698" stroke-linecap="round"/><line stroke="black" stroke-width="0.08935649" x1="1.0825416712461298" y1="-1.852468356214148" x2="0.0" y2="-1.8627369447665303" stroke-linecap="round"/><line stroke="black" stroke-width="0.08935649" x1="1.8524404216734425" y1="-3.063355197343615" x2="1.1198835845660096" y2="-1.8791430795028496" stroke-linecap="round"/><line stroke="black" stroke-width="0.08935649" x1="1.0713016914579505" y1="1.9028824948932792" x2="1.6979098404020583" y2="1.2387584870293757" stroke-linecap="round"/><line stroke="black" stroke-width="0.08935649" x1="1.0719952938987305" y1="1.9090677708146133" x2="1.0713016914579505" y2="1.9028824948932792" stroke-linecap="round"/><line stroke="black" stroke-width="0.08935649" x1="1.8769833266289524" y1="3.146933376988569" x2="1.0719952938987305" y2="1.9090677708146133" stroke-linecap="round"/><line stroke="black" stroke-width="0.08935649" x1="1.7473668854493187" y1="-1.2777729251279393" x2="1.7424734629415477" y2="-1.2768151710866729" stroke-linecap="round"/><line stroke="black" stroke-width="0.08935649" x1="2.9669666373003967" y1="-2.0118531353258575" x2="1.7473668854493187" y2="-1.2777729251279393" stroke-linecap="round"/><line stroke="black" stroke-width="0.08935649" x1="2.968432609272705" y1="-2.0147647227001535" x2="2.9669666373003967" y2="-2.0118531353258575" stroke-linecap="round"/><line stroke="black" stroke-width="0.08935649" x1="1.6979098404020583" y1="1.2387584870293757" x2="0.010348339036617138" y2="0.009792881968757605" stroke-linecap="round"/><line stroke="black" stroke-width="0.08935649" x1="1.7473668854493187" y1="-1.2777729251279393" x2="1.7086043603695646" y2="1.240889482883297" stroke-linecap="round"/><line stroke="black" stroke-width="0.08935649" x1="1.7086043603695646" y1="1.240889482883297" x2="1.6979098404020583" y2="1.2387584870293757" stroke-linecap="round"/><line stroke="black" stroke-width="0.08935649" x1="1.0825416712461298" y1="-1.852468356214148" x2="8.71754949320902e-05" y2="-0.006420659378375326" stroke-linecap="round"/><line stroke="black" stroke-width="0.08935649" x1="1.0713016914579505" y1="1.9028824948932792" x2="0.010348339036617138" y2="0.009792881968757605" stroke-linecap="round"/><line stroke="black" stroke-width="0.08935649" x1="1.0719952938987305" y1="1.9090677708146133" x2="0.0" y2="1.899287041219825" stroke-linecap="round"/><line stroke="black" stroke-width="0.08935649" x1="1.1198835845660096" y1="-1.8791430795028496" x2="1.7424734629415477" y2="-1.2768151710866729" stroke-linecap="round"/><line stroke="black" stroke-width="0.08935649" x1="1.0825416712461298" y1="-1.852468356214148" x2="1.1198835845660096" y2="-1.8791430795028496" stroke-linecap="round"/><line stroke="black" stroke-width="0.08935649" x1="1.7424734629415477" y1="-1.2768151710866729" x2="0.00012931990382492042" y2="-0.0036339059896077774" stroke-linecap="round"/><line stroke="black" stroke-width="0.08935649" x1="3.9074659914383876" y1="-2.5919877510314606" x2="3.9054941941713963" y2="-2.5941505272759073" stroke-linecap="round"/><line stroke="black" stroke-width="0.08935649" x1="3.9054941941713963" y1="-2.5941505272759073" x2="2.4553387359369125" y2="-4.0309515807427765" stroke-linecap="round"/><line stroke="black" stroke-width="0.08935649" x1="3.91136396202344" y1="2.6254303293661003" x2="3.9489442213337185" y2="2.16670012104597" stroke-linecap="round"/><line stroke="black" stroke-width="0.08935649" x1="3.9489442213337185" y1="2.16670012104597" x2="3.955477661226663" y2="2.0247919940001893" stroke-linecap="round"/><line stroke="black" stroke-width="0.08935649" x1="3.955477661226663" y1="2.0247919940001893" x2="3.9202859857828543" y2="-2.5779218753788555" stroke-linecap="round"/><line stroke="black" stroke-width="0.08935649" x1="-2.220446049250313e-16" y1="4.100292524456789" x2="2.454154271960469" y2="4.0974144265295624" stroke-linecap="round"/><line stroke="black" stroke-width="0.08935649" x1="2.451995830254962" y1="-4.034181025858533" x2="0.0" y2="-4.038054597723959" stroke-linecap="round"/><line stroke="black" stroke-width="0.08935649" x1="2.4571399585498455" y1="4.097390998213816" x2="3.909049255570693" y2="2.6277781235951174" stroke-linecap="round"/></g><line stroke="#B46B37" stroke-width="0.08935649" x1="-0.044678245" y1="-4.4889107" x2="-0.044678245" y2="4.5499697" stroke-linecap="round"/></g><g transform="translate(-50.0) translate(300.0 400.0) scale(55.95564651489258) translate(-0.023995518684387207 -0.030529499053955078)"><g transform="scale(-1 1)"><line stroke="#966441" stroke-width="0.08935649" x1="2.359416145435266" y1="-1.7491390339609254" x2="2.3393260455352367" y2="1.8372178951291818" stroke-linecap="round"/><line stroke="#966441" stroke-width="0.08935649" x1="2.3393260455352367" y1="1.8372178951291818" x2="2.902218963702841" y2="2.1212812294597363" stroke-linecap="round"/><line stroke="#966441" stroke-width="0.08935649" x1="2.902218963702841" y1="2.1212812294597363" x2="2.9154984894630287" y2="-2.052516053389858" stroke-linecap="round"/><line stroke="#966441" stroke-width="0.08935649" x1="-1.1102230246251565e-16" y1="-2.4685471522654554" x2="1.6320019478026364" y2="-2.4661464811280083" stroke-linecap="round"/><line stroke="#966441" stroke-width="0.08935649" x1="1.6320019478026364" y1="-2.4661464811280083" x2="1.9081533858462056" y2="-2.9870087505443554" stroke-linecap="round"/><line stroke="#966441" stroke-width="0.08935649" x1="1.9081533858462056" y1="-2.9870087505443554" x2="-1.1102230246251565e-16" y2="-2.9947090513700076" stroke-linecap="round"/><line stroke="#966441" stroke-width="0.08935649" x1="2.359416145435266" y1="-1.7491390339609254" x2="2.896080996648283" y2="-2.0460293764918784" stroke-linecap="round"/><line stroke="#966441" stroke-width="0.08935649" x1="2.896080996648283" y1="-2.0460293764918784" x2="1.913031226234675" y2="-2.99298132770181" stroke-linecap="round"/><line stroke="#966441" stroke-width="0.08935649" x1="1.956987208866403" y1="3.1225468941878503" x2="1.9648827993218676" y2="3.1322248375724877" stroke-linecap="round"/><line stroke="#966441" stroke-width="0.08935649" x1="1.9648827993218676" y1="3.1322248375724877" x2="2.9184993563031565" y2="2.133663322019872" stroke-linecap="round"/><line stroke="#966441" stroke-width="0.08935649" x1="2.3393260455352367" y1="1.8372178951291818" x2="1.6477964856119272" y2="2.524690856088409" stroke-linecap="round"/><line stroke="#966441" stroke-width="0.08935649" x1="1.956987208866403" y1="3.1225468941878503" x2="1.6477964856119272" y2="2.524690856088409" stroke-linecap="round"/><line stroke="#966441" stroke-width="0.08935649" x1="1.6477964856119272" y1="2.524690856088409" x2="1.1102230246251565e-16" y2="2.516461654284414" stroke-linecap="round"/><line stroke="#966441" stroke-width="0.08935649" x1="2.9184993563031565" y1="2.133663322019872" x2="3.427558158272649" y2="2.374983846167208" stroke-linecap="round"/><line stroke="#966441" stroke-width="0.08935649" x1="3.427558158272649" y1="2.374983846167208" x2="3.4387835200738746" y2="-2.3374632693267308" stroke-linecap="round"/><line stroke="#966441" stroke-width="0.08935649" x1="2.902218963702841" y1="2.1212812294597363" x2="2.9184993563031565" y2="2.133663322019872" stroke-linecap="round"/><line stroke="#966441" stroke-width="0.08935649" x1="3.4387835200738746" y1="-2.3374632693267308" x2="3.42441683038332" y2="-2.335199858401712" stroke-linecap="round"/><line stroke="#966441" stroke-width="0.08935649" x1="1.956987208866403" y1="3.1225468941878503" x2="0.0" y2="3.1071878614929265" stroke-linecap="round"/><line stroke="#966441" stroke-width="0.08935649" x1="-2.220446049250313e-16" y1="3.6117478302983526" x2="2.2205336453969293" y2="3.617022735807409" stroke-linecap="round"/><line stroke="#966441" stroke-width="0.08935649" x1="2.200722260857917" y1="-3.5149906580819064" x2="2.203188038079407" y2="-3.5329090146757167" stroke-linecap="round"/><line stroke="#966441" stroke-width="0.08935649" x1="2.203188038079407" y1="-3.5329090146757167" x2="0.0" y2="-3.53373655824774" stroke-linecap="round"/><line stroke="#966441" stroke-width="0.08935649" x1="1.913031226234675" y1="-2.99298132770181" x2="2.200722260857917" y2="-3.5149906580819064" stroke-linecap="round"/><line stroke="#966441" stroke-width="0.08935649" x1="1.9081533858462056" y1="-2.9870087505443554" x2="1.913031226234675" y2="-2.99298132770181" stroke-linecap="round"/><line stroke="#966441" stroke-width="0.08935649" x1="2.9154984894630287" y1="-2.052516053389858" x2="3.42441683038332" y2="-2.335199858401712" stroke-linecap="round"/><line stroke="#966441" stroke-width="0.08935649" x1="3.42441683038332" y1="-2.335199858401712" x2="2.200722260857917" y2="-3.5149906580819064" stroke-linecap="round"/><line stroke="#966441" stroke-width="0.08935649" x1="2.896080996648283" y1="-2.0460293764918784" x2="2.9154984894630287" y2="-2.052516053389858" stroke-linecap="round"/><line stroke="#966441" stroke-width="0.08935649" x1="2.2205336453969293" y1="3.617022735807409" x2="2.2214771151276524" y2="3.6180382913233977" stroke-linecap="round"/><line stroke="#966441" stroke-width="0.08935649" x1="2.2214771151276524" y1="3.6180382913233977" x2="3.4354123183977854" y2="2.3825884786697062" stroke-linecap="round"/><line stroke="#966441" stroke-width="0.08935649" x1="1.9648827993218676" y1="3.1322248375724877" x2="2.2205336453969293" y2="3.617022735807409" stroke-linecap="round"/><line stroke="#966441" stroke-width="0.08935649" x1="2.203188038079407" y1="-3.5329090146757167" x2="2.443503445219168" y2="-4.034437648292216" stroke-linecap="round"/><line stroke="#966441" stroke-width="0.08935649" x1="3.4387835200738746" y1="-2.3374632693267308" x2="3.906457407978741" y2="-2.586355336196999" stroke-linecap="round"/><line stroke="#966441" stroke-width="0.08935649" x1="3.4354123183977854" y1="2.3825884786697062" x2="3.9029505508173" y2="2.6347213981872364" stroke-linecap="round"/><line stroke="#966441" stroke-width="0.08935649" x1="3.427558158272649" y1="2.374983846167208" x2="3.4354123183977854" y2="2.3825884786697062" stroke-linecap="round"/><line stroke="#966441" stroke-width="0.08935649" x1="2.220446049250313e-16" y1="4.097713352131223" x2="2.4610313807813013" y2="4.094728225863978" stroke-linecap="round"/><line stroke="#966441" stroke-width="0.08935649" x1="2.2214771151276524" y1="3.6180382913233977" x2="2.46556952485041" y2="4.090146950578727" stroke-linecap="round"/><line stroke="#966441" stroke-width="0.08935649" x1="2.46556952485041" y1="4.090146950578727" x2="3.8984464211239724" y2="2.63968231502685" stroke-linecap="round"/><line stroke="#966441" stroke-width="0.08935649" x1="2.359416145435266" y1="-1.7491390339609254" x2="1.6320019478026364" y2="-2.4661464811280083" stroke-linecap="round"/><line stroke="#966441" stroke-width="0.08935649" x1="3.9141322746789213" y1="-2.5788632376799576" x2="3.922198259221814" y2="-0.46584782958962045" stroke-linecap="round"/><line stroke="#966441" stroke-width="0.08935649" x1="3.922198259221814" y1="-0.46584782958962045" x2="3.925039608355934" y2="-2.409585753296771" stroke-linecap="round"/><line stroke="#966441" stroke-width="0.08935649" x1="3.9237620003501585" y1="1.6298744403441314" x2="3.918124027039132" y2="2.1610316984796367" stroke-linecap="round"/><line stroke="#966441" stroke-width="0.08935649" x1="3.918124027039132" y1="2.1610316984796367" x2="3.9249714356414556" y2="1.943677466485575" stroke-linecap="round"/><line stroke="#966441" stroke-width="0.08935649" x1="3.9305301606625322" y1="2.399518193318335" x2="3.9249714356414556" y2="1.943677466485575" stroke-linecap="round"/><line stroke="#966441" stroke-width="0.08935649" x1="3.918124027039132" y1="2.1610316984796367" x2="3.9091603654563056" y2="2.627881329112709" stroke-linecap="round"/><line stroke="#966441" stroke-width="0.08935649" x1="3.9091603654563056" y1="2.627881329112709" x2="3.91236259406284" y2="2.6243531793803707" stroke-linecap="round"/><line stroke="#966441" stroke-width="0.08935649" x1="2.220446049250313e-16" y1="-4.038313037323247" x2="2.443503445219168" y2="-4.034437648292216" stroke-linecap="round"/><line stroke="#966441" stroke-width="0.08935649" x1="2.443503445219168" y1="-4.034437648292216" x2="2.4457637177543723" y2="-4.034433129545909" stroke-linecap="round"/><line stroke="#966441" stroke-width="0.08935649" x1="2.4457637177543723" y1="-4.034433129545909" x2="3.906457407978741" y2="-2.586355336196999" stroke-linecap="round"/><line stroke="#966441" stroke-width="0.08935649" x1="3.906457407978741" y1="-2.586355336196999" x2="3.9141322746789213" y2="-2.5788632376799576" stroke-linecap="round"/><line stroke="#966441" stroke-width="0.08935649" x1="3.922198259221814" y1="-0.46584782958962045" x2="3.9237620003501585" y2="1.6298744403441314" stroke-linecap="round"/><line stroke="#966441" stroke-width="0.08935649" x1="3.9091603654563056" y1="2.627881329112709" x2="3.9029505508173" y2="2.6347213981872364" stroke-linecap="round"/><line stroke="#966441" stroke-width="0.08935649" x1="2.46556952485041" y1="4.090146950578727" x2="2.4610313807813013" y2="4.094728225863978" stroke-linecap="round"/><line stroke="#966441" stroke-width="0.08935649" x1="3.9029505508173" y1="2.6347213981872364" x2="3.8984464211239724" y2="2.63968231502685" stroke-linecap="round"/><line stroke="#966441" stroke-width="0.08935649" x1="3.9141322746789213" y1="-2.5788632376799576" x2="3.9238766554350577" y2="-2.5698288875948982" stroke-linecap="round"/><line stroke="#966441" stroke-width="0.08935649" x1="3.9238766554350577" y1="-2.5698288875948982" x2="3.925039608355934" y2="-2.409585753296771" stroke-linecap="round"/><line stroke="#966441" stroke-width="0.08935649" x1="3.9237620003501585" y1="1.6298744403441314" x2="3.9249714356414556" y2="1.943677466485575" stroke-linecap="round"/><line stroke="#966441" stroke-width="0.08935649" x1="3.9305301606625322" y1="2.399518193318335" x2="3.91236259406284" y2="2.6243531793803707" stroke-linecap="round"/></g><g><line stroke="black" stroke-width="0.08935649" x1="-2.3785234099633255" y1="-1.7240831172982884" x2="-2.882849371373897" y2="-1.9954032764856218" stroke-linecap="round"/><line stroke="black" stroke-width="0.08935649" x1="-2.882849371373897" y1="-1.9954032764856218" x2="-2.9110078873906398" y2="2.1034705332693737" stroke-linecap="round"/><line stroke="black" stroke-width="0.08935649" x1="-2.9110078873906398" y1="2.1034705332693737" x2="-2.35708095489989" y2="1.800618377327878" stroke-linecap="round"/><line stroke="black" stroke-width="0.08935649" x1="-1.6517971840873014" y1="-2.470976942150261" x2="-1.1102230246251565e-16" y2="-2.4685471522654554" stroke-linecap="round"/><line stroke="black" stroke-width="0.08935649" x1="-1.1102230246251565e-16" y1="-2.9947090513700076" x2="-1.90984118062905" y2="-3.002416163245367" stroke-linecap="round"/><line stroke="black" stroke-width="0.08935649" x1="-1.6517971840873014" y1="-2.470976942150261" x2="-1.905935515426906" y2="-2.9889668748010365" stroke-linecap="round"/><line stroke="black" stroke-width="0.08935649" x1="-2.3785234099633255" y1="-1.7240831172982884" x2="-1.6517971840873014" y2="-2.470976942150261" stroke-linecap="round"/><line stroke="black" stroke-width="0.08935649" x1="-1.905935515426906" y1="-2.9889668748010365" x2="-2.915031619322913" y2="-2.0216532161212766" stroke-linecap="round"/><line stroke="black" stroke-width="0.08935649" x1="-1.9526734558103147" y1="3.0885236526071145" x2="-1.9537295578931801" y2="3.0918543958367546" stroke-linecap="round"/><line stroke="black" stroke-width="0.08935649" x1="1.1102230246251565e-16" y1="2.516461654284414" x2="-1.6477970508130348" y2="2.5082324496577675" stroke-linecap="round"/><line stroke="black" stroke-width="0.08935649" x1="-2.9110078873906398" y1="2.1034705332693737" x2="-2.918218063889016" y2="2.1093894026861117" stroke-linecap="round"/><line stroke="black" stroke-width="0.08935649" x1="-1.9526734558103147" y1="3.0885236526071145" x2="-1.6477970508130348" y2="2.5082324496577675" stroke-linecap="round"/><line stroke="black" stroke-width="0.08935649" x1="-3.3972967942842316" y1="-2.296940421252607" x2="-3.4051383088859692" y2="-2.298304055297319" stroke-linecap="round"/><line stroke="black" stroke-width="0.08935649" x1="-2.915031619322913" y1="-2.0216532161212766" x2="-3.3972967942842316" y2="-2.296940421252607" stroke-linecap="round"/><line stroke="black" stroke-width="0.08935649" x1="-2.882849371373897" y1="-1.9954032764856218" x2="-2.915031619322913" y2="-2.0216532161212766" stroke-linecap="round"/><line stroke="black" stroke-width="0.08935649" x1="-3.4051383088859692" y1="-2.298304055297319" x2="-3.4275974457210707" y2="2.394995010489446" stroke-linecap="round"/><line stroke="black" stroke-width="0.08935649" x1="-2.2414524427473808" y1="3.587175083923727" x2="-2.244531684569218" y2="3.606415917146426" stroke-linecap="round"/><line stroke="black" stroke-width="0.08935649" x1="0.0" y1="3.1071878614929265" x2="-1.9537295578931801" y2="3.0918543958367546" stroke-linecap="round"/><line stroke="black" stroke-width="0.08935649" x1="-1.9537295578931801" y1="3.0918543958367546" x2="-2.2414524427473808" y2="3.587175083923727" stroke-linecap="round"/><line stroke="black" stroke-width="0.08935649" x1="-2.244531684569218" y1="3.606415917146426" x2="-2.220446049250313e-16" y2="3.6117478302983526" stroke-linecap="round"/><line stroke="black" stroke-width="0.08935649" x1="0.0" y1="-3.53373655824774" x2="-2.1713955914450054" y2="-3.5345521601995302" stroke-linecap="round"/><line stroke="black" stroke-width="0.08935649" x1="-2.1713955914450054" y1="-3.5345521601995302" x2="-2.1652286763000324" y2="-3.4893699632898194" stroke-linecap="round"/><line stroke="black" stroke-width="0.08935649" x1="-1.90984118062905" y1="-3.002416163245367" x2="-2.1652286763000324" y2="-3.4893699632898194" stroke-linecap="round"/><line stroke="black" stroke-width="0.08935649" x1="-1.905935515426906" y1="-2.9889668748010365" x2="-1.90984118062905" y2="-3.002416163245367" stroke-linecap="round"/><line stroke="black" stroke-width="0.08935649" x1="-1.9526734558103147" y1="3.0885236526071145" x2="-2.918218063889016" y2="2.1093894026861117" stroke-linecap="round"/><line stroke="black" stroke-width="0.08935649" x1="-2.918218063889016" y1="2.1093894026861117" x2="-3.4144103589541674" y2="2.3930182259723862" stroke-linecap="round"/><line stroke="black" stroke-width="0.08935649" x1="-3.4144103589541674" y1="2.3930182259723862" x2="-2.2414524427473808" y2="3.587175083923727" stroke-linecap="round"/><line stroke="black" stroke-width="0.08935649" x1="-3.4051383088859692" y1="-2.298304055297319" x2="-3.904955850304282" y2="-2.5527245692420064" stroke-linecap="round"/><line stroke="black" stroke-width="0.08935649" x1="-3.904955850304282" y1="-2.5527245692420064" x2="-3.9007112378805053" y2="2.6212910476324263" stroke-linecap="round"/><line stroke="black" stroke-width="0.08935649" x1="-2.244531684569218" y1="3.606415917146426" x2="-2.474998640124045" y2="4.09820166779341" stroke-linecap="round"/><line stroke="black" stroke-width="0.08935649" x1="-2.472569676085468" y1="4.100712473859338" x2="2.220446049250313e-16" y2="4.097713352131223" stroke-linecap="round"/><line stroke="black" stroke-width="0.08935649" x1="-2.474998640124045" y1="4.09820166779341" x2="-2.472569676085468" y2="4.100712473859338" stroke-linecap="round"/><line stroke="black" stroke-width="0.08935649" x1="-2.1713955914450054" y1="-3.5345521601995302" x2="-2.4080701224990113" y2="-4.040141803124368" stroke-linecap="round"/><line stroke="black" stroke-width="0.08935649" x1="-3.3972967942842316" y1="-2.296940421252607" x2="-2.1652286763000324" y2="-3.4893699632898194" stroke-linecap="round"/><line stroke="black" stroke-width="0.08935649" x1="-2.4080701224990113" y1="-4.040141803124368" x2="-3.90502200048911" y2="-2.5655039118998326" stroke-linecap="round"/><line stroke="black" stroke-width="0.08935649" x1="-3.8876186386422464" y1="2.6365889803964375" x2="-3.7854092009706912" y2="2.748663919436456" stroke-linecap="round"/><line stroke="black" stroke-width="0.08935649" x1="-3.9007112378805053" y1="2.6212910476324263" x2="-3.8876186386422464" y2="2.6365889803964375" stroke-linecap="round"/><line stroke="black" stroke-width="0.08935649" x1="-3.4275974457210707" y1="2.394995010489446" x2="-3.9007112378805053" y2="2.6212910476324263" stroke-linecap="round"/><line stroke="black" stroke-width="0.08935649" x1="-3.4144103589541674" y1="2.3930182259723862" x2="-3.4275974457210707" y2="2.394995010489446" stroke-linecap="round"/><line stroke="black" stroke-width="0.08935649" x1="-2.35708095489989" y1="1.800618377327878" x2="-1.6477970508130348" y2="2.5082324496577675" stroke-linecap="round"/><line stroke="black" stroke-width="0.08935649" x1="-2.3785234099633255" y1="-1.7240831172982884" x2="-2.35708095489989" y2="1.800618377327878" stroke-linecap="round"/><line stroke="black" stroke-width="0.08935649" x1="-2.4080701224990113" y1="-4.040141803124368" x2="-2.406086534490289" y2="-4.042129083247683" stroke-linecap="round"/><line stroke="black" stroke-width="0.08935649" x1="-2.406086534490289" y1="-4.042129083247683" x2="2.220446049250313e-16" y2="-4.038313037323247" stroke-linecap="round"/><line stroke="black" stroke-width="0.08935649" x1="-3.904955850304282" y1="-2.5527245692420064" x2="-3.90502200048911" y2="-2.5655039118998326" stroke-linecap="round"/><line stroke="black" stroke-width="0.08935649" x1="-2.474998640124045" y1="4.09820166779341" x2="-3.7854092009706912" y2="2.748663919436456" stroke-linecap="round"/></g><line stroke="#B46B37" stroke-width="0.08935649" x1="0.044678245" y1="-4.4889107" x2="0.044678245" y2="4.5499697" stroke-linecap="round"/></g></svg>